{"glyphs":{"0":{"ha":797,"x_min":0,"x_max":0,"o":"m 399 1006 b 526 975 447 1006 489 995 b 617 896 563 955 594 928 b 674 778 640 863 659 824 b 706 640 690 733 700 686 b 715 490 712 593 715 543 b 700 306 715 425 710 363 b 651 143 690 248 673 194 b 552 22 628 92 595 52 b 399 -22 509 -7 458 -22 b 245 22 339 -22 288 -7 b 147 143 202 52 169 92 b 97 305 124 194 107 248 b 82 490 87 362 82 424 b 97 676 82 557 87 619 b 147 840 107 734 124 788 b 245 961 169 891 202 931 b 399 1006 288 991 339 1006 m 399 938 b 279 894 352 938 313 923 b 205 781 246 866 221 828 b 171 639 189 733 177 686 b 161 490 164 592 161 542 b 171 343 161 438 164 389 b 205 202 177 297 189 250 b 279 88 221 154 246 116 b 399 46 313 60 352 46 b 517 88 445 46 484 60 b 591 201 550 116 575 154 b 626 343 607 249 619 296 b 636 490 633 390 636 439 b 626 639 636 542 633 592 b 591 781 619 686 607 733 b 517 894 575 828 550 866 b 399 938 484 923 445 938 "},"1":{"ha":797,"x_min":0,"x_max":0,"o":"m 478 0 l 399 0 l 399 886 l 218 732 l 171 788 l 407 983 l 478 983 "},"2":{"ha":797,"x_min":0,"x_max":0,"o":"m 682 0 l 76 0 l 76 83 l 461 489 b 594 740 550 582 594 666 b 536 884 594 800 575 847 b 392 939 497 921 449 939 b 257 892 340 939 295 923 b 181 765 219 860 194 818 l 103 782 b 205 944 119 849 153 903 b 392 1006 257 985 319 1006 b 594 935 472 1006 540 982 b 675 744 648 889 675 825 b 633 590 675 687 661 635 b 506 431 606 544 563 491 l 161 71 l 682 71 "},"3":{"ha":797,"x_min":0,"x_max":0,"o":"m 299 550 l 339 550 b 506 598 406 550 462 566 b 572 744 550 630 572 679 b 515 885 572 802 553 849 b 372 939 476 921 429 939 b 179 828 293 939 228 902 l 119 867 b 375 1006 178 959 263 1006 b 571 937 453 1006 518 983 b 650 749 624 891 650 828 b 601 600 650 691 634 642 b 469 519 569 558 525 531 l 469 517 b 624 431 534 504 586 475 b 681 268 662 386 681 332 b 595 58 681 182 652 112 b 375 -22 538 5 465 -22 b 79 161 238 -22 139 39 l 144 194 b 375 46 193 95 269 46 b 537 107 440 46 494 66 b 601 268 580 148 601 201 b 524 429 601 340 575 394 b 339 482 472 464 410 482 l 299 482 "},"4":{"ha":797,"x_min":0,"x_max":0,"o":"m 589 313 l 739 313 l 739 243 l 589 243 l 589 0 l 511 0 l 511 243 l 58 243 l 58 322 l 483 983 l 589 983 m 511 894 l 508 894 l 140 313 l 511 313 "},"5":{"ha":797,"x_min":0,"x_max":0,"o":"m 647 913 l 236 913 l 228 585 b 374 611 268 602 316 611 b 600 525 466 611 542 582 b 688 303 658 468 688 394 b 597 68 688 206 657 128 b 369 -22 537 8 461 -22 b 89 139 242 -22 148 31 l 154 176 b 365 46 204 89 275 46 b 537 115 433 46 490 69 b 607 296 584 162 607 222 b 536 477 607 371 583 431 b 351 546 489 523 427 546 b 153 493 285 546 219 528 l 163 983 l 647 983 "},"6":{"ha":797,"x_min":0,"x_max":0,"o":"m 250 533 l 253 531 b 415 585 291 567 345 585 b 626 500 500 585 570 556 b 710 283 682 444 710 371 b 622 63 710 194 681 120 b 399 -22 564 6 489 -22 b 176 63 308 -22 234 6 b 89 283 118 120 89 194 b 175 547 89 364 118 452 l 440 983 l 532 983 m 167 283 b 232 113 167 215 188 158 b 399 44 275 67 331 44 b 565 113 466 44 522 67 b 631 283 609 158 631 215 b 567 453 631 352 609 409 b 401 521 524 498 469 521 b 233 453 333 521 277 498 b 167 283 189 407 167 351 "},"7":{"ha":797,"x_min":0,"x_max":0,"o":"m 675 908 l 275 0 l 186 0 l 596 913 l 107 913 l 107 983 l 675 983 "},"8":{"ha":797,"x_min":0,"x_max":0,"o":"m 514 522 b 655 425 573 505 620 472 b 707 260 690 378 707 323 b 617 56 707 175 677 107 b 399 -22 558 4 485 -22 b 180 56 313 -22 240 4 b 90 260 120 107 90 175 b 142 426 90 323 108 378 b 283 522 177 473 224 506 l 283 525 b 170 613 236 542 198 571 b 128 750 142 654 128 700 b 206 935 128 826 154 888 b 399 1006 259 982 323 1006 b 591 935 475 1006 539 982 b 669 750 643 888 669 826 b 627 613 669 700 655 654 b 514 525 599 571 561 542 l 514 522 m 206 746 b 261 611 206 692 224 647 b 399 557 298 575 344 557 b 536 611 453 557 499 575 b 592 746 573 647 592 692 b 537 884 592 801 573 847 b 399 939 500 921 454 939 b 260 884 343 939 297 921 b 206 746 224 847 206 801 m 169 267 b 233 108 169 203 191 150 b 399 44 276 66 331 44 b 564 108 466 44 521 66 b 628 267 606 150 628 203 b 563 425 628 331 606 383 b 399 488 520 467 465 488 b 234 425 332 488 277 467 b 169 267 191 383 169 331 "},"9":{"ha":797,"x_min":0,"x_max":0,"o":"m 550 453 l 547 456 b 383 401 509 419 455 401 b 173 485 299 401 229 429 b 89 701 117 541 89 613 b 177 920 89 790 118 863 b 401 1006 236 977 311 1006 b 624 921 492 1006 566 977 b 710 701 681 864 710 791 b 625 439 710 619 681 531 l 358 0 l 267 0 m 632 701 b 567 872 632 770 610 827 b 400 939 523 916 468 939 b 233 872 332 939 277 916 b 168 701 190 827 168 770 b 232 532 168 633 189 576 b 399 465 275 488 330 465 b 567 533 467 465 523 488 b 632 701 610 578 632 634 "},"\u0000":{"ha":694,"x_min":0,"x_max":0,"o":""},"\r":{"ha":0,"x_min":0,"x_max":0,"o":""}," ":{"ha":347,"x_min":0,"x_max":0,"o":""},"!":{"ha":433,"x_min":0,"x_max":0,"o":"m 257 268 l 178 268 l 178 983 l 257 983 m 279 54 b 261 10 279 38 273 23 b 217 -8 249 -2 234 -8 b 172 10 199 -8 184 -2 b 154 54 160 23 154 38 b 172 99 154 72 160 87 b 217 118 184 112 199 118 b 261 99 234 118 249 112 b 279 54 273 87 279 72 "},"\"":{"ha":563,"x_min":0,"x_max":0,"o":"m 147 983 l 214 983 l 214 660 l 147 660 m 347 983 l 415 983 l 415 660 l 347 660 "},"#":{"ha":769,"x_min":0,"x_max":0,"o":"m 192 308 l 46 308 l 46 374 l 200 374 l 233 613 l 82 613 l 82 678 l 243 678 l 283 983 l 350 983 l 310 678 l 510 678 l 551 983 l 618 983 l 578 678 l 711 678 l 711 613 l 568 613 l 536 374 l 675 374 l 675 308 l 526 308 l 485 0 l 418 0 l 460 308 l 258 308 l 217 0 l 150 0 m 268 374 l 468 374 l 500 613 l 300 613 "},"$":{"ha":797,"x_min":0,"x_max":0,"o":"m 363 938 b 227 881 309 935 264 916 b 172 746 191 847 172 801 b 363 550 172 651 236 586 m 418 47 b 561 102 474 50 521 68 b 621 250 601 136 621 185 b 418 456 621 344 553 412 m 363 469 b 263 507 324 481 290 494 b 180 557 235 520 207 537 b 117 634 153 577 132 603 b 96 740 103 665 96 700 b 172 924 96 816 121 877 b 363 1000 222 970 286 995 l 363 1100 l 418 1100 l 418 1000 b 672 889 526 998 611 961 l 622 842 b 418 938 569 906 500 938 l 418 531 b 504 498 452 519 481 508 b 579 459 527 488 552 475 b 644 406 606 443 628 425 b 684 337 660 387 673 364 b 700 244 695 309 700 279 b 620 58 700 168 673 105 b 418 -17 567 10 500 -15 l 418 -117 l 363 -117 l 363 -17 b 81 125 247 -14 153 33 l 136 168 b 243 78 167 128 202 98 b 363 47 284 59 324 48 "},"%":{"ha":1151,"x_min":0,"x_max":0,"o":"m 532 761 b 463 594 532 695 509 640 b 296 525 417 548 362 525 b 127 594 229 525 173 548 b 58 761 81 640 58 695 b 127 930 58 828 81 884 b 296 999 173 976 229 999 b 463 930 362 999 417 976 b 532 761 509 884 532 828 m 464 761 b 415 883 464 809 447 850 b 296 932 382 916 342 932 b 176 883 249 932 209 916 b 126 761 143 850 126 809 b 176 640 126 713 143 673 b 296 592 209 608 249 592 b 415 640 342 592 382 608 b 464 761 447 673 464 713 m 1093 221 b 1024 53 1093 155 1070 99 b 856 -15 977 8 921 -15 b 688 53 790 -15 734 8 b 619 221 642 99 619 155 b 688 388 619 287 642 342 b 856 457 734 434 790 457 b 1024 388 921 457 977 434 b 1093 221 1070 342 1093 287 m 1025 221 b 976 342 1025 269 1009 309 b 856 392 943 375 903 392 b 737 342 809 392 770 375 b 688 221 704 309 688 269 b 737 100 688 173 704 132 b 856 51 770 68 809 51 b 976 100 903 51 943 68 b 1025 221 1009 132 1025 173 m 292 -42 l 235 -11 l 857 1025 l 913 994 "},"&":{"ha":978,"x_min":0,"x_max":0,"o":"m 728 219 l 938 0 l 829 0 l 683 154 b 376 -19 604 38 501 -19 b 165 53 291 -19 221 5 b 81 254 109 102 81 169 b 140 426 81 323 100 380 b 310 547 180 473 237 513 b 188 782 228 633 188 712 b 255 947 188 851 210 906 b 424 1008 300 988 356 1008 b 586 950 488 1008 543 989 b 651 796 630 911 651 860 b 592 647 651 737 631 687 b 424 532 552 607 496 569 l 674 271 l 817 526 l 906 526 m 574 793 b 531 901 574 837 559 872 b 424 943 502 929 466 943 b 310 899 378 943 341 928 b 265 782 280 869 265 830 b 378 579 265 720 303 652 b 522 673 440 610 488 641 b 574 793 556 705 574 745 m 356 496 b 160 253 225 435 160 354 b 224 105 160 193 181 143 b 381 47 266 66 319 47 b 631 206 481 47 564 100 "},"'":{"ha":361,"x_min":0,"x_max":0,"o":"m 147 983 l 214 983 l 214 660 l 147 660 "},"(":{"ha":417,"x_min":0,"x_max":0,"o":"m 135 400 b 184 92 135 297 151 195 b 317 -183 217 -10 261 -102 l 257 -219 b 63 400 127 -31 63 176 b 115 735 63 514 80 625 b 257 1019 150 844 198 939 l 317 983 b 185 712 262 906 218 816 b 135 400 151 608 135 504 "},")":{"ha":417,"x_min":0,"x_max":0,"o":"m 281 400 b 231 712 281 504 264 608 b 99 983 197 816 153 906 l 158 1019 b 301 735 218 939 265 844 b 354 400 336 625 354 514 b 301 65 354 286 336 175 b 158 -219 265 -44 218 -139 l 99 -183 b 231 88 153 -106 197 -16 b 281 400 264 192 281 296 "},"*":{"ha":617,"x_min":0,"x_max":0,"o":"m 342 774 l 546 839 l 568 776 l 363 713 l 493 536 l 440 496 l 308 676 l 176 496 l 124 536 l 254 713 l 49 776 l 71 839 l 275 774 l 275 983 l 342 983 "},"+":{"ha":925,"x_min":0,"x_max":0,"o":"m 497 454 l 807 454 l 807 389 l 497 389 l 497 74 l 429 74 l 429 389 l 118 389 l 118 454 l 429 454 l 429 769 l 497 769 "},",":{"ha":353,"x_min":0,"x_max":0,"o":"m 136 -193 l 74 -193 l 163 131 l 242 131 "},"-":{"ha":436,"x_min":0,"x_max":0,"o":"m 364 310 l 72 310 l 72 374 l 364 374 "},".":{"ha":353,"x_min":0,"x_max":0,"o":"m 239 56 b 221 10 239 38 233 23 b 176 -8 209 -2 194 -8 b 132 10 159 -8 144 -2 b 114 56 120 23 114 38 b 132 99 114 72 120 87 b 176 118 144 112 159 118 b 221 99 194 118 209 112 b 239 56 233 87 239 72 "},"/":{"ha":514,"x_min":0,"x_max":0,"o":"m 79 -24 l 14 -3 l 438 1010 l 500 988 "},":":{"ha":408,"x_min":0,"x_max":0,"o":"m 267 589 b 249 545 267 572 261 558 b 204 526 237 533 222 526 b 160 545 187 526 172 533 b 142 589 148 558 142 572 b 160 633 142 606 148 620 b 204 653 172 646 187 653 b 249 633 222 653 237 646 b 267 589 261 620 267 606 m 267 56 b 249 10 267 38 261 23 b 204 -8 237 -2 222 -8 b 160 10 187 -8 172 -2 b 142 56 148 23 142 38 b 160 99 142 72 148 87 b 204 118 172 112 187 118 b 249 99 222 118 237 112 b 267 56 261 87 267 72 "},";":{"ha":408,"x_min":0,"x_max":0,"o":"m 267 589 b 249 545 267 572 261 558 b 204 526 237 533 222 526 b 160 545 187 526 172 533 b 142 589 148 558 142 572 b 160 633 142 606 148 620 b 204 653 172 646 187 653 b 249 633 222 653 237 646 b 267 589 261 620 267 606 m 156 -193 l 90 -193 l 179 131 l 261 131 "},"<":{"ha":925,"x_min":0,"x_max":0,"o":"m 807 706 l 201 421 l 807 136 l 807 68 l 118 393 l 118 449 l 807 774 "},"=":{"ha":925,"x_min":0,"x_max":0,"o":"m 807 563 l 807 497 l 118 497 l 118 563 m 807 346 l 807 279 l 118 279 l 118 346 "},">":{"ha":925,"x_min":0,"x_max":0,"o":"m 118 774 l 807 449 l 807 393 l 118 68 l 118 136 l 724 421 l 118 706 "},"?":{"ha":665,"x_min":0,"x_max":0,"o":"m 371 269 l 293 269 l 293 350 b 320 463 293 394 302 431 b 400 556 338 494 365 525 l 442 592 b 505 665 469 616 491 640 b 526 757 519 690 526 721 b 473 886 526 812 509 855 b 339 933 437 918 393 933 b 208 885 286 933 242 917 b 143 760 173 853 151 812 l 68 774 b 163 942 82 845 113 901 b 342 1003 212 982 271 1003 b 531 938 418 1003 481 981 b 606 761 581 895 606 836 b 575 633 606 707 595 665 b 479 533 555 602 523 569 b 392 442 436 497 407 467 b 371 333 378 417 371 381 m 401 54 b 384 10 401 38 396 23 b 340 -8 372 -2 358 -8 b 295 10 322 -8 307 -2 b 278 54 284 23 278 38 b 295 99 278 72 284 87 b 340 118 307 112 322 118 b 384 99 358 118 372 112 b 401 54 396 87 401 72 "},"@":{"ha":1111,"x_min":0,"x_max":0,"o":"m 581 697 b 441 614 523 697 477 669 b 388 432 405 558 388 498 b 416 331 388 394 397 360 b 506 288 435 302 465 288 b 615 336 547 288 584 304 b 680 444 646 369 667 404 b 699 556 692 483 699 520 b 671 657 699 596 689 630 b 581 697 652 684 622 697 m 1010 149 b 581 -26 901 32 758 -26 b 200 120 424 -26 297 22 b 54 492 103 218 54 342 b 207 860 54 638 105 761 b 579 1010 309 960 433 1010 b 925 890 715 1010 831 970 b 1067 567 1019 811 1067 703 b 990 315 1067 461 1041 377 b 796 222 939 253 875 222 b 708 252 757 222 728 232 b 678 331 688 272 678 298 l 674 331 b 606 256 660 304 637 279 b 496 222 574 234 538 222 b 358 283 438 222 391 242 b 307 436 324 323 307 374 b 385 663 307 520 333 596 b 583 764 437 730 503 764 b 676 738 619 764 650 755 b 728 668 702 720 719 697 l 733 668 l 751 742 l 821 742 l 753 463 b 739 360 744 421 739 387 b 813 288 739 312 763 288 b 943 366 867 288 911 314 b 992 560 975 418 992 483 b 876 838 992 677 953 770 b 578 940 800 906 700 940 b 260 810 448 940 342 897 b 136 488 177 723 136 615 b 261 165 136 355 178 247 b 588 40 344 82 453 40 b 968 199 738 40 865 93 "},"A":{"ha":958,"x_min":0,"x_max":0,"o":"m 104 0 l 17 0 l 443 983 l 522 983 l 940 0 l 853 0 l 742 265 l 215 265 m 244 338 l 713 338 l 481 900 "},"B":{"ha":874,"x_min":0,"x_max":0,"o":"m 136 983 l 421 983 b 534 972 462 983 499 979 b 633 933 569 964 602 951 b 708 857 665 916 690 890 b 735 738 726 824 735 784 b 684 597 735 682 718 635 b 553 521 650 558 606 533 l 553 518 b 715 443 617 512 671 487 b 782 269 760 400 782 342 b 684 70 782 183 749 117 b 431 0 619 23 534 0 l 136 0 m 215 547 l 426 547 b 587 592 488 547 542 562 b 654 732 632 622 654 669 b 585 871 654 795 631 841 b 406 915 538 900 479 915 l 215 915 m 215 68 l 422 68 b 624 118 505 68 572 85 b 701 272 675 151 701 203 b 629 428 701 342 677 394 b 439 481 581 463 518 481 l 215 481 "},"C":{"ha":1001,"x_min":0,"x_max":0,"o":"m 950 146 b 592 -26 862 31 743 -26 b 228 120 444 -26 323 22 b 85 492 132 218 85 342 b 229 863 85 642 133 766 b 593 1010 325 961 447 1010 b 790 972 665 1010 731 997 b 932 867 850 947 897 912 l 875 814 b 756 904 845 851 806 881 b 594 939 707 927 653 939 b 285 809 467 939 364 896 b 168 492 207 722 168 617 b 285 174 168 367 207 261 b 594 44 364 88 467 44 b 896 189 718 44 818 93 "},"D":{"ha":1057,"x_min":0,"x_max":0,"o":"m 136 983 l 447 983 b 641 953 515 983 579 973 b 808 863 703 932 758 903 b 928 708 858 824 898 772 b 972 492 957 643 972 571 b 928 276 972 412 957 340 b 808 120 898 211 858 159 b 641 31 758 81 703 51 b 447 0 579 10 515 0 l 136 0 m 215 71 l 426 71 b 765 189 570 71 683 110 b 889 492 848 268 889 369 b 765 794 889 615 848 716 b 426 913 683 873 570 913 l 215 913 "},"E":{"ha":821,"x_min":0,"x_max":0,"o":"m 214 71 l 753 71 l 753 0 l 136 0 l 136 983 l 735 983 l 735 913 l 214 913 l 214 546 l 701 546 l 701 476 l 214 476 "},"F":{"ha":779,"x_min":0,"x_max":0,"o":"m 215 0 l 136 0 l 136 983 l 719 983 l 719 913 l 215 913 l 215 544 l 683 544 l 683 475 l 215 475 "},"G":{"ha":1089,"x_min":0,"x_max":0,"o":"m 890 828 b 597 939 816 902 719 939 b 286 810 469 939 365 896 b 168 493 207 724 168 618 b 286 175 168 368 207 262 b 600 44 365 88 469 44 b 882 111 713 44 807 67 l 882 436 l 646 436 l 646 506 l 961 506 l 961 67 b 599 -26 857 5 737 -26 b 229 121 449 -26 325 23 b 85 493 133 219 85 343 b 230 863 85 642 133 766 b 597 1010 327 961 449 1010 b 940 882 739 1010 853 967 "},"H":{"ha":1003,"x_min":0,"x_max":0,"o":"m 136 983 l 215 983 l 215 547 l 789 547 l 789 983 l 868 983 l 868 0 l 789 0 l 789 474 l 215 474 l 215 0 l 136 0 "},"I":{"ha":350,"x_min":0,"x_max":0,"o":"m 215 0 l 136 0 l 136 983 l 215 983 "},"J":{"ha":678,"x_min":0,"x_max":0,"o":"m 110 182 b 172 83 121 141 142 108 b 283 44 203 57 240 44 b 471 285 408 44 471 125 l 471 983 l 550 983 l 550 279 b 538 170 550 240 546 204 b 497 74 529 136 516 104 b 416 1 478 43 451 19 b 292 -25 381 -16 340 -25 b 125 27 226 -25 170 -8 b 36 161 80 62 50 106 "},"K":{"ha":846,"x_min":0,"x_max":0,"o":"m 215 539 l 692 983 l 806 983 l 308 536 l 832 0 l 717 0 l 215 525 l 215 0 l 136 0 l 136 983 l 215 983 "},"L":{"ha":703,"x_min":0,"x_max":0,"o":"m 215 71 l 682 71 l 682 0 l 136 0 l 136 983 l 215 983 "},"M":{"ha":1239,"x_min":0,"x_max":0,"o":"m 136 983 l 258 983 l 621 132 l 981 983 l 1103 983 l 1103 0 l 1024 0 l 1024 882 l 1021 882 l 642 0 l 597 0 l 218 882 l 215 882 l 215 0 l 136 0 "},"N":{"ha":1067,"x_min":0,"x_max":0,"o":"m 849 114 l 851 114 l 851 983 l 931 983 l 931 0 l 831 0 l 218 875 l 215 875 l 215 0 l 136 0 l 136 983 l 236 983 "},"O":{"ha":1190,"x_min":0,"x_max":0,"o":"m 1106 492 b 960 120 1106 342 1057 218 b 594 -26 864 22 742 -26 b 230 120 448 -26 327 22 b 85 492 133 218 85 342 b 230 863 85 642 133 766 b 594 1010 327 961 448 1010 b 960 863 742 1010 864 961 b 1106 492 1057 766 1106 642 m 1022 492 b 903 809 1022 617 983 722 b 594 939 824 896 721 939 b 286 809 468 939 365 896 b 168 492 207 722 168 617 b 286 174 168 367 207 261 b 594 44 365 88 468 44 b 904 174 722 44 825 88 b 1022 492 983 261 1022 367 "},"P":{"ha":803,"x_min":0,"x_max":0,"o":"m 136 983 l 410 983 b 644 919 507 983 585 962 b 733 726 704 877 733 813 b 646 533 733 642 704 578 b 414 465 588 488 510 465 l 215 465 l 215 0 l 136 0 m 215 532 l 410 532 b 588 581 485 532 544 548 b 654 726 632 614 654 663 b 588 869 654 790 632 838 b 408 915 543 900 483 915 l 215 915 "},"Q":{"ha":1188,"x_min":0,"x_max":0,"o":"m 168 503 b 283 196 168 382 206 280 b 585 69 360 112 461 69 b 885 198 708 69 808 112 b 1001 503 963 284 1001 385 b 885 812 1001 624 963 727 b 585 939 808 897 708 939 b 283 813 461 939 360 897 b 168 503 206 728 168 625 m 1146 0 l 583 0 b 227 142 441 0 322 47 b 85 503 132 236 85 356 b 227 866 85 649 132 770 b 585 1010 322 962 441 1010 b 941 865 727 1010 846 962 b 1083 503 1036 769 1083 648 b 1012 244 1083 408 1059 322 b 818 74 964 167 900 110 l 818 71 l 1146 71 "},"R":{"ha":831,"x_min":0,"x_max":0,"o":"m 215 0 l 136 0 l 136 983 l 419 983 b 747 726 638 983 747 898 b 672 550 747 652 722 594 b 486 476 622 506 560 482 l 776 0 l 681 0 l 400 471 l 215 471 m 215 539 l 408 539 b 601 587 492 539 556 555 b 668 726 646 619 668 665 b 407 915 668 852 581 915 l 215 915 "},"S":{"ha":786,"x_min":0,"x_max":0,"o":"m 625 842 b 408 942 570 908 498 942 b 250 890 349 942 296 924 b 181 743 204 855 181 806 b 209 644 181 704 190 671 b 283 582 228 618 253 597 b 384 542 314 567 347 554 b 494 503 421 530 457 517 b 594 453 530 489 564 472 b 669 374 625 434 650 408 b 697 251 688 339 697 299 b 604 46 697 163 666 94 b 383 -26 542 -2 469 -26 b 86 115 257 -26 158 21 l 142 164 b 383 43 210 83 291 43 b 547 98 445 43 500 61 b 617 247 593 134 617 184 b 588 347 617 286 607 319 b 515 411 569 374 545 395 b 415 453 484 427 451 441 b 304 493 378 466 341 479 b 203 542 267 507 234 523 b 130 622 173 561 149 588 b 101 743 111 655 101 696 b 194 940 101 828 132 894 b 413 1010 256 987 329 1010 b 682 893 533 1010 623 971 "},"T":{"ha":779,"x_min":0,"x_max":0,"o":"m 429 0 l 350 0 l 350 913 l 19 913 l 19 983 l 760 983 l 760 913 l 429 913 "},"U":{"ha":996,"x_min":0,"x_max":0,"o":"m 497 -26 b 319 9 429 -26 369 -15 b 203 104 268 33 230 64 b 146 229 177 144 158 186 b 128 368 134 273 128 319 l 128 983 l 207 983 l 207 378 b 215 283 207 344 209 313 b 243 193 220 253 229 223 b 296 117 257 163 275 138 b 379 65 317 95 345 78 b 497 44 413 51 453 44 b 638 74 552 44 599 54 b 729 152 678 93 708 119 b 775 258 750 185 766 220 b 789 378 784 295 789 335 l 789 983 l 868 983 l 868 368 b 850 229 868 319 862 273 b 792 104 838 186 819 144 b 677 9 766 64 728 33 b 497 -26 627 -15 567 -26 "},"V":{"ha":858,"x_min":0,"x_max":0,"o":"m 428 99 l 431 99 l 763 983 l 847 983 l 472 0 l 383 0 l 10 983 l 96 983 "},"W":{"ha":1343,"x_min":0,"x_max":0,"o":"m 364 104 l 367 104 l 622 983 l 721 983 l 978 104 l 982 104 l 1235 983 l 1318 983 l 1026 0 l 931 0 l 672 878 l 669 878 l 413 0 l 317 0 l 25 983 l 108 983 "},"X":{"ha":876,"x_min":0,"x_max":0,"o":"m 33 0 l 390 517 l 65 983 l 164 983 l 439 578 l 711 983 l 804 983 l 483 518 l 843 0 l 744 0 l 438 454 l 132 0 "},"Y":{"ha":810,"x_min":0,"x_max":0,"o":"m 444 0 l 365 0 l 365 425 l 6 983 l 104 983 l 407 493 l 711 983 l 803 983 l 444 425 "},"Z":{"ha":804,"x_min":0,"x_max":0,"o":"m 744 913 l 150 71 l 756 71 l 756 0 l 53 0 l 53 69 l 649 913 l 68 913 l 68 983 l 744 983 "},"[":{"ha":417,"x_min":0,"x_max":0,"o":"m 306 956 l 163 956 l 163 -156 l 306 -156 l 306 -217 l 90 -217 l 90 1017 l 306 1017 "},"\\":{"ha":514,"x_min":0,"x_max":0,"o":"m 14 988 l 78 1010 l 500 -3 l 436 -24 "},"]":{"ha":417,"x_min":0,"x_max":0,"o":"m 111 -156 l 254 -156 l 254 956 l 111 956 l 111 1017 l 326 1017 l 326 -217 l 111 -217 "},"^":{"ha":925,"x_min":0,"x_max":0,"o":"m 435 983 l 490 983 l 807 368 l 738 368 l 463 908 l 188 368 l 118 368 "},"_":{"ha":694,"x_min":0,"x_max":0,"o":"m 0 -112 l 694 -112 l 694 -169 l 0 -169 "},"`":{"ha":333,"x_min":0,"x_max":0,"o":"m -1 983 l 99 983 l 239 783 l 174 783 "},"a":{"ha":732,"x_min":0,"x_max":0,"o":"m 303 -18 b 149 31 245 -18 194 -2 b 81 175 103 63 81 111 b 113 287 81 219 91 257 b 206 353 135 317 166 339 b 329 383 247 368 288 378 b 474 392 371 389 419 392 l 539 392 l 539 421 b 356 601 539 541 478 601 b 163 525 280 601 215 576 l 121 575 b 363 664 182 634 263 664 b 543 604 438 664 498 644 b 611 429 588 564 611 506 l 611 146 b 622 0 611 88 615 39 l 554 0 b 543 119 547 44 543 84 l 540 119 b 303 -18 489 28 410 -18 m 321 44 b 483 113 391 44 445 67 b 539 279 520 159 539 214 l 539 332 l 490 332 b 158 179 269 332 158 281 b 206 77 158 133 174 99 b 321 44 238 55 276 44 "},"b":{"ha":881,"x_min":0,"x_max":0,"o":"m 207 128 l 207 0 l 132 0 l 132 1050 l 207 1050 l 207 515 l 211 515 b 322 625 238 563 275 599 b 469 664 368 651 418 664 b 708 567 568 664 647 632 b 800 324 769 503 800 422 b 708 79 800 225 769 144 b 469 -18 646 14 567 -18 b 321 20 418 -18 368 -5 b 211 128 274 46 237 81 m 721 324 b 651 522 721 402 697 468 b 463 601 604 575 541 601 b 274 522 387 601 324 575 b 199 324 224 468 199 402 b 274 126 199 245 224 179 b 463 47 324 74 387 47 b 651 126 541 47 604 74 b 721 324 697 179 721 245 "},"c":{"ha":686,"x_min":0,"x_max":0,"o":"m 597 517 b 519 576 578 542 552 562 b 418 599 487 591 453 599 b 231 520 341 599 279 572 b 160 324 184 468 160 402 b 231 128 160 245 183 180 b 415 50 278 76 339 50 b 604 128 491 50 554 76 l 651 85 b 415 -18 592 16 513 -18 b 174 78 315 -18 235 14 b 82 324 113 142 82 224 b 176 568 82 423 113 504 b 417 664 238 632 319 664 b 647 563 517 664 594 630 "},"d":{"ha":881,"x_min":0,"x_max":0,"o":"m 669 128 b 559 20 643 81 606 46 b 411 -18 512 -5 463 -18 b 173 79 314 -18 234 14 b 81 324 111 144 81 225 b 173 567 81 421 111 502 b 411 664 234 631 314 664 b 559 625 463 664 512 651 b 669 515 606 599 643 563 l 672 515 l 672 1050 l 749 1050 l 749 0 l 672 0 l 672 128 l 669 128 m 160 324 b 230 126 160 245 183 179 b 418 47 277 74 339 47 b 606 126 494 47 557 74 b 681 324 656 179 681 245 b 606 522 681 402 656 468 b 418 601 557 575 494 601 b 230 522 339 601 277 575 b 160 324 183 468 160 402 "},"e":{"ha":788,"x_min":0,"x_max":0,"o":"m 632 368 b 566 537 629 438 607 494 b 400 601 525 580 469 601 b 231 528 331 601 275 577 b 160 368 186 480 163 426 m 408 -18 b 174 79 314 -18 236 14 b 81 325 112 144 81 226 b 173 567 81 422 111 503 b 401 664 234 632 311 664 b 627 573 499 664 574 634 b 707 347 680 512 707 437 l 707 308 l 158 308 b 231 124 160 237 184 176 b 411 47 277 73 337 47 b 633 157 497 47 571 84 l 683 117 b 408 -18 614 27 522 -18 "},"f":{"ha":404,"x_min":0,"x_max":0,"o":"m 392 583 l 233 583 l 233 0 l 157 0 l 157 583 l 22 583 l 22 647 l 157 647 l 157 840 b 211 1009 157 914 175 971 b 361 1067 247 1047 297 1067 b 435 1057 391 1067 415 1063 l 422 994 b 360 1001 406 999 385 1001 b 233 832 275 1001 233 945 l 233 647 l 392 647 "},"g":{"ha":875,"x_min":0,"x_max":0,"o":"m 151 -158 b 410 -271 222 -233 308 -271 b 610 -191 501 -271 568 -244 b 672 15 651 -138 672 -69 l 672 142 l 669 142 b 562 33 645 95 609 59 b 411 -6 514 7 464 -6 b 172 88 313 -6 233 26 b 81 326 111 151 81 230 b 173 567 81 422 111 502 b 411 664 234 631 314 664 b 560 625 464 664 514 651 b 669 515 607 599 644 563 l 672 515 l 672 647 l 749 647 l 749 15 b 733 -109 749 -29 743 -71 b 681 -221 722 -147 705 -185 b 574 -306 656 -257 621 -285 b 407 -337 528 -327 472 -337 b 103 -210 284 -337 182 -295 m 160 329 b 230 137 160 253 183 189 b 418 58 277 84 339 58 b 606 135 494 58 557 84 b 681 329 656 187 681 251 b 606 521 681 403 656 467 b 418 601 556 575 493 601 b 230 522 339 601 277 575 b 160 329 183 469 160 405 "},"h":{"ha":804,"x_min":0,"x_max":0,"o":"m 210 521 b 303 627 231 567 262 603 b 438 664 344 652 388 664 b 620 590 519 664 580 639 b 681 394 660 540 681 475 l 681 0 l 606 0 l 606 367 b 421 600 606 522 544 600 b 269 529 362 600 311 576 b 207 329 228 482 207 415 l 207 0 l 132 0 l 132 1050 l 207 1050 l 207 521 "},"i":{"ha":338,"x_min":0,"x_max":0,"o":"m 207 0 l 131 0 l 131 647 l 207 647 m 225 904 b 208 864 225 888 219 875 b 168 847 196 853 183 847 b 129 864 153 847 140 853 b 113 904 118 875 113 888 b 129 944 113 920 118 933 b 168 961 140 956 153 961 b 208 944 183 961 196 956 b 225 904 219 933 225 920 "},"j":{"ha":339,"x_min":0,"x_max":0,"o":"m -22 -262 b 31 -269 -4 -267 14 -269 b 112 -231 71 -269 98 -257 b 132 -121 125 -206 132 -169 l 132 647 l 207 647 l 207 -131 b 168 -279 207 -194 194 -243 b 32 -333 142 -315 97 -333 b -33 -325 4 -333 -18 -331 m 226 904 b 209 864 226 888 221 875 b 169 847 197 853 184 847 b 131 864 155 847 142 853 b 114 904 119 875 114 888 b 131 944 114 920 119 933 b 169 961 142 956 155 961 b 209 944 184 961 197 956 b 226 904 221 933 226 920 "},"k":{"ha":682,"x_min":0,"x_max":0,"o":"m 207 353 l 211 353 l 519 647 l 628 647 l 297 350 l 663 0 l 551 0 l 211 340 l 207 340 l 207 0 l 132 0 l 132 1050 l 207 1050 "},"l":{"ha":339,"x_min":0,"x_max":0,"o":"m 207 0 l 132 0 l 132 1050 l 207 1050 "},"m":{"ha":1229,"x_min":0,"x_max":0,"o":"m 131 499 b 125 647 131 560 129 609 l 197 647 b 203 518 201 599 203 556 l 206 518 b 294 624 224 563 253 598 b 424 664 334 651 377 664 b 631 510 527 664 596 613 l 633 510 b 725 624 655 559 685 597 b 865 664 765 650 812 664 b 1045 590 945 664 1005 639 b 1106 394 1085 540 1106 475 l 1106 0 l 1031 0 l 1031 367 b 988 537 1031 437 1016 494 b 854 601 960 580 915 601 b 705 526 789 601 740 576 b 653 338 670 476 653 413 l 653 0 l 576 0 l 576 381 b 411 601 576 528 521 601 b 267 529 356 601 308 577 b 207 329 227 481 207 414 l 207 0 l 131 0 "},"n":{"ha":803,"x_min":0,"x_max":0,"o":"m 197 647 b 203 518 201 599 203 556 l 206 518 b 299 624 224 562 255 597 b 438 664 342 650 388 664 b 619 590 518 664 578 639 b 679 394 659 541 679 476 l 679 0 l 604 0 l 604 367 b 421 600 604 522 543 600 b 269 529 361 600 310 576 b 207 329 228 482 207 415 l 207 0 l 131 0 l 131 499 b 125 647 131 560 129 609 "},"o":{"ha":846,"x_min":0,"x_max":0,"o":"m 764 324 b 668 79 764 225 732 144 b 422 -18 604 14 522 -18 b 178 79 323 -18 242 14 b 82 324 114 144 82 225 b 177 568 82 423 114 504 b 422 664 241 632 322 664 b 668 568 522 664 604 632 b 764 324 732 504 764 423 m 686 324 b 614 520 686 402 662 468 b 422 599 566 572 502 599 b 232 520 344 599 280 572 b 160 324 184 468 160 402 b 232 128 160 245 184 180 b 422 50 280 76 344 50 b 614 128 502 50 566 76 b 686 324 662 180 686 245 "},"p":{"ha":878,"x_min":0,"x_max":0,"o":"m 206 -333 l 131 -333 l 131 647 l 206 647 l 206 518 l 210 518 b 319 627 237 566 273 603 b 467 664 365 652 414 664 b 706 567 565 664 645 632 b 799 324 768 503 799 422 b 708 79 799 225 768 144 b 469 -18 647 14 568 -18 b 318 19 416 -18 365 -6 b 210 125 271 43 235 79 l 206 125 m 718 324 b 648 522 718 402 695 468 b 460 601 601 575 538 601 b 273 522 385 601 322 575 b 199 324 223 468 199 402 b 273 126 199 245 223 179 b 460 47 322 74 385 47 b 648 126 538 47 601 74 b 718 324 695 179 718 245 "},"q":{"ha":878,"x_min":0,"x_max":0,"o":"m 668 128 b 560 21 643 82 607 47 b 411 -18 513 -5 463 -18 b 173 79 314 -18 234 14 b 81 324 111 144 81 225 b 172 567 81 422 111 503 b 411 664 233 632 313 664 b 559 625 463 664 512 651 b 668 515 606 599 642 563 l 672 515 l 672 647 l 749 647 l 749 -333 l 672 -333 l 672 128 m 160 324 b 230 126 160 245 183 179 b 418 47 277 74 339 47 b 605 126 493 47 555 74 b 679 324 654 179 679 245 b 605 522 679 402 654 468 b 418 601 555 575 493 601 b 230 522 339 601 277 575 b 160 324 183 468 160 402 "},"r":{"ha":482,"x_min":0,"x_max":0,"o":"m 131 499 b 125 647 131 560 129 609 l 197 647 b 203 518 201 599 203 556 l 206 518 b 290 625 223 563 251 599 b 418 664 328 651 371 664 b 469 658 441 664 458 662 l 461 589 b 408 594 448 593 431 594 b 263 524 348 594 300 571 b 207 332 225 476 207 413 l 207 0 l 131 0 l 131 499 "},"s":{"ha":604,"x_min":0,"x_max":0,"o":"m 468 513 b 306 601 433 572 379 601 b 203 573 267 601 233 592 b 160 489 174 554 160 526 b 197 410 160 454 172 428 b 322 365 222 393 264 378 b 485 299 394 350 449 327 b 539 179 521 270 539 230 b 470 33 539 114 516 66 b 304 -17 424 0 369 -17 b 58 104 195 -17 113 24 l 118 147 b 197 75 138 118 164 94 b 304 47 229 56 265 47 b 417 78 349 47 386 58 b 464 174 448 99 464 131 b 425 250 464 206 451 231 b 331 291 399 269 368 282 b 221 320 295 300 258 309 b 126 376 184 331 152 350 b 88 483 100 403 88 439 b 152 618 88 543 109 588 b 308 664 195 649 247 664 b 438 635 356 664 400 654 b 526 554 477 616 506 589 "},"t":{"ha":435,"x_min":0,"x_max":0,"o":"m 408 583 l 224 583 l 224 174 b 250 81 224 130 232 99 b 326 54 268 63 293 54 b 406 72 353 54 380 60 l 410 7 b 307 -11 376 -5 342 -11 b 194 28 262 -11 224 2 b 149 156 164 55 149 97 l 149 583 l 13 583 l 13 647 l 147 647 l 147 832 l 224 832 l 224 647 l 408 647 "},"u":{"ha":803,"x_min":0,"x_max":0,"o":"m 604 0 b 599 128 600 46 599 89 l 596 128 b 504 22 578 84 548 49 b 365 -18 461 -5 414 -18 b 183 56 284 -18 223 7 b 122 251 142 106 122 171 l 122 647 l 199 647 l 199 281 b 382 46 199 124 260 46 b 533 117 441 46 492 70 b 596 318 575 165 596 232 l 596 647 l 671 647 l 671 149 b 678 0 671 96 673 46 "},"v":{"ha":656,"x_min":0,"x_max":0,"o":"m 372 0 l 286 0 l 25 647 l 110 647 l 329 79 l 332 79 l 549 647 l 629 647 "},"w":{"ha":1017,"x_min":0,"x_max":0,"o":"m 119 647 l 282 94 l 285 94 l 469 647 l 546 647 l 733 94 l 736 94 l 897 647 l 976 647 l 776 0 l 692 0 l 508 550 l 506 550 l 324 0 l 239 0 l 39 647 "},"x":{"ha":658,"x_min":0,"x_max":0,"o":"m 282 336 l 47 647 l 144 647 l 329 389 l 514 647 l 606 647 l 374 339 l 632 0 l 533 0 l 328 285 l 118 0 l 28 0 "},"y":{"ha":653,"x_min":0,"x_max":0,"o":"m 117 -335 b 40 -325 94 -335 68 -331 l 50 -257 b 114 -268 69 -264 91 -268 b 190 -238 145 -268 171 -258 b 240 -150 209 -218 225 -189 l 296 -4 l 25 647 l 110 647 l 335 76 l 338 79 l 546 647 l 628 647 l 306 -181 b 232 -296 285 -231 261 -270 b 117 -335 203 -322 165 -335 "},"z":{"ha":613,"x_min":0,"x_max":0,"o":"m 546 590 l 149 65 l 561 65 l 561 0 l 50 0 l 50 56 l 449 583 l 71 583 l 71 647 l 546 647 "},"{":{"ha":417,"x_min":0,"x_max":0,"o":"m 0 433 b 108 589 72 433 108 485 l 108 843 b 150 976 108 904 122 948 b 258 1017 178 1003 214 1017 l 339 1017 l 339 956 l 272 956 b 182 832 212 956 182 914 l 182 576 b 145 449 182 519 170 476 b 68 401 121 421 95 405 l 68 399 b 145 351 95 395 121 379 b 182 224 170 324 182 281 l 182 -32 b 272 -156 182 -114 212 -156 l 339 -156 l 339 -217 l 258 -217 b 150 -176 214 -217 178 -203 b 108 -43 122 -148 108 -104 l 108 211 b 0 367 108 315 72 367 "},"|":{"ha":308,"x_min":0,"x_max":0,"o":"m 188 1042 l 188 -347 l 121 -347 l 121 1042 "},"}":{"ha":417,"x_min":0,"x_max":0,"o":"m 417 367 b 308 211 344 367 308 315 l 308 -43 b 267 -176 308 -104 294 -148 b 158 -217 239 -203 203 -217 l 78 -217 l 78 -156 l 144 -156 b 235 -32 205 -156 235 -114 l 235 224 b 272 351 235 281 247 324 b 349 399 296 379 322 395 l 349 401 b 272 449 322 405 296 421 b 235 576 247 476 235 519 l 235 832 b 144 956 235 914 205 956 l 78 956 l 78 1017 l 158 1017 b 267 976 203 1017 239 1003 b 308 843 294 948 308 904 l 308 589 b 417 433 308 485 344 433 "},"~":{"ha":925,"x_min":0,"x_max":0,"o":"m 800 461 b 614 333 746 376 684 333 b 464 382 562 333 512 350 b 381 429 429 405 401 421 b 315 442 360 438 338 442 b 174 336 259 442 212 406 l 125 381 b 313 510 182 467 245 510 b 461 461 363 510 413 494 b 611 400 522 420 572 400 b 753 507 663 400 710 436 "}," ":{"ha":347,"x_min":0,"x_max":0,"o":""},"¡":{"ha":433,"x_min":0,"x_max":0,"o":"m 257 -315 l 178 -315 l 178 400 l 257 400 m 279 614 b 261 569 279 596 273 581 b 217 550 249 556 234 550 b 172 569 199 550 184 556 b 154 614 160 581 154 596 b 172 658 154 631 160 645 b 217 676 184 670 199 676 b 261 658 234 676 249 670 b 279 614 273 645 279 631 "},"¢":{"ha":797,"x_min":0,"x_max":0,"o":"m 411 -100 l 411 -15 b 201 92 323 -6 253 30 b 122 324 148 154 122 231 b 202 553 122 414 149 491 b 411 661 255 616 325 652 l 411 750 l 472 750 l 472 664 b 688 563 565 659 637 625 l 638 517 b 472 599 598 567 543 594 l 472 50 b 644 128 541 54 598 80 l 692 85 b 472 -18 636 20 563 -14 l 472 -100 m 200 324 b 258 143 200 253 219 193 b 411 53 296 93 347 63 l 411 594 b 257 503 346 583 295 553 b 200 324 219 453 200 393 "},"£":{"ha":797,"x_min":0,"x_max":0,"o":"m 563 475 l 328 475 l 328 67 l 690 67 l 690 0 l 104 0 l 104 67 l 249 67 l 249 475 l 115 475 l 115 542 l 249 542 l 249 689 b 317 917 249 781 272 857 b 531 1008 363 978 434 1008 b 728 932 611 1008 677 983 l 679 876 b 528 940 639 919 589 940 b 404 897 477 940 436 926 b 342 801 373 869 352 836 b 328 682 333 765 328 725 l 328 542 l 563 542 "},"€":{"ha":797,"x_min":0,"x_max":0,"o":"m 708 897 b 528 939 659 925 599 939 b 322 860 446 939 378 913 b 207 642 266 808 227 735 l 639 642 l 618 579 l 197 579 b 190 485 193 549 190 517 b 196 403 190 460 192 432 l 565 403 l 544 340 l 203 340 b 315 125 218 250 255 179 b 526 44 374 71 445 44 b 721 101 603 44 668 63 l 754 39 b 515 -26 694 -5 614 -26 b 251 80 410 -26 322 9 b 121 340 181 151 138 238 l 21 340 l 43 403 l 114 403 b 110 483 111 442 110 469 b 115 579 110 516 112 548 l 22 579 l 44 642 l 124 642 b 271 913 149 758 198 849 b 532 1010 344 978 431 1010 b 736 964 612 1010 680 994 l 708 897 "},"¥":{"ha":797,"x_min":0,"x_max":0,"o":"m 361 310 l 361 467 l 121 467 l 121 526 l 338 526 l 21 983 l 118 983 l 401 554 l 682 983 l 776 983 l 463 526 l 676 526 l 676 467 l 436 467 l 436 310 l 676 310 l 676 249 l 436 249 l 436 0 l 361 0 l 361 249 l 121 249 l 121 310 "},"Š":{"ha":786,"x_min":0,"x_max":0,"o":"m 625 842 b 408 942 570 908 498 942 b 250 890 349 942 296 924 b 181 743 204 855 181 806 b 209 644 181 704 190 671 b 283 582 228 618 253 597 b 384 542 314 567 347 554 b 494 503 421 530 457 517 b 594 453 530 489 564 472 b 669 374 625 434 650 408 b 697 251 688 339 697 299 b 604 46 697 163 666 94 b 383 -26 542 -2 469 -26 b 86 115 257 -26 158 21 l 142 164 b 383 43 210 83 291 43 b 547 98 445 43 500 61 b 617 247 593 134 617 184 b 588 347 617 286 607 319 b 515 411 569 374 545 395 b 415 453 484 427 451 441 b 304 493 378 466 341 479 b 203 542 267 507 234 523 b 130 622 173 561 149 588 b 101 743 111 655 101 696 b 194 940 101 828 132 894 b 413 1010 256 987 329 1010 b 682 893 533 1010 623 971 m 446 1061 l 357 1061 l 208 1261 l 282 1261 l 401 1101 l 521 1261 l 594 1261 "},"§":{"ha":797,"x_min":0,"x_max":0,"o":"m 582 856 b 421 943 553 914 500 943 b 301 906 373 943 333 931 b 254 801 270 881 254 846 b 265 742 254 779 258 759 b 301 698 273 725 285 710 b 347 669 318 685 333 676 b 404 643 361 662 380 653 l 501 597 b 621 515 553 573 593 546 b 663 397 649 485 663 445 b 622 278 663 350 649 310 b 519 213 594 245 560 224 b 633 36 595 172 633 113 b 560 -128 633 -35 609 -90 b 378 -185 511 -166 450 -185 b 220 -149 319 -185 266 -173 b 117 -44 174 -126 140 -91 l 188 -7 b 379 -118 222 -81 286 -118 b 501 -82 425 -118 466 -106 b 554 29 537 -58 554 -21 b 425 178 554 91 511 141 l 286 244 b 175 319 237 267 200 292 b 138 436 150 347 138 386 b 182 554 138 482 152 522 b 293 622 212 587 249 609 b 208 689 258 641 229 663 b 175 794 186 715 175 750 b 247 953 175 863 199 916 b 424 1010 295 991 354 1010 b 563 977 478 1010 525 999 b 646 892 602 955 629 927 m 358 579 b 259 538 321 575 288 562 b 215 439 230 515 215 481 b 253 349 215 400 228 370 b 374 285 278 328 318 307 l 456 249 b 547 292 491 254 521 269 b 585 388 572 316 585 348 b 547 482 585 428 572 460 b 435 547 522 504 485 526 "},"š":{"ha":604,"x_min":0,"x_max":0,"o":"m 468 513 b 306 601 433 572 379 601 b 203 573 267 601 233 592 b 160 489 174 554 160 526 b 197 410 160 454 172 428 b 322 365 222 393 264 378 b 485 299 394 350 449 327 b 539 179 521 270 539 230 b 470 33 539 114 516 66 b 304 -17 424 0 369 -17 b 58 104 195 -17 113 24 l 118 147 b 197 75 138 118 164 94 b 304 47 229 56 265 47 b 417 78 349 47 386 58 b 464 174 448 99 464 131 b 425 250 464 206 451 231 b 331 291 399 269 368 282 b 221 320 295 300 258 309 b 126 376 184 331 152 350 b 88 483 100 403 88 439 b 152 618 88 543 109 588 b 308 664 195 649 247 664 b 438 635 356 664 400 654 b 526 554 477 616 506 589 m 357 783 l 268 783 l 119 983 l 193 983 l 313 824 l 432 983 l 506 983 "},"©":{"ha":1111,"x_min":0,"x_max":0,"o":"m 796 293 b 701 213 772 260 740 233 b 572 182 663 192 619 182 b 351 271 483 182 409 212 b 263 496 292 330 263 405 b 351 719 263 586 292 660 b 572 808 409 779 483 808 b 694 781 615 808 656 799 b 788 707 733 763 764 738 l 729 663 b 662 719 713 685 690 703 b 574 742 634 734 604 742 b 404 669 504 742 448 718 b 339 496 361 621 339 563 b 403 321 339 427 360 369 b 572 249 445 273 502 249 b 739 332 641 249 696 276 m 28 490 b 183 861 28 636 79 759 b 557 1014 286 963 411 1014 b 929 861 702 1014 826 963 b 1083 490 1032 759 1083 636 b 929 122 1083 346 1032 223 b 557 -31 826 20 702 -31 b 183 122 411 -31 286 20 b 28 490 79 223 28 346 m 96 490 b 231 167 96 364 141 257 b 557 33 322 78 430 33 b 881 167 684 33 792 78 b 1015 490 971 257 1015 364 b 881 815 1015 617 971 725 b 557 950 792 905 684 950 b 231 815 430 950 322 905 b 96 490 141 725 96 617 "},"ª":{"ha":496,"x_min":0,"x_max":0,"o":"m 349 853 b 319 924 349 884 339 908 b 240 949 300 941 274 949 b 118 901 190 949 150 933 l 82 943 b 244 1000 123 981 177 1000 b 367 959 298 1000 339 986 b 410 850 396 932 410 895 l 410 679 b 415 599 410 644 412 617 l 357 599 b 350 665 352 619 350 641 l 347 665 b 203 589 317 614 269 589 b 103 618 165 589 131 599 b 60 708 74 638 60 668 b 83 779 60 737 68 761 b 153 819 99 798 122 811 b 242 836 183 828 213 833 b 349 840 272 839 307 840 m 328 794 b 125 710 193 794 125 766 b 218 640 125 663 156 640 b 313 676 258 640 290 652 b 349 768 337 700 349 731 l 349 794 "},"«":{"ha":669,"x_min":0,"x_max":0,"o":"m 165 332 l 325 83 l 272 47 l 85 332 l 272 617 l 324 581 m 411 332 l 571 83 l 518 47 l 331 332 l 518 617 l 571 581 "},"¬":{"ha":925,"x_min":0,"x_max":0,"o":"m 811 182 l 743 182 l 743 497 l 115 497 l 115 563 l 811 563 "},"­":{"ha":436,"x_min":0,"x_max":0,"o":"m 364 310 l 72 310 l 72 374 l 364 374 "},"®":{"ha":833,"x_min":0,"x_max":0,"o":"m 100 685 b 192 908 100 772 131 846 b 417 1000 254 969 329 1000 b 641 908 505 1000 579 969 b 733 685 703 846 733 772 b 641 463 733 598 703 524 b 417 372 579 403 505 372 b 192 463 329 372 254 403 b 100 685 131 524 100 598 m 144 685 b 224 493 144 611 171 547 b 417 413 278 439 342 413 b 609 493 492 413 556 439 b 689 685 662 547 689 611 b 609 877 689 760 662 824 b 417 957 556 930 492 957 b 224 877 342 957 278 930 b 144 685 171 824 144 760 m 299 864 l 421 864 b 512 839 458 864 488 856 b 547 761 535 822 547 796 b 524 698 547 735 539 714 b 463 667 508 682 488 671 l 561 510 l 496 510 l 407 660 l 351 660 l 351 510 l 299 510 m 408 703 b 494 763 466 703 494 723 b 419 818 494 800 469 818 l 351 818 l 351 703 "},"¯":{"ha":333,"x_min":0,"x_max":0,"o":"m 346 842 l -12 842 l -12 903 l 346 903 "},"°":{"ha":556,"x_min":0,"x_max":0,"o":"m 483 793 b 424 647 483 735 464 686 b 278 588 385 607 336 588 b 131 647 219 588 171 607 b 72 793 92 686 72 735 b 131 940 72 851 92 900 b 278 999 171 979 219 999 b 424 940 336 999 385 979 b 483 793 464 900 483 851 m 428 793 b 384 899 428 835 413 870 b 278 943 355 928 319 943 b 172 899 236 943 201 928 b 128 793 142 870 128 835 b 172 687 128 751 142 716 b 278 643 201 658 236 643 b 384 687 319 643 355 658 b 428 793 413 716 428 751 "},"±":{"ha":925,"x_min":0,"x_max":0,"o":"m 115 547 l 428 547 l 428 781 l 494 781 l 494 547 l 811 547 l 811 481 l 496 481 l 496 253 l 428 253 l 428 481 l 115 481 m 117 133 l 808 133 l 808 67 l 117 67 "},"²":{"ha":506,"x_min":0,"x_max":0,"o":"m 435 628 l 63 628 l 63 692 l 289 926 b 361 1065 336 975 360 1021 b 332 1138 361 1096 351 1120 b 257 1164 313 1155 288 1164 b 183 1138 228 1164 204 1155 b 142 1065 163 1121 149 1097 l 76 1076 b 140 1185 86 1122 107 1158 b 257 1225 174 1212 213 1225 b 383 1183 308 1225 350 1211 b 432 1068 416 1154 432 1116 b 407 974 432 1032 424 1000 b 328 878 390 947 364 915 l 144 689 l 435 689 "},"³":{"ha":506,"x_min":0,"x_max":0,"o":"m 242 617 b 54 739 152 617 89 657 l 117 761 b 167 699 128 734 145 713 b 242 676 190 684 215 676 b 328 707 277 676 306 687 b 363 792 351 727 363 756 b 321 876 363 830 349 858 b 219 904 293 895 259 904 l 186 904 l 186 961 l 219 961 b 312 990 258 961 289 971 b 346 1069 334 1009 346 1035 b 315 1140 346 1098 336 1122 b 240 1167 295 1158 270 1167 b 132 1100 193 1167 157 1144 l 78 1129 b 243 1225 116 1193 171 1225 b 365 1184 293 1225 334 1211 b 411 1069 396 1157 411 1119 b 322 939 411 1006 381 962 l 318 936 b 429 790 392 915 429 866 b 376 663 429 736 411 693 b 242 617 340 632 295 617 "},"Ž":{"ha":804,"x_min":0,"x_max":0,"o":"m 744 913 l 150 71 l 756 71 l 756 0 l 53 0 l 53 69 l 649 913 l 68 913 l 68 983 l 744 983 m 449 1061 l 360 1061 l 211 1261 l 285 1261 l 404 1101 l 524 1261 l 597 1261 "},"µ":{"ha":772,"x_min":0,"x_max":0,"o":"m 110 647 l 182 647 l 182 281 b 224 107 182 204 196 146 b 367 49 251 68 299 49 b 520 121 429 49 480 73 b 581 318 560 169 581 235 l 581 647 l 654 647 l 654 149 b 660 0 654 109 656 59 l 581 0 l 581 124 l 578 124 b 483 22 557 83 526 49 b 350 -18 441 -5 396 -18 b 182 46 278 -18 222 3 l 182 -317 l 110 -317 "},"¶":{"ha":833,"x_min":0,"x_max":0,"o":"m 703 -175 l 629 -175 l 629 924 l 444 924 l 444 -175 l 371 -175 l 371 449 b 160 522 286 449 216 473 b 78 704 105 571 78 632 b 162 910 78 792 106 861 b 393 983 218 959 295 983 l 703 983 "},"·":{"ha":353,"x_min":0,"x_max":0,"o":"m 239 411 b 221 367 239 394 233 380 b 176 349 209 355 194 349 b 132 367 159 349 144 355 b 114 411 120 380 114 394 b 132 456 114 428 120 443 b 176 475 144 469 159 475 b 221 456 194 475 209 469 b 239 411 233 443 239 428 "},"ž":{"ha":613,"x_min":0,"x_max":0,"o":"m 546 590 l 149 65 l 561 65 l 561 0 l 50 0 l 50 56 l 449 583 l 71 583 l 71 647 l 546 647 m 356 783 l 267 783 l 118 983 l 192 983 l 311 824 l 431 983 l 504 983 "},"¹":{"ha":506,"x_min":0,"x_max":0,"o":"m 306 628 l 236 628 l 236 1129 l 135 1047 l 93 1094 l 247 1213 l 306 1213 "},"º":{"ha":496,"x_min":0,"x_max":0,"o":"m 456 794 b 397 647 456 735 436 686 b 249 589 358 608 309 589 b 99 647 188 589 139 608 b 40 794 60 686 40 735 b 99 942 40 855 60 904 b 249 1000 139 981 188 1000 b 397 942 309 1000 358 981 b 456 794 436 904 456 855 m 390 794 b 353 904 390 838 378 875 b 249 949 328 934 293 949 b 144 904 204 949 169 934 b 106 794 118 875 106 838 b 144 685 106 751 118 714 b 249 640 169 655 204 640 b 352 685 292 640 327 655 b 390 794 378 714 390 751 "},"»":{"ha":669,"x_min":0,"x_max":0,"o":"m 504 332 l 344 581 l 397 618 l 585 332 l 397 47 l 344 83 m 258 332 l 99 581 l 151 618 l 339 332 l 151 47 l 99 83 "},"Œ":{"ha":1372,"x_min":0,"x_max":0,"o":"m 1285 983 l 1285 913 l 814 913 l 814 546 l 1253 546 l 1253 476 l 814 476 l 814 71 l 1303 71 l 1303 0 l 624 0 b 430 31 556 0 491 10 b 263 120 368 51 313 81 b 143 276 213 159 173 211 b 99 492 113 340 99 412 b 143 708 99 571 113 643 b 263 863 173 772 213 824 b 430 953 313 903 368 932 b 624 983 491 973 556 983 m 644 913 b 306 794 502 913 389 873 b 182 492 223 716 182 615 b 306 189 182 369 223 268 b 644 71 388 110 501 71 l 735 71 l 735 913 l 644 913 "},"œ":{"ha":1388,"x_min":0,"x_max":0,"o":"m 421 -18 b 176 79 322 -18 240 14 b 81 324 113 144 81 225 b 176 568 81 423 113 504 b 421 664 240 632 322 664 b 601 617 489 664 550 648 b 721 488 653 585 693 542 b 833 617 747 542 784 585 b 1000 664 882 648 938 664 b 1227 573 1097 664 1173 634 b 1308 347 1281 512 1308 437 b 1307 308 1308 329 1308 316 l 757 308 b 831 124 759 237 783 176 b 1011 47 878 73 938 47 b 1137 78 1057 47 1099 58 b 1228 161 1174 99 1205 127 l 1283 117 b 1010 -18 1214 27 1123 -18 b 837 30 945 -18 887 -2 b 722 161 786 62 748 106 b 602 30 694 106 654 62 b 421 -18 550 -2 489 -18 m 686 324 b 613 522 686 402 662 468 b 421 601 565 575 500 601 b 230 522 342 601 278 575 b 157 324 181 468 157 402 b 230 126 157 245 181 179 b 421 47 278 74 342 47 b 613 126 500 47 565 74 b 686 324 662 179 686 245 m 1232 368 b 1167 537 1229 438 1207 494 b 1001 601 1126 580 1071 601 b 831 529 932 601 875 577 b 761 368 787 481 764 427 "},"Ÿ":{"ha":810,"x_min":0,"x_max":0,"o":"m 444 0 l 365 0 l 365 425 l 6 983 l 104 983 l 407 493 l 711 983 l 803 983 l 444 425 m 222 1182 b 240 1224 222 1198 228 1212 b 282 1242 251 1236 265 1242 b 324 1224 299 1242 313 1236 b 340 1182 335 1212 340 1198 b 324 1139 340 1165 335 1151 b 282 1121 313 1127 299 1121 b 240 1139 265 1121 251 1127 b 222 1182 228 1151 222 1165 m 474 1182 b 490 1224 474 1198 479 1212 b 532 1242 501 1236 515 1242 b 574 1224 549 1242 563 1236 b 592 1182 586 1212 592 1198 b 574 1139 592 1165 586 1151 b 532 1121 563 1127 549 1121 b 490 1139 515 1121 501 1127 b 474 1182 479 1151 474 1165 "},"¿":{"ha":665,"x_min":0,"x_max":0,"o":"m 300 399 l 378 399 l 378 318 b 351 206 378 275 369 237 b 271 113 333 174 306 143 l 229 76 b 144 -89 173 28 144 -27 b 198 -218 144 -144 162 -187 b 332 -265 234 -250 278 -265 b 463 -217 385 -265 428 -249 b 526 -92 498 -185 519 -144 l 601 -104 b 508 -273 588 -175 557 -232 b 329 -335 459 -314 400 -335 b 140 -270 253 -335 190 -313 b 65 -93 90 -227 65 -168 b 85 7 65 -56 72 -23 b 126 74 98 37 111 59 b 192 135 140 90 162 110 b 278 226 235 171 264 201 b 300 335 293 251 300 288 m 269 614 b 287 658 269 631 275 645 b 331 676 298 670 313 676 b 375 658 348 676 363 670 b 393 614 387 645 393 631 b 375 569 393 596 387 581 b 331 550 363 556 348 550 b 287 569 313 550 298 556 b 269 614 275 581 269 596 "},"À":{"ha":958,"x_min":0,"x_max":0,"o":"m 104 0 l 17 0 l 443 983 l 522 983 l 940 0 l 853 0 l 742 265 l 215 265 m 244 338 l 713 338 l 481 900 m 279 1261 l 379 1261 l 519 1061 l 454 1061 "},"Á":{"ha":958,"x_min":0,"x_max":0,"o":"m 104 0 l 17 0 l 443 983 l 522 983 l 940 0 l 853 0 l 742 265 l 215 265 m 244 338 l 713 338 l 481 900 m 511 1061 l 446 1061 l 586 1261 l 686 1261 "},"Â":{"ha":958,"x_min":0,"x_max":0,"o":"m 104 0 l 17 0 l 443 983 l 522 983 l 940 0 l 853 0 l 742 265 l 215 265 m 244 338 l 713 338 l 481 900 m 672 1061 l 599 1061 l 479 1221 l 360 1061 l 286 1061 l 435 1261 l 524 1261 "},"Ã":{"ha":958,"x_min":0,"x_max":0,"o":"m 104 0 l 17 0 l 443 983 l 522 983 l 940 0 l 853 0 l 742 265 l 215 265 m 244 338 l 713 338 l 481 900 m 275 1085 b 389 1215 289 1172 327 1215 b 488 1183 409 1215 442 1204 b 576 1150 533 1161 563 1150 b 640 1218 609 1150 630 1173 l 689 1218 b 576 1089 675 1132 638 1089 b 478 1122 555 1089 522 1100 b 389 1154 433 1143 404 1154 b 324 1085 356 1154 334 1131 "},"Ä":{"ha":958,"x_min":0,"x_max":0,"o":"m 104 0 l 17 0 l 443 983 l 522 983 l 940 0 l 853 0 l 742 265 l 215 265 m 244 338 l 713 338 l 481 900 m 297 1182 b 315 1224 297 1198 303 1212 b 357 1242 326 1236 340 1242 b 399 1224 374 1242 388 1236 b 415 1182 410 1212 415 1198 b 399 1139 415 1165 410 1151 b 357 1121 388 1127 374 1121 b 315 1139 340 1121 326 1127 b 297 1182 303 1151 297 1165 m 549 1182 b 565 1224 549 1198 554 1212 b 607 1242 576 1236 590 1242 b 649 1224 624 1242 638 1236 b 667 1182 661 1212 667 1198 b 649 1139 667 1165 661 1151 b 607 1121 638 1127 624 1121 b 565 1139 590 1121 576 1127 b 549 1182 554 1151 549 1165 "},"Å":{"ha":958,"x_min":0,"x_max":0,"o":"m 104 0 l 17 0 l 443 983 l 522 983 l 940 0 l 853 0 l 742 265 l 215 265 m 244 338 l 713 338 l 481 900 m 614 1181 b 574 1087 614 1144 601 1112 b 481 1049 548 1061 517 1049 b 387 1087 444 1049 413 1061 b 347 1181 360 1112 347 1144 b 387 1274 347 1218 360 1249 b 481 1313 413 1300 444 1313 b 574 1274 517 1313 548 1300 b 614 1181 601 1249 614 1218 m 571 1181 b 544 1244 571 1206 562 1227 b 481 1271 527 1262 506 1271 b 417 1244 456 1271 434 1262 b 390 1181 399 1227 390 1206 b 417 1117 390 1156 399 1134 b 481 1090 434 1099 456 1090 b 544 1117 506 1090 527 1099 b 571 1181 562 1134 571 1156 "},"Æ":{"ha":1365,"x_min":0,"x_max":0,"o":"m 789 71 l 1290 71 l 1290 0 l 710 0 l 710 278 l 296 278 l 115 0 l 25 0 l 664 983 l 1271 983 l 1271 913 l 789 913 l 789 546 l 1238 546 l 1238 476 l 789 476 m 710 349 l 710 913 l 701 913 l 338 349 "},"Ç":{"ha":1001,"x_min":0,"x_max":0,"o":"m 950 146 b 596 -26 863 32 745 -25 l 543 -108 b 599 -101 557 -104 575 -101 b 680 -127 629 -101 656 -110 b 715 -200 703 -144 715 -169 b 667 -290 715 -242 699 -272 b 554 -318 634 -309 597 -318 b 425 -290 508 -318 465 -309 l 443 -247 b 549 -269 474 -262 509 -269 b 617 -253 573 -269 595 -264 b 649 -201 638 -242 649 -225 b 565 -142 649 -162 621 -142 b 494 -156 539 -142 516 -146 l 474 -137 l 546 -25 b 213 134 410 -15 299 38 b 85 492 128 230 85 349 b 229 863 85 642 133 766 b 593 1010 325 961 447 1010 b 790 972 665 1010 731 997 b 932 867 850 947 897 912 l 875 814 b 756 904 845 851 806 881 b 594 939 707 927 653 939 b 285 809 467 939 364 896 b 168 492 207 722 168 617 b 285 174 168 367 207 261 b 594 44 364 88 467 44 b 896 189 718 44 818 93 "},"È":{"ha":821,"x_min":0,"x_max":0,"o":"m 214 71 l 753 71 l 753 0 l 136 0 l 136 983 l 735 983 l 735 913 l 214 913 l 214 546 l 701 546 l 701 476 l 214 476 m 265 1261 l 365 1261 l 506 1061 l 440 1061 "},"É":{"ha":821,"x_min":0,"x_max":0,"o":"m 214 71 l 753 71 l 753 0 l 136 0 l 136 983 l 735 983 l 735 913 l 214 913 l 214 546 l 701 546 l 701 476 l 214 476 m 443 1061 l 378 1061 l 518 1261 l 618 1261 "},"Ê":{"ha":821,"x_min":0,"x_max":0,"o":"m 214 71 l 753 71 l 753 0 l 136 0 l 136 983 l 735 983 l 735 913 l 214 913 l 214 546 l 701 546 l 701 476 l 214 476 m 631 1061 l 557 1061 l 438 1221 l 318 1061 l 244 1061 l 393 1261 l 482 1261 "},"Ë":{"ha":821,"x_min":0,"x_max":0,"o":"m 214 71 l 753 71 l 753 0 l 136 0 l 136 983 l 735 983 l 735 913 l 214 913 l 214 546 l 701 546 l 701 476 l 214 476 m 254 1182 b 272 1224 254 1198 260 1212 b 314 1242 283 1236 297 1242 b 356 1224 331 1242 344 1236 b 372 1182 367 1212 372 1198 b 356 1139 372 1165 367 1151 b 314 1121 344 1127 331 1121 b 272 1139 297 1121 283 1127 b 254 1182 260 1151 254 1165 m 506 1182 b 522 1224 506 1198 511 1212 b 564 1242 533 1236 547 1242 b 606 1224 581 1242 595 1236 b 624 1182 618 1212 624 1198 b 606 1139 624 1165 618 1151 b 564 1121 595 1127 581 1121 b 522 1139 547 1121 533 1127 b 506 1182 511 1151 506 1165 "},"Ì":{"ha":350,"x_min":0,"x_max":0,"o":"m 215 0 l 136 0 l 136 983 l 215 983 m -26 1261 l 74 1261 l 214 1061 l 149 1061 "},"Í":{"ha":350,"x_min":0,"x_max":0,"o":"m 215 0 l 136 0 l 136 983 l 215 983 m 200 1061 l 135 1061 l 275 1261 l 375 1261 "},"Î":{"ha":350,"x_min":0,"x_max":0,"o":"m 215 0 l 136 0 l 136 983 l 215 983 m 367 1061 l 293 1061 l 174 1221 l 54 1061 l -19 1061 l 129 1261 l 218 1261 "},"Ï":{"ha":350,"x_min":0,"x_max":0,"o":"m 215 0 l 136 0 l 136 983 l 215 983 m -10 1182 b 8 1224 -10 1198 -4 1212 b 50 1242 19 1236 33 1242 b 92 1224 67 1242 81 1236 b 108 1182 103 1212 108 1198 b 92 1139 108 1165 103 1151 b 50 1121 81 1127 67 1121 b 8 1139 33 1121 19 1127 b -10 1182 -4 1151 -10 1165 m 242 1182 b 258 1224 242 1198 247 1212 b 300 1242 269 1236 283 1242 b 342 1224 317 1242 331 1236 b 360 1182 354 1212 360 1198 b 342 1139 360 1165 354 1151 b 300 1121 331 1127 317 1121 b 258 1139 283 1121 269 1127 b 242 1182 247 1151 242 1165 "},"Ð":{"ha":1057,"x_min":0,"x_max":0,"o":"m 128 486 l 24 486 l 24 547 l 128 547 l 128 983 l 440 983 b 634 953 508 983 572 973 b 801 863 696 932 751 903 b 919 708 850 824 890 772 b 964 492 949 643 964 571 b 919 276 964 412 949 340 b 801 120 890 211 850 159 b 634 31 751 81 696 51 b 440 0 572 10 508 0 l 128 0 m 207 72 l 415 72 b 756 190 560 72 673 111 b 879 492 838 268 879 369 b 756 794 879 616 838 717 b 415 911 674 872 561 911 l 207 911 l 207 547 l 569 547 l 569 486 l 207 486 "},"Ñ":{"ha":1067,"x_min":0,"x_max":0,"o":"m 849 114 l 851 114 l 851 983 l 931 983 l 931 0 l 831 0 l 218 875 l 215 875 l 215 0 l 136 0 l 136 983 l 236 983 m 332 1085 b 446 1215 346 1172 384 1215 b 544 1183 466 1215 499 1204 b 633 1150 590 1161 619 1150 b 697 1218 666 1150 687 1173 l 746 1218 b 633 1089 732 1132 694 1089 b 535 1122 612 1089 579 1100 b 446 1154 490 1143 461 1154 b 381 1085 413 1154 391 1131 "},"Ò":{"ha":1190,"x_min":0,"x_max":0,"o":"m 1106 492 b 960 120 1106 342 1057 218 b 594 -26 864 22 742 -26 b 230 120 448 -26 327 22 b 85 492 133 218 85 342 b 230 863 85 642 133 766 b 594 1010 327 961 448 1010 b 960 863 742 1010 864 961 b 1106 492 1057 766 1106 642 m 1022 492 b 903 809 1022 617 983 722 b 594 939 824 896 721 939 b 286 809 468 939 365 896 b 168 492 207 722 168 617 b 286 174 168 367 207 261 b 594 44 365 88 468 44 b 904 174 722 44 825 88 b 1022 492 983 261 1022 367 m 440 1261 l 540 1261 l 681 1061 l 615 1061 "},"Ó":{"ha":1190,"x_min":0,"x_max":0,"o":"m 1106 492 b 960 120 1106 342 1057 218 b 594 -26 864 22 742 -26 b 230 120 448 -26 327 22 b 85 492 133 218 85 342 b 230 863 85 642 133 766 b 594 1010 327 961 448 1010 b 960 863 742 1010 864 961 b 1106 492 1057 766 1106 642 m 1022 492 b 903 809 1022 617 983 722 b 594 939 824 896 721 939 b 286 809 468 939 365 896 b 168 492 207 722 168 617 b 286 174 168 367 207 261 b 594 44 365 88 468 44 b 904 174 722 44 825 88 b 1022 492 983 261 1022 367 m 593 1061 l 528 1061 l 668 1261 l 768 1261 "},"Ô":{"ha":1190,"x_min":0,"x_max":0,"o":"m 1106 492 b 960 120 1106 342 1057 218 b 594 -26 864 22 742 -26 b 230 120 448 -26 327 22 b 85 492 133 218 85 342 b 230 863 85 642 133 766 b 594 1010 327 961 448 1010 b 960 863 742 1010 864 961 b 1106 492 1057 766 1106 642 m 1022 492 b 903 809 1022 617 983 722 b 594 939 824 896 721 939 b 286 809 468 939 365 896 b 168 492 207 722 168 617 b 286 174 168 367 207 261 b 594 44 365 88 468 44 b 904 174 722 44 825 88 b 1022 492 983 261 1022 367 m 788 1061 l 714 1061 l 594 1221 l 475 1061 l 401 1061 l 550 1261 l 639 1261 "},"Õ":{"ha":1190,"x_min":0,"x_max":0,"o":"m 1106 492 b 960 120 1106 342 1057 218 b 594 -26 864 22 742 -26 b 230 120 448 -26 327 22 b 85 492 133 218 85 342 b 230 863 85 642 133 766 b 594 1010 327 961 448 1010 b 960 863 742 1010 864 961 b 1106 492 1057 766 1106 642 m 1022 492 b 903 809 1022 617 983 722 b 594 939 824 896 721 939 b 286 809 468 939 365 896 b 168 492 207 722 168 617 b 286 174 168 367 207 261 b 594 44 365 88 468 44 b 904 174 722 44 825 88 b 1022 492 983 261 1022 367 m 389 1085 b 503 1215 403 1172 441 1215 b 601 1183 523 1215 556 1204 b 690 1150 647 1161 676 1150 b 754 1218 723 1150 744 1173 l 803 1218 b 690 1089 789 1132 751 1089 b 592 1122 669 1089 636 1100 b 503 1154 547 1143 518 1154 b 438 1085 469 1154 448 1131 "},"Ö":{"ha":1190,"x_min":0,"x_max":0,"o":"m 1106 492 b 960 120 1106 342 1057 218 b 594 -26 864 22 742 -26 b 230 120 448 -26 327 22 b 85 492 133 218 85 342 b 230 863 85 642 133 766 b 594 1010 327 961 448 1010 b 960 863 742 1010 864 961 b 1106 492 1057 766 1106 642 m 1022 492 b 903 809 1022 617 983 722 b 594 939 824 896 721 939 b 286 809 468 939 365 896 b 168 492 207 722 168 617 b 286 174 168 367 207 261 b 594 44 365 88 468 44 b 904 174 722 44 825 88 b 1022 492 983 261 1022 367 m 411 1182 b 428 1224 411 1198 417 1212 b 471 1242 440 1236 454 1242 b 513 1224 488 1242 501 1236 b 529 1182 524 1212 529 1198 b 513 1139 529 1165 524 1151 b 471 1121 501 1127 488 1121 b 428 1139 454 1121 440 1127 b 411 1182 417 1151 411 1165 m 663 1182 b 679 1224 663 1198 668 1212 b 721 1242 690 1236 704 1242 b 763 1224 738 1242 752 1236 b 781 1182 775 1212 781 1198 b 763 1139 781 1165 775 1151 b 721 1121 752 1127 738 1121 b 679 1139 704 1121 690 1127 b 663 1182 668 1151 663 1165 "},"×":{"ha":925,"x_min":0,"x_max":0,"o":"m 463 471 l 692 700 l 739 653 l 510 422 l 739 193 l 692 146 l 463 375 l 233 146 l 188 193 l 417 422 l 188 653 l 233 700 "},"Ø":{"ha":1190,"x_min":0,"x_max":0,"o":"m 958 858 b 1100 492 1053 761 1100 639 b 955 120 1100 342 1052 218 b 589 -26 858 22 736 -26 b 260 89 461 -26 351 12 l 157 -22 l 115 17 l 217 129 b 79 492 125 225 79 346 b 224 863 79 642 128 766 b 589 1010 321 961 443 1010 b 915 897 716 1010 825 972 l 1018 1008 l 1060 971 m 311 144 b 589 44 387 78 480 44 b 899 174 718 44 821 88 b 1017 492 978 261 1017 367 b 906 800 1017 616 980 719 m 865 842 b 589 939 791 906 699 939 b 280 809 461 939 358 896 b 163 492 202 722 163 617 b 271 186 163 369 199 267 "},"Ù":{"ha":996,"x_min":0,"x_max":0,"o":"m 497 -26 b 319 9 429 -26 369 -15 b 203 104 268 33 230 64 b 146 229 177 144 158 186 b 128 368 134 273 128 319 l 128 983 l 207 983 l 207 378 b 215 283 207 344 209 313 b 243 193 220 253 229 223 b 296 117 257 163 275 138 b 379 65 317 95 345 78 b 497 44 413 51 453 44 b 638 74 552 44 599 54 b 729 152 678 93 708 119 b 775 258 750 185 766 220 b 789 378 784 295 789 335 l 789 983 l 868 983 l 868 368 b 850 229 868 319 862 273 b 792 104 838 186 819 144 b 677 9 766 64 728 33 b 497 -26 627 -15 567 -26 m 331 1261 l 431 1261 l 571 1061 l 506 1061 "},"Ú":{"ha":996,"x_min":0,"x_max":0,"o":"m 497 -26 b 319 9 429 -26 369 -15 b 203 104 268 33 230 64 b 146 229 177 144 158 186 b 128 368 134 273 128 319 l 128 983 l 207 983 l 207 378 b 215 283 207 344 209 313 b 243 193 220 253 229 223 b 296 117 257 163 275 138 b 379 65 317 95 345 78 b 497 44 413 51 453 44 b 638 74 552 44 599 54 b 729 152 678 93 708 119 b 775 258 750 185 766 220 b 789 378 784 295 789 335 l 789 983 l 868 983 l 868 368 b 850 229 868 319 862 273 b 792 104 838 186 819 144 b 677 9 766 64 728 33 b 497 -26 627 -15 567 -26 m 497 1061 l 432 1061 l 572 1261 l 672 1261 "},"Û":{"ha":996,"x_min":0,"x_max":0,"o":"m 497 -26 b 319 9 429 -26 369 -15 b 203 104 268 33 230 64 b 146 229 177 144 158 186 b 128 368 134 273 128 319 l 128 983 l 207 983 l 207 378 b 215 283 207 344 209 313 b 243 193 220 253 229 223 b 296 117 257 163 275 138 b 379 65 317 95 345 78 b 497 44 413 51 453 44 b 638 74 552 44 599 54 b 729 152 678 93 708 119 b 775 258 750 185 766 220 b 789 378 784 295 789 335 l 789 983 l 868 983 l 868 368 b 850 229 868 319 862 273 b 792 104 838 186 819 144 b 677 9 766 64 728 33 b 497 -26 627 -15 567 -26 m 690 1061 l 617 1061 l 497 1221 l 378 1061 l 304 1061 l 453 1261 l 542 1261 "},"Ü":{"ha":996,"x_min":0,"x_max":0,"o":"m 497 -26 b 319 9 429 -26 369 -15 b 203 104 268 33 230 64 b 146 229 177 144 158 186 b 128 368 134 273 128 319 l 128 983 l 207 983 l 207 378 b 215 283 207 344 209 313 b 243 193 220 253 229 223 b 296 117 257 163 275 138 b 379 65 317 95 345 78 b 497 44 413 51 453 44 b 638 74 552 44 599 54 b 729 152 678 93 708 119 b 775 258 750 185 766 220 b 789 378 784 295 789 335 l 789 983 l 868 983 l 868 368 b 850 229 868 319 862 273 b 792 104 838 186 819 144 b 677 9 766 64 728 33 b 497 -26 627 -15 567 -26 m 314 1182 b 331 1224 314 1198 320 1212 b 374 1242 343 1236 357 1242 b 415 1224 390 1242 404 1236 b 432 1182 426 1212 432 1198 b 415 1139 432 1165 426 1151 b 374 1121 404 1127 390 1121 b 331 1139 357 1121 343 1127 b 314 1182 320 1151 314 1165 m 565 1182 b 582 1224 565 1198 571 1212 b 624 1242 593 1236 607 1242 b 666 1224 640 1242 654 1236 b 683 1182 678 1212 683 1198 b 666 1139 683 1165 678 1151 b 624 1121 654 1127 640 1121 b 582 1139 607 1121 593 1127 b 565 1182 571 1151 565 1165 "},"Ý":{"ha":810,"x_min":0,"x_max":0,"o":"m 444 0 l 365 0 l 365 425 l 6 983 l 104 983 l 407 493 l 711 983 l 803 983 l 444 425 m 438 1061 l 372 1061 l 513 1261 l 613 1261 "},"Þ":{"ha":803,"x_min":0,"x_max":0,"o":"m 136 983 l 215 983 l 215 767 l 410 767 b 644 703 507 767 585 745 b 733 510 704 660 733 596 b 646 316 733 425 704 361 b 414 249 588 271 510 249 l 215 249 l 215 0 l 136 0 m 215 318 l 404 318 b 583 367 480 318 540 334 b 649 510 627 399 649 447 b 582 651 649 574 626 621 b 401 697 538 682 477 697 l 215 697 "},"ß":{"ha":826,"x_min":0,"x_max":0,"o":"m 203 0 l 128 0 l 128 753 b 143 869 128 794 133 833 b 190 968 153 904 169 938 b 280 1040 212 999 241 1023 b 415 1067 318 1058 363 1067 b 601 1000 488 1067 550 1044 b 678 822 652 956 678 896 b 508 599 678 708 621 634 l 508 596 b 683 506 580 588 638 557 b 750 304 728 454 750 387 b 661 72 750 208 720 131 b 424 -15 602 14 523 -15 b 350 -10 394 -15 369 -13 l 350 54 b 417 49 378 50 400 49 b 602 118 494 49 556 72 b 671 306 648 164 671 227 b 596 496 671 389 646 452 b 396 561 546 539 479 561 l 381 561 l 381 628 l 396 628 b 544 676 457 628 506 644 b 601 817 582 709 601 756 b 548 951 601 874 584 919 b 413 1000 512 984 467 1000 b 308 978 372 1000 337 993 b 244 917 280 963 258 943 b 213 838 229 891 219 864 b 203 750 206 811 203 781 "},"à":{"ha":732,"x_min":0,"x_max":0,"o":"m 303 -18 b 149 31 245 -18 194 -2 b 81 175 103 63 81 111 b 113 287 81 219 91 257 b 206 353 135 317 166 339 b 329 383 247 368 288 378 b 474 392 371 389 419 392 l 539 392 l 539 421 b 356 601 539 541 478 601 b 163 525 280 601 215 576 l 121 575 b 363 664 182 634 263 664 b 543 604 438 664 498 644 b 611 429 588 564 611 506 l 611 146 b 622 0 611 88 615 39 l 554 0 b 543 119 547 44 543 84 l 540 119 b 303 -18 489 28 410 -18 m 321 44 b 483 113 391 44 445 67 b 539 279 520 159 539 214 l 539 332 l 490 332 b 158 179 269 332 158 281 b 206 77 158 133 174 99 b 321 44 238 55 276 44 m 208 983 l 308 983 l 449 783 l 383 783 "},"á":{"ha":732,"x_min":0,"x_max":0,"o":"m 303 -18 b 149 31 245 -18 194 -2 b 81 175 103 63 81 111 b 113 287 81 219 91 257 b 206 353 135 317 166 339 b 329 383 247 368 288 378 b 474 392 371 389 419 392 l 539 392 l 539 421 b 356 601 539 541 478 601 b 163 525 280 601 215 576 l 121 575 b 363 664 182 634 263 664 b 543 604 438 664 498 644 b 611 429 588 564 611 506 l 611 146 b 622 0 611 88 615 39 l 554 0 b 543 119 547 44 543 84 l 540 119 b 303 -18 489 28 410 -18 m 321 44 b 483 113 391 44 445 67 b 539 279 520 159 539 214 l 539 332 l 490 332 b 158 179 269 332 158 281 b 206 77 158 133 174 99 b 321 44 238 55 276 44 m 371 783 l 306 783 l 446 983 l 546 983 "},"â":{"ha":732,"x_min":0,"x_max":0,"o":"m 303 -18 b 149 31 245 -18 194 -2 b 81 175 103 63 81 111 b 113 287 81 219 91 257 b 206 353 135 317 166 339 b 329 383 247 368 288 378 b 474 392 371 389 419 392 l 539 392 l 539 421 b 356 601 539 541 478 601 b 163 525 280 601 215 576 l 121 575 b 363 664 182 634 263 664 b 543 604 438 664 498 644 b 611 429 588 564 611 506 l 611 146 b 622 0 611 88 615 39 l 554 0 b 543 119 547 44 543 84 l 540 119 b 303 -18 489 28 410 -18 m 321 44 b 483 113 391 44 445 67 b 539 279 520 159 539 214 l 539 332 l 490 332 b 158 179 269 332 158 281 b 206 77 158 133 174 99 b 321 44 238 55 276 44 m 557 783 l 483 783 l 364 943 l 244 783 l 171 783 l 319 983 l 408 983 "},"ã":{"ha":732,"x_min":0,"x_max":0,"o":"m 303 -18 b 149 31 245 -18 194 -2 b 81 175 103 63 81 111 b 113 287 81 219 91 257 b 206 353 135 317 166 339 b 329 383 247 368 288 378 b 474 392 371 389 419 392 l 539 392 l 539 421 b 356 601 539 541 478 601 b 163 525 280 601 215 576 l 121 575 b 363 664 182 634 263 664 b 543 604 438 664 498 644 b 611 429 588 564 611 506 l 611 146 b 622 0 611 88 615 39 l 554 0 b 543 119 547 44 543 84 l 540 119 b 303 -18 489 28 410 -18 m 321 44 b 483 113 391 44 445 67 b 539 279 520 159 539 214 l 539 332 l 490 332 b 158 179 269 332 158 281 b 206 77 158 133 174 99 b 321 44 238 55 276 44 m 156 807 b 269 938 169 894 207 938 b 368 905 290 938 323 927 b 457 872 413 883 443 872 b 521 940 489 872 511 895 l 569 940 b 457 811 556 854 518 811 b 358 844 436 811 403 822 b 269 876 314 866 284 876 b 204 807 236 876 214 853 "},"ä":{"ha":732,"x_min":0,"x_max":0,"o":"m 303 -18 b 149 31 245 -18 194 -2 b 81 175 103 63 81 111 b 113 287 81 219 91 257 b 206 353 135 317 166 339 b 329 383 247 368 288 378 b 474 392 371 389 419 392 l 539 392 l 539 421 b 356 601 539 541 478 601 b 163 525 280 601 215 576 l 121 575 b 363 664 182 634 263 664 b 543 604 438 664 498 644 b 611 429 588 564 611 506 l 611 146 b 622 0 611 88 615 39 l 554 0 b 543 119 547 44 543 84 l 540 119 b 303 -18 489 28 410 -18 m 321 44 b 483 113 391 44 445 67 b 539 279 520 159 539 214 l 539 332 l 490 332 b 158 179 269 332 158 281 b 206 77 158 133 174 99 b 321 44 238 55 276 44 m 179 904 b 197 946 179 920 185 934 b 239 964 208 958 222 964 b 281 946 256 964 269 958 b 297 904 292 934 297 920 b 281 861 297 888 292 873 b 239 843 269 849 256 843 b 197 861 222 843 208 849 b 179 904 185 873 179 888 m 431 904 b 447 946 431 920 436 934 b 489 964 458 958 472 964 b 531 946 506 964 520 958 b 549 904 543 934 549 920 b 531 861 549 888 543 873 b 489 843 520 849 506 843 b 447 861 472 843 458 849 b 431 904 436 873 431 888 "},"å":{"ha":732,"x_min":0,"x_max":0,"o":"m 303 -18 b 149 31 245 -18 194 -2 b 81 175 103 63 81 111 b 113 287 81 219 91 257 b 206 353 135 317 166 339 b 329 383 247 368 288 378 b 474 392 371 389 419 392 l 539 392 l 539 421 b 356 601 539 541 478 601 b 163 525 280 601 215 576 l 121 575 b 363 664 182 634 263 664 b 543 604 438 664 498 644 b 611 429 588 564 611 506 l 611 146 b 622 0 611 88 615 39 l 554 0 b 543 119 547 44 543 84 l 540 119 b 303 -18 489 28 410 -18 m 321 44 b 483 113 391 44 445 67 b 539 279 520 159 539 214 l 539 332 l 490 332 b 158 179 269 332 158 281 b 206 77 158 133 174 99 b 321 44 238 55 276 44 m 496 903 b 456 809 496 866 483 834 b 363 771 430 784 399 771 b 269 809 326 771 295 784 b 229 903 242 834 229 866 b 269 997 229 940 242 971 b 363 1035 295 1022 326 1035 b 456 997 399 1035 430 1022 b 496 903 483 971 496 940 m 453 903 b 426 967 453 928 444 949 b 363 993 409 984 388 993 b 299 967 338 993 316 984 b 272 903 281 949 272 928 b 299 839 272 878 281 856 b 363 813 316 821 338 813 b 426 839 388 813 409 821 b 453 903 444 856 453 878 "},"æ":{"ha":1213,"x_min":0,"x_max":0,"o":"m 313 -18 b 150 28 250 -18 195 -3 b 82 168 105 59 82 106 b 114 270 82 209 93 243 b 205 331 135 297 166 318 b 324 360 244 345 284 354 b 464 369 363 365 410 369 l 539 369 l 539 403 b 492 548 539 464 523 512 b 358 601 461 584 417 601 b 158 525 282 601 216 576 l 115 574 b 227 639 145 600 182 622 b 368 664 272 656 319 664 b 512 624 425 664 473 650 b 590 513 550 597 576 560 b 694 623 615 559 650 596 b 840 664 739 650 788 664 b 1056 573 933 664 1005 634 b 1132 347 1106 512 1132 437 b 1131 308 1132 327 1131 314 l 610 308 b 677 124 611 237 633 176 b 849 47 721 73 778 47 b 969 78 893 47 933 58 b 1056 160 1006 99 1034 126 l 1110 117 b 849 -17 1042 28 955 -17 b 685 29 786 -17 731 -1 b 583 154 638 60 605 101 b 313 -18 545 39 455 -18 m 324 44 b 485 103 396 44 450 64 b 539 257 521 143 539 194 l 539 308 l 489 308 b 365 303 441 308 400 307 b 263 285 331 300 297 294 b 186 243 229 277 204 263 b 160 169 169 224 160 199 b 206 74 160 125 175 93 b 324 44 237 54 276 44 m 1056 369 b 996 537 1055 438 1035 494 b 840 601 957 580 905 601 b 680 528 776 601 723 577 b 613 369 637 479 614 426 "},"ç":{"ha":686,"x_min":0,"x_max":0,"o":"m 597 517 b 519 578 578 542 552 562 b 418 601 486 594 452 601 b 231 522 341 601 279 575 b 160 324 184 468 160 402 b 231 126 160 245 183 179 b 415 47 278 74 339 47 b 604 128 489 47 552 74 l 651 85 b 431 -18 596 20 522 -14 l 374 -108 b 429 -101 388 -104 406 -101 b 510 -127 460 -101 487 -110 b 546 -200 534 -144 546 -169 b 497 -290 546 -242 530 -272 b 385 -318 465 -309 427 -318 b 256 -290 338 -318 295 -309 l 274 -247 b 379 -269 304 -262 339 -269 b 447 -253 403 -269 426 -264 b 479 -201 469 -242 479 -225 b 396 -142 479 -162 451 -142 b 325 -156 370 -142 346 -146 l 304 -137 l 382 -17 b 163 89 290 -9 217 26 b 81 324 108 152 81 230 b 174 567 81 422 112 503 b 417 664 237 632 318 664 b 647 563 517 664 594 630 "},"è":{"ha":788,"x_min":0,"x_max":0,"o":"m 632 368 b 566 537 629 438 607 494 b 400 601 525 580 469 601 b 231 528 331 601 275 577 b 160 368 186 480 163 426 m 408 -18 b 174 79 314 -18 236 14 b 81 325 112 144 81 226 b 173 567 81 422 111 503 b 401 664 234 632 311 664 b 627 573 499 664 574 634 b 707 347 680 512 707 437 l 707 308 l 158 308 b 231 124 160 237 184 176 b 411 47 277 73 337 47 b 633 157 497 47 571 84 l 683 117 b 408 -18 614 27 522 -18 m 222 983 l 322 983 l 463 783 l 397 783 "},"é":{"ha":788,"x_min":0,"x_max":0,"o":"m 632 368 b 566 537 629 438 607 494 b 400 601 525 580 469 601 b 231 528 331 601 275 577 b 160 368 186 480 163 426 m 408 -18 b 174 79 314 -18 236 14 b 81 325 112 144 81 226 b 173 567 81 422 111 503 b 401 664 234 632 311 664 b 627 573 499 664 574 634 b 707 347 680 512 707 437 l 707 308 l 158 308 b 231 124 160 237 184 176 b 411 47 277 73 337 47 b 633 157 497 47 571 84 l 683 117 b 408 -18 614 27 522 -18 m 417 783 l 351 783 l 492 983 l 592 983 "},"ê":{"ha":788,"x_min":0,"x_max":0,"o":"m 632 368 b 566 537 629 438 607 494 b 400 601 525 580 469 601 b 231 528 331 601 275 577 b 160 368 186 480 163 426 m 408 -18 b 174 79 314 -18 236 14 b 81 325 112 144 81 226 b 173 567 81 422 111 503 b 401 664 234 632 311 664 b 627 573 499 664 574 634 b 707 347 680 512 707 437 l 707 308 l 158 308 b 231 124 160 237 184 176 b 411 47 277 73 337 47 b 633 157 497 47 571 84 l 683 117 b 408 -18 614 27 522 -18 m 603 783 l 529 783 l 410 943 l 290 783 l 217 783 l 365 983 l 454 983 "},"ë":{"ha":788,"x_min":0,"x_max":0,"o":"m 632 368 b 566 537 629 438 607 494 b 400 601 525 580 469 601 b 231 528 331 601 275 577 b 160 368 186 480 163 426 m 408 -18 b 174 79 314 -18 236 14 b 81 325 112 144 81 226 b 173 567 81 422 111 503 b 401 664 234 632 311 664 b 627 573 499 664 574 634 b 707 347 680 512 707 437 l 707 308 l 158 308 b 231 124 160 237 184 176 b 411 47 277 73 337 47 b 633 157 497 47 571 84 l 683 117 b 408 -18 614 27 522 -18 m 224 904 b 241 946 224 920 229 934 b 283 964 253 958 267 964 b 325 946 300 964 314 958 b 342 904 336 934 342 920 b 325 861 342 888 336 873 b 283 843 314 849 300 843 b 241 861 267 843 253 849 b 224 904 229 873 224 888 m 475 904 b 492 946 475 920 481 934 b 533 964 503 958 517 964 b 576 946 550 964 564 958 b 593 904 587 934 593 920 b 576 861 593 888 587 873 b 533 843 564 849 550 843 b 492 861 517 843 503 849 b 475 904 481 873 475 888 "},"ì":{"ha":338,"x_min":0,"x_max":0,"o":"m 207 0 l 131 0 l 131 647 l 207 647 m -35 983 l 65 983 l 206 783 l 140 783 "},"í":{"ha":338,"x_min":0,"x_max":0,"o":"m 207 0 l 131 0 l 131 647 l 207 647 m 196 783 l 131 783 l 271 983 l 371 983 "},"î":{"ha":338,"x_min":0,"x_max":0,"o":"m 207 0 l 131 0 l 131 647 l 207 647 m 364 783 l 290 783 l 171 943 l 51 783 l -22 783 l 126 983 l 215 983 "},"ï":{"ha":338,"x_min":0,"x_max":0,"o":"m 207 0 l 131 0 l 131 647 l 207 647 m -15 904 b 2 946 -15 920 -9 934 b 44 964 14 958 28 964 b 86 946 61 964 75 958 b 103 904 97 934 103 920 b 86 861 103 888 97 873 b 44 843 75 849 61 843 b 2 861 28 843 14 849 b -15 904 -9 873 -15 888 m 236 904 b 253 946 236 920 242 934 b 294 964 264 958 278 964 b 337 946 311 964 325 958 b 354 904 348 934 354 920 b 337 861 354 888 348 873 b 294 843 325 849 311 843 b 253 861 278 843 264 849 b 236 904 242 873 236 888 "},"ð":{"ha":846,"x_min":0,"x_max":0,"o":"m 151 324 b 224 127 151 245 175 179 b 414 49 272 75 335 49 b 605 127 494 49 557 75 b 676 324 653 179 676 245 b 605 519 676 402 653 468 b 414 597 557 571 494 597 b 224 519 335 597 272 571 b 151 324 175 468 151 402 m 483 919 b 675 659 557 849 621 762 b 756 343 729 556 756 450 b 668 89 756 245 726 160 b 414 -18 610 18 525 -18 b 169 79 315 -18 233 14 b 72 324 104 144 72 225 b 168 568 72 423 104 504 b 414 664 232 632 314 664 b 635 576 496 664 570 635 l 639 579 b 541 746 614 636 581 691 b 415 885 501 800 459 847 l 260 804 l 221 844 l 374 925 b 236 1033 336 961 290 997 l 300 1075 b 438 961 355 1034 400 996 l 581 1036 l 626 997 "},"ñ":{"ha":803,"x_min":0,"x_max":0,"o":"m 197 647 b 203 518 201 599 203 556 l 206 518 b 299 624 224 562 255 597 b 438 664 342 650 388 664 b 619 590 518 664 578 639 b 679 394 659 541 679 476 l 679 0 l 604 0 l 604 367 b 421 600 604 522 543 600 b 269 529 361 600 310 576 b 207 329 228 482 207 415 l 207 0 l 131 0 l 131 499 b 125 647 131 560 129 609 m 200 807 b 314 938 214 894 252 938 b 413 905 334 938 367 927 b 501 872 458 883 488 872 b 565 940 534 872 555 895 l 614 940 b 501 811 600 854 563 811 b 403 844 480 811 447 822 b 314 876 358 866 329 876 b 249 807 281 876 259 853 "},"ò":{"ha":846,"x_min":0,"x_max":0,"o":"m 764 324 b 668 79 764 225 732 144 b 422 -18 604 14 522 -18 b 178 79 323 -18 242 14 b 82 324 114 144 82 225 b 177 568 82 423 114 504 b 422 664 241 632 322 664 b 668 568 522 664 604 632 b 764 324 732 504 764 423 m 686 324 b 614 520 686 402 662 468 b 422 599 566 572 502 599 b 232 520 344 599 280 572 b 160 324 184 468 160 402 b 232 128 160 245 184 180 b 422 50 280 76 344 50 b 614 128 502 50 566 76 b 686 324 662 180 686 245 m 238 983 l 338 983 l 478 783 l 413 783 "},"ó":{"ha":846,"x_min":0,"x_max":0,"o":"m 764 324 b 668 79 764 225 732 144 b 422 -18 604 14 522 -18 b 178 79 323 -18 242 14 b 82 324 114 144 82 225 b 177 568 82 423 114 504 b 422 664 241 632 322 664 b 668 568 522 664 604 632 b 764 324 732 504 764 423 m 686 324 b 614 520 686 402 662 468 b 422 599 566 572 502 599 b 232 520 344 599 280 572 b 160 324 184 468 160 402 b 232 128 160 245 184 180 b 422 50 280 76 344 50 b 614 128 502 50 566 76 b 686 324 662 180 686 245 m 433 783 l 368 783 l 508 983 l 608 983 "},"ô":{"ha":846,"x_min":0,"x_max":0,"o":"m 764 324 b 668 79 764 225 732 144 b 422 -18 604 14 522 -18 b 178 79 323 -18 242 14 b 82 324 114 144 82 225 b 177 568 82 423 114 504 b 422 664 241 632 322 664 b 668 568 522 664 604 632 b 764 324 732 504 764 423 m 686 324 b 614 520 686 402 662 468 b 422 599 566 572 502 599 b 232 520 344 599 280 572 b 160 324 184 468 160 402 b 232 128 160 245 184 180 b 422 50 280 76 344 50 b 614 128 502 50 566 76 b 686 324 662 180 686 245 m 615 783 l 542 783 l 422 943 l 303 783 l 229 783 l 378 983 l 467 983 "},"õ":{"ha":846,"x_min":0,"x_max":0,"o":"m 764 324 b 668 79 764 225 732 144 b 422 -18 604 14 522 -18 b 178 79 323 -18 242 14 b 82 324 114 144 82 225 b 177 568 82 423 114 504 b 422 664 241 632 322 664 b 668 568 522 664 604 632 b 764 324 732 504 764 423 m 686 324 b 614 520 686 402 662 468 b 422 599 566 572 502 599 b 232 520 344 599 280 572 b 160 324 184 468 160 402 b 232 128 160 245 184 180 b 422 50 280 76 344 50 b 614 128 502 50 566 76 b 686 324 662 180 686 245 m 217 807 b 331 938 231 894 269 938 b 429 905 351 938 384 927 b 518 872 475 883 504 872 b 582 940 550 872 572 895 l 631 940 b 518 811 617 854 579 811 b 419 844 497 811 464 822 b 331 876 375 866 345 876 b 265 807 297 876 275 853 "},"ö":{"ha":846,"x_min":0,"x_max":0,"o":"m 764 324 b 668 79 764 225 732 144 b 422 -18 604 14 522 -18 b 178 79 323 -18 242 14 b 82 324 114 144 82 225 b 177 568 82 423 114 504 b 422 664 241 632 322 664 b 668 568 522 664 604 632 b 764 324 732 504 764 423 m 686 324 b 614 520 686 402 662 468 b 422 599 566 572 502 599 b 232 520 344 599 280 572 b 160 324 184 468 160 402 b 232 128 160 245 184 180 b 422 50 280 76 344 50 b 614 128 502 50 566 76 b 686 324 662 180 686 245 m 239 904 b 256 946 239 920 245 934 b 299 964 268 958 282 964 b 340 946 315 964 329 958 b 357 904 351 934 357 920 b 340 861 357 888 351 873 b 299 843 329 849 315 843 b 256 861 282 843 268 849 b 239 904 245 873 239 888 m 490 904 b 507 946 490 920 496 934 b 549 964 518 958 532 964 b 591 946 565 964 579 958 b 608 904 603 934 608 920 b 591 861 608 888 603 873 b 549 843 579 849 565 843 b 507 861 532 843 518 849 b 490 904 496 873 490 888 "},"÷":{"ha":925,"x_min":0,"x_max":0,"o":"m 811 388 l 115 388 l 115 454 l 811 454 m 531 647 b 510 600 531 630 524 614 b 463 579 497 586 481 579 b 415 600 444 579 428 586 b 396 647 402 614 396 630 b 415 696 396 666 402 682 b 463 717 428 710 444 717 b 511 696 482 717 498 710 b 531 647 524 682 531 666 m 531 194 b 511 146 531 176 524 160 b 463 125 498 132 482 125 b 415 146 444 125 428 132 b 396 194 402 160 396 176 b 415 242 396 213 402 229 b 463 263 427 256 443 263 b 510 242 481 263 497 256 b 531 194 524 228 531 212 "},"ø":{"ha":846,"x_min":0,"x_max":0,"o":"m 68 3 l 160 97 b 81 324 107 160 81 236 b 176 568 81 423 113 504 b 421 664 240 632 322 664 b 644 589 509 664 583 639 l 733 681 l 769 644 l 681 553 b 765 324 737 490 765 413 b 668 79 765 225 733 144 b 421 -18 603 14 521 -18 b 197 61 334 -18 259 8 l 106 -32 m 597 542 b 422 603 555 582 496 603 b 230 523 343 603 278 576 b 157 324 181 470 157 403 b 210 147 157 251 175 193 m 421 44 b 615 124 501 44 566 71 b 689 324 664 178 689 244 b 631 503 689 398 669 457 l 243 108 b 421 44 290 66 350 44 "},"ù":{"ha":803,"x_min":0,"x_max":0,"o":"m 604 0 b 599 128 600 46 599 89 l 596 128 b 504 22 578 84 548 49 b 365 -18 461 -5 414 -18 b 183 56 284 -18 223 7 b 122 251 142 106 122 171 l 122 647 l 199 647 l 199 281 b 382 46 199 124 260 46 b 533 117 441 46 492 70 b 596 318 575 165 596 232 l 596 647 l 671 647 l 671 149 b 678 0 671 96 673 46 m 214 983 l 314 983 l 454 783 l 389 783 "},"ú":{"ha":803,"x_min":0,"x_max":0,"o":"m 604 0 b 599 128 600 46 599 89 l 596 128 b 504 22 578 84 548 49 b 365 -18 461 -5 414 -18 b 183 56 284 -18 223 7 b 122 251 142 106 122 171 l 122 647 l 199 647 l 199 281 b 382 46 199 124 260 46 b 533 117 441 46 492 70 b 596 318 575 165 596 232 l 596 647 l 671 647 l 671 149 b 678 0 671 96 673 46 m 401 783 l 336 783 l 476 983 l 576 983 "},"û":{"ha":803,"x_min":0,"x_max":0,"o":"m 604 0 b 599 128 600 46 599 89 l 596 128 b 504 22 578 84 548 49 b 365 -18 461 -5 414 -18 b 183 56 284 -18 223 7 b 122 251 142 106 122 171 l 122 647 l 199 647 l 199 281 b 382 46 199 124 260 46 b 533 117 441 46 492 70 b 596 318 575 165 596 232 l 596 647 l 671 647 l 671 149 b 678 0 671 96 673 46 m 589 783 l 515 783 l 396 943 l 276 783 l 203 783 l 351 983 l 440 983 "},"ü":{"ha":803,"x_min":0,"x_max":0,"o":"m 604 0 b 599 128 600 46 599 89 l 596 128 b 504 22 578 84 548 49 b 365 -18 461 -5 414 -18 b 183 56 284 -18 223 7 b 122 251 142 106 122 171 l 122 647 l 199 647 l 199 281 b 382 46 199 124 260 46 b 533 117 441 46 492 70 b 596 318 575 165 596 232 l 596 647 l 671 647 l 671 149 b 678 0 671 96 673 46 m 213 904 b 230 946 213 920 218 934 b 272 964 241 958 256 964 b 314 946 289 964 303 958 b 331 904 325 934 331 920 b 314 861 331 888 325 873 b 272 843 303 849 289 843 b 230 861 256 843 241 849 b 213 904 218 873 213 888 m 464 904 b 481 946 464 920 469 934 b 522 964 492 958 506 964 b 565 946 539 964 553 958 b 582 904 576 934 582 920 b 565 861 582 888 576 873 b 522 843 553 849 539 843 b 481 861 506 843 492 849 b 464 904 469 873 464 888 "},"ý":{"ha":653,"x_min":0,"x_max":0,"o":"m 117 -335 b 40 -325 94 -335 68 -331 l 50 -257 b 114 -268 69 -264 91 -268 b 190 -238 145 -268 171 -258 b 240 -150 209 -218 225 -189 l 296 -4 l 25 647 l 110 647 l 335 76 l 338 79 l 546 647 l 628 647 l 306 -181 b 232 -296 285 -231 261 -270 b 117 -335 203 -322 165 -335 m 349 783 l 283 783 l 424 983 l 524 983 "},"þ":{"ha":876,"x_min":0,"x_max":0,"o":"m 464 -18 b 316 20 411 -18 362 -5 b 208 128 270 46 234 81 l 206 128 l 206 -333 l 132 -333 l 132 1050 l 206 1050 l 206 515 l 208 515 b 317 625 235 563 272 599 b 464 664 363 651 412 664 b 701 567 559 664 638 632 b 796 324 764 503 796 422 b 701 79 796 225 764 144 b 464 -18 638 14 559 -18 m 717 324 b 646 519 717 401 693 466 b 458 597 599 571 536 597 b 271 519 381 597 319 571 b 199 324 223 466 199 401 b 271 128 199 246 223 181 b 458 49 319 75 381 49 b 646 127 536 49 599 75 b 717 324 693 179 717 245 "},"ÿ":{"ha":653,"x_min":0,"x_max":0,"o":"m 117 -335 b 40 -325 94 -335 68 -331 l 50 -257 b 114 -268 69 -264 91 -268 b 190 -238 145 -268 171 -258 b 240 -150 209 -218 225 -189 l 296 -4 l 25 647 l 110 647 l 335 76 l 338 79 l 546 647 l 628 647 l 306 -181 b 232 -296 285 -231 261 -270 b 117 -335 203 -322 165 -335 m 151 904 b 169 946 151 920 157 934 b 211 964 180 958 194 964 b 253 946 228 964 242 958 b 269 904 264 934 269 920 b 253 861 269 888 264 873 b 211 843 242 849 228 843 b 169 861 194 843 180 849 b 151 904 157 873 151 888 m 403 904 b 419 946 403 920 408 934 b 461 964 431 958 444 964 b 503 946 478 964 492 958 b 521 904 515 934 521 920 b 503 861 521 888 515 873 b 461 843 492 849 478 843 b 419 861 444 843 431 849 b 403 904 408 873 403 888 "},"¤":{"ha":1169,"x_min":0,"x_max":0,"o":"m 863 653 b 936 429 912 591 936 516 b 857 200 936 339 910 263 l 988 69 l 939 21 b 807 151 862 99 818 142 b 586 78 745 102 671 78 b 364 154 500 78 426 103 l 229 21 l 182 69 l 315 203 b 239 429 264 262 239 338 b 310 650 239 516 263 590 b 272 687 304 656 292 668 b 219 740 253 706 235 723 b 182 778 203 756 190 769 l 231 826 l 358 699 b 586 779 422 752 498 779 b 811 700 675 779 750 753 b 849 737 820 708 833 721 b 901 790 864 753 882 771 l 938 826 l 988 778 l 863 653 m 586 704 b 392 625 506 704 441 678 b 318 429 343 572 318 507 b 392 231 318 350 343 284 b 586 151 442 178 506 151 b 780 231 666 151 730 178 b 854 429 829 284 854 350 b 781 625 854 507 830 572 b 586 704 731 678 667 704 "},"¦":{"ha":308,"x_min":0,"x_max":0,"o":"m 188 938 l 188 460 l 122 460 l 122 938 m 188 236 l 188 -242 l 122 -242 l 122 236 "},"¨":{"ha":333,"x_min":0,"x_max":0,"o":"m -18 904 b -1 946 -18 920 -12 934 b 42 964 11 958 25 964 b 83 946 58 964 72 958 b 100 904 94 934 100 920 b 83 861 100 888 94 873 b 42 843 72 849 58 843 b -1 861 25 843 11 849 b -18 904 -12 873 -18 888 m 233 904 b 250 946 233 920 239 934 b 292 964 261 958 275 964 b 334 946 308 964 322 958 b 351 904 346 934 351 920 b 334 861 351 888 346 873 b 292 843 322 849 308 843 b 250 861 275 843 261 849 b 233 904 239 873 233 888 "},"´":{"ha":333,"x_min":0,"x_max":0,"o":"m 160 783 l 94 783 l 235 983 l 335 983 "},"¸":{"ha":333,"x_min":0,"x_max":0,"o":"m 139 -108 b 194 -101 153 -104 171 -101 b 276 -127 225 -101 252 -110 b 311 -200 299 -144 311 -169 b 263 -290 311 -242 295 -272 b 150 -318 230 -309 193 -318 b 21 -290 104 -318 61 -309 l 39 -247 b 144 -269 69 -262 105 -269 b 213 -253 169 -269 191 -264 b 244 -201 234 -242 244 -225 b 161 -142 244 -162 217 -142 b 90 -156 135 -142 112 -146 l 69 -137 l 158 0 l 208 0 "},"¼":{"ha":1150,"x_min":0,"x_max":0,"o":"m 982 200 l 1069 200 l 1069 140 l 982 140 l 982 0 l 921 0 l 921 140 l 657 140 l 657 200 l 904 588 l 982 588 m 917 499 l 726 200 l 921 200 l 921 499 m 306 399 l 236 399 l 236 900 l 135 818 l 93 865 l 247 983 l 306 983 m 283 -42 l 225 -11 l 847 1025 l 904 994 "},"½":{"ha":1150,"x_min":0,"x_max":0,"o":"m 1067 0 l 694 0 l 694 64 l 922 299 b 994 438 969 347 994 393 b 965 509 994 467 984 491 b 889 536 945 527 919 536 b 817 510 861 536 837 527 b 775 436 796 492 782 468 l 708 447 b 772 556 718 493 739 529 b 889 597 806 584 844 597 b 1016 555 941 597 983 583 b 1065 439 1049 527 1065 488 b 1050 367 1065 414 1060 390 b 1017 311 1040 345 1029 326 b 960 249 1005 296 986 275 l 778 60 l 1067 60 m 283 -42 l 225 -11 l 847 1025 l 904 994 m 306 399 l 236 399 l 236 900 l 135 818 l 93 865 l 283 983 l 306 983 "},"¾":{"ha":1150,"x_min":0,"x_max":0,"o":"m 921 140 l 657 140 l 657 200 l 904 588 l 982 588 l 982 200 l 1069 200 l 1069 140 l 982 140 l 982 0 l 921 0 m 242 392 b 54 514 152 392 89 432 l 117 536 b 167 474 128 509 145 488 b 242 451 190 459 215 451 b 328 482 277 451 306 462 b 363 567 351 502 363 531 b 321 651 363 605 349 633 b 219 679 293 670 259 679 l 186 679 l 186 736 l 219 736 b 312 765 258 736 289 746 b 346 844 334 784 346 810 b 315 915 346 873 336 897 b 240 942 295 933 270 942 b 132 875 193 942 157 919 l 78 904 b 243 1000 116 968 171 1000 b 365 959 293 1000 334 986 b 411 844 396 932 411 894 b 318 711 411 779 380 734 l 319 710 b 400 658 354 700 381 683 b 429 565 419 632 429 601 b 376 438 429 511 411 468 b 242 392 340 407 295 392 m 921 200 l 921 499 l 917 499 l 726 200 m 283 -42 l 225 -11 l 847 1025 l 904 994 "},"Ā":{"ha":958,"x_min":0,"x_max":0,"o":"m 104 0 l 17 0 l 443 983 l 522 983 l 940 0 l 853 0 l 742 265 l 215 265 m 244 338 l 713 338 l 481 900 m 661 1119 l 303 1119 l 303 1181 l 661 1181 "},"ā":{"ha":732,"x_min":0,"x_max":0,"o":"m 303 -18 b 149 31 245 -18 194 -2 b 81 175 103 63 81 111 b 113 287 81 219 91 257 b 206 353 135 317 166 339 b 329 383 247 368 288 378 b 474 392 371 389 419 392 l 539 392 l 539 421 b 356 601 539 541 478 601 b 163 525 280 601 215 576 l 121 575 b 363 664 182 634 263 664 b 543 604 438 664 498 644 b 611 429 588 564 611 506 l 611 146 b 622 0 611 88 615 39 l 554 0 b 543 119 547 44 543 84 l 540 119 b 303 -18 489 28 410 -18 m 321 44 b 483 113 391 44 445 67 b 539 279 520 159 539 214 l 539 332 l 490 332 b 158 179 269 332 158 281 b 206 77 158 133 174 99 b 321 44 238 55 276 44 m 550 842 l 192 842 l 192 903 l 550 903 "},"Ă":{"ha":958,"x_min":0,"x_max":0,"o":"m 104 0 l 17 0 l 443 983 l 522 983 l 940 0 l 853 0 l 742 265 l 215 265 m 244 338 l 713 338 l 481 900 m 678 1257 b 617 1124 673 1200 653 1156 b 482 1076 582 1092 537 1076 b 347 1124 427 1076 382 1092 b 288 1257 312 1156 292 1200 l 339 1257 b 388 1169 345 1219 362 1190 b 482 1138 415 1148 446 1138 b 628 1257 564 1138 613 1177 "},"ă":{"ha":732,"x_min":0,"x_max":0,"o":"m 303 -18 b 149 31 245 -18 194 -2 b 81 175 103 63 81 111 b 113 287 81 219 91 257 b 206 353 135 317 166 339 b 329 383 247 368 288 378 b 474 392 371 389 419 392 l 539 392 l 539 421 b 356 601 539 541 478 601 b 163 525 280 601 215 576 l 121 575 b 363 664 182 634 263 664 b 543 604 438 664 498 644 b 611 429 588 564 611 506 l 611 146 b 622 0 611 88 615 39 l 554 0 b 543 119 547 44 543 84 l 540 119 b 303 -18 489 28 410 -18 m 321 44 b 483 113 391 44 445 67 b 539 279 520 159 539 214 l 539 332 l 490 332 b 158 179 269 332 158 281 b 206 77 158 133 174 99 b 321 44 238 55 276 44 m 569 979 b 509 847 565 923 545 878 b 374 799 473 815 428 799 b 239 847 319 799 274 815 b 179 979 204 878 184 923 l 231 979 b 280 891 237 941 253 912 b 374 860 306 870 338 860 b 519 979 456 860 505 900 "},"Ą":{"ha":958,"x_min":0,"x_max":0,"o":"m 443 983 l 522 983 l 940 0 b 908 -17 936 -5 925 -10 b 881 -32 892 -24 882 -29 b 796 -176 824 -91 796 -139 b 817 -230 796 -199 803 -216 b 872 -250 832 -243 850 -250 b 950 -217 904 -250 930 -239 l 972 -261 b 851 -310 940 -294 900 -310 b 765 -277 818 -310 789 -299 b 729 -193 741 -255 729 -227 b 853 0 729 -136 770 -71 l 742 265 l 215 265 l 104 0 l 17 0 m 244 338 l 713 338 l 481 900 "},"ą":{"ha":732,"x_min":0,"x_max":0,"o":"m 303 -18 b 149 31 245 -18 194 -2 b 81 175 103 63 81 111 b 467 392 81 319 209 392 l 539 392 l 539 421 b 356 601 539 541 478 601 b 163 525 280 601 215 576 l 121 575 b 363 664 182 634 263 664 b 543 604 438 664 498 644 b 611 429 588 564 611 506 l 611 146 b 622 0 611 88 615 39 l 611 0 b 524 -100 570 -42 541 -75 b 499 -176 507 -125 499 -150 b 519 -230 499 -199 506 -216 b 574 -250 533 -243 551 -250 b 651 -217 606 -250 632 -239 l 675 -261 b 553 -310 641 -294 600 -310 b 467 -277 519 -310 491 -299 b 431 -193 443 -255 431 -227 b 556 0 431 -136 472 -71 l 554 0 b 543 119 547 44 543 84 l 540 119 b 303 -18 489 28 410 -18 m 321 44 b 483 113 391 44 445 67 b 539 279 520 159 539 214 l 539 332 l 490 332 b 158 179 269 332 158 281 b 206 77 158 133 174 99 b 321 44 238 55 276 44 "},"Ć":{"ha":1001,"x_min":0,"x_max":0,"o":"m 950 146 b 592 -26 862 31 743 -26 b 228 120 444 -26 323 22 b 85 492 132 218 85 342 b 229 863 85 642 133 766 b 593 1010 325 961 447 1010 b 790 972 665 1010 731 997 b 932 867 850 947 897 912 l 875 814 b 756 904 845 851 806 881 b 594 939 707 927 653 939 b 285 809 467 939 364 896 b 168 492 207 722 168 617 b 285 174 168 367 207 261 b 594 44 364 88 467 44 b 896 189 718 44 818 93 m 588 1061 l 522 1061 l 663 1261 l 763 1261 "},"ć":{"ha":686,"x_min":0,"x_max":0,"o":"m 597 517 b 519 576 578 542 552 562 b 418 599 487 591 453 599 b 231 520 341 599 279 572 b 160 324 184 468 160 402 b 231 128 160 245 183 180 b 415 50 278 76 339 50 b 604 128 491 50 554 76 l 651 85 b 415 -18 592 16 513 -18 b 174 78 315 -18 235 14 b 82 324 113 142 82 224 b 176 568 82 423 113 504 b 417 664 238 632 319 664 b 647 563 517 664 594 630 m 419 783 l 354 783 l 494 983 l 594 983 "},"Ĉ":{"ha":1001,"x_min":0,"x_max":0,"o":"m 950 146 b 592 -26 862 31 743 -26 b 228 120 444 -26 323 22 b 85 492 132 218 85 342 b 229 863 85 642 133 766 b 593 1010 325 961 447 1010 b 790 972 665 1010 731 997 b 932 867 850 947 897 912 l 875 814 b 756 904 845 851 806 881 b 594 939 707 927 653 939 b 285 809 467 939 364 896 b 168 492 207 722 168 617 b 285 174 168 367 207 261 b 594 44 364 88 467 44 b 896 189 718 44 818 93 m 785 1061 l 711 1061 l 592 1221 l 472 1061 l 399 1061 l 547 1261 l 636 1261 "},"ĉ":{"ha":686,"x_min":0,"x_max":0,"o":"m 597 517 b 519 576 578 542 552 562 b 418 599 487 591 453 599 b 231 520 341 599 279 572 b 160 324 184 468 160 402 b 231 128 160 245 183 180 b 415 50 278 76 339 50 b 604 128 491 50 554 76 l 651 85 b 415 -18 592 16 513 -18 b 174 78 315 -18 235 14 b 82 324 113 142 82 224 b 176 568 82 423 113 504 b 417 664 238 632 319 664 b 647 563 517 664 594 630 m 610 783 l 536 783 l 417 943 l 297 783 l 224 783 l 372 983 l 461 983 "},"Ċ":{"ha":1001,"x_min":0,"x_max":0,"o":"m 950 146 b 592 -26 862 31 743 -26 b 228 120 444 -26 323 22 b 85 492 132 218 85 342 b 229 863 85 642 133 766 b 593 1010 325 961 447 1010 b 790 972 665 1010 731 997 b 932 867 850 947 897 912 l 875 814 b 756 904 845 851 806 881 b 594 939 707 927 653 939 b 285 809 467 939 364 896 b 168 492 207 722 168 617 b 285 174 168 367 207 261 b 594 44 364 88 467 44 b 896 189 718 44 818 93 m 642 1182 b 624 1142 642 1166 636 1153 b 585 1125 613 1131 600 1125 b 545 1142 570 1125 557 1131 b 528 1182 534 1153 528 1166 b 545 1222 528 1198 534 1211 b 585 1239 557 1233 570 1239 b 624 1222 600 1239 613 1233 b 642 1182 636 1211 642 1198 "},"ċ":{"ha":686,"x_min":0,"x_max":0,"o":"m 597 517 b 519 576 578 542 552 562 b 418 599 487 591 453 599 b 231 520 341 599 279 572 b 160 324 184 468 160 402 b 231 128 160 245 183 180 b 415 50 278 76 339 50 b 604 128 491 50 554 76 l 651 85 b 415 -18 592 16 513 -18 b 174 78 315 -18 235 14 b 82 324 113 142 82 224 b 176 568 82 423 113 504 b 417 664 238 632 319 664 b 647 563 517 664 594 630 m 467 904 b 449 864 467 888 461 875 b 410 847 438 853 425 847 b 370 864 395 847 382 853 b 353 904 359 875 353 888 b 370 944 353 920 359 933 b 410 961 382 956 395 961 b 449 944 425 961 438 956 b 467 904 461 933 467 920 "},"Č":{"ha":1001,"x_min":0,"x_max":0,"o":"m 950 146 b 592 -26 862 31 743 -26 b 228 120 444 -26 323 22 b 85 492 132 218 85 342 b 229 863 85 642 133 766 b 593 1010 325 961 447 1010 b 790 972 665 1010 731 997 b 932 867 850 947 897 912 l 875 814 b 756 904 845 851 806 881 b 594 939 707 927 653 939 b 285 809 467 939 364 896 b 168 492 207 722 168 617 b 285 174 168 367 207 261 b 594 44 364 88 467 44 b 896 189 718 44 818 93 m 636 1061 l 547 1061 l 399 1261 l 472 1261 l 592 1101 l 711 1261 l 785 1261 "},"č":{"ha":686,"x_min":0,"x_max":0,"o":"m 597 517 b 519 576 578 542 552 562 b 418 599 487 591 453 599 b 231 520 341 599 279 572 b 160 324 184 468 160 402 b 231 128 160 245 183 180 b 415 50 278 76 339 50 b 604 128 491 50 554 76 l 651 85 b 415 -18 592 16 513 -18 b 174 78 315 -18 235 14 b 82 324 113 142 82 224 b 176 568 82 423 113 504 b 417 664 238 632 319 664 b 647 563 517 664 594 630 m 461 783 l 372 783 l 224 983 l 297 983 l 417 824 l 536 983 l 610 983 "},"Ď":{"ha":1057,"x_min":0,"x_max":0,"o":"m 136 983 l 447 983 b 641 953 515 983 579 973 b 808 863 703 932 758 903 b 928 708 858 824 898 772 b 972 492 957 643 972 571 b 928 276 972 412 957 340 b 808 120 898 211 858 159 b 641 31 758 81 703 51 b 447 0 579 10 515 0 l 136 0 m 215 71 l 426 71 b 765 189 570 71 683 110 b 889 492 848 268 889 369 b 765 794 889 615 848 716 b 426 913 683 873 570 913 l 215 913 m 529 1061 l 440 1061 l 292 1261 l 365 1261 l 485 1101 l 604 1261 l 678 1261 "},"ď":{"ha":928,"x_min":0,"x_max":0,"o":"m 669 128 b 559 20 643 81 606 46 b 411 -18 512 -5 463 -18 b 173 79 314 -18 234 14 b 81 324 111 144 81 225 b 173 567 81 421 111 502 b 411 664 234 631 314 664 b 559 625 463 664 512 651 b 669 515 606 599 643 563 l 672 515 l 672 1050 l 749 1050 l 749 0 l 672 0 l 672 128 l 669 128 m 160 324 b 230 126 160 245 183 179 b 418 47 277 74 339 47 b 606 126 494 47 557 74 b 681 324 656 179 681 245 b 606 522 681 402 656 468 b 418 601 557 575 494 601 b 230 522 339 601 277 575 b 160 324 183 468 160 402 m 892 726 l 829 726 l 910 983 l 989 983 "},"Đ":{"ha":1057,"x_min":0,"x_max":0,"o":"m 128 486 l 24 486 l 24 547 l 128 547 l 128 983 l 440 983 b 634 953 508 983 572 973 b 801 863 696 932 751 903 b 919 708 850 824 890 772 b 964 492 949 643 964 571 b 919 276 964 412 949 340 b 801 120 890 211 850 159 b 634 31 751 81 696 51 b 440 0 572 10 508 0 l 128 0 m 207 72 l 415 72 b 756 190 560 72 673 111 b 879 492 838 268 879 369 b 756 794 879 616 838 717 b 415 911 674 872 561 911 l 207 911 l 207 547 l 569 547 l 569 486 l 207 486 "},"đ":{"ha":881,"x_min":0,"x_max":0,"o":"m 672 847 l 672 1050 l 749 1050 l 749 847 l 832 847 l 832 792 l 749 792 l 749 0 l 672 0 l 672 128 l 669 128 b 559 20 643 81 606 46 b 411 -18 512 -5 463 -18 b 173 79 314 -18 234 14 b 81 324 111 144 81 225 b 173 567 81 421 111 502 b 411 664 234 631 314 664 b 559 625 463 664 512 651 b 669 515 606 599 643 563 l 672 515 l 672 792 l 432 792 l 432 847 m 160 324 b 230 126 160 245 183 179 b 418 47 277 74 339 47 b 606 126 494 47 557 74 b 681 324 656 179 681 245 b 606 522 681 402 656 468 b 418 601 557 575 494 601 b 230 522 339 601 277 575 b 160 324 183 468 160 402 "},"Ē":{"ha":821,"x_min":0,"x_max":0,"o":"m 214 71 l 753 71 l 753 0 l 136 0 l 136 983 l 735 983 l 735 913 l 214 913 l 214 546 l 701 546 l 701 476 l 214 476 m 618 1119 l 260 1119 l 260 1181 l 618 1181 "},"ē":{"ha":788,"x_min":0,"x_max":0,"o":"m 632 368 b 566 537 629 438 607 494 b 400 601 525 580 469 601 b 231 528 331 601 275 577 b 160 368 186 480 163 426 m 408 -18 b 174 79 314 -18 236 14 b 81 325 112 144 81 226 b 173 567 81 422 111 503 b 401 664 234 632 311 664 b 627 573 499 664 574 634 b 707 347 680 512 707 437 l 707 308 l 158 308 b 231 124 160 237 184 176 b 411 47 277 73 337 47 b 633 157 497 47 571 84 l 683 117 b 408 -18 614 27 522 -18 m 586 842 l 228 842 l 228 903 l 586 903 "},"Ĕ":{"ha":821,"x_min":0,"x_max":0,"o":"m 214 71 l 753 71 l 753 0 l 136 0 l 136 983 l 735 983 l 735 913 l 214 913 l 214 546 l 701 546 l 701 476 l 214 476 m 633 1257 b 573 1124 629 1200 609 1156 b 438 1076 537 1092 492 1076 b 303 1124 383 1076 338 1092 b 243 1257 268 1156 248 1200 l 294 1257 b 344 1169 301 1219 317 1190 b 438 1138 370 1148 401 1138 b 583 1257 520 1138 569 1177 "},"ĕ":{"ha":788,"x_min":0,"x_max":0,"o":"m 632 368 b 566 537 629 438 607 494 b 400 601 525 580 469 601 b 231 528 331 601 275 577 b 160 368 186 480 163 426 m 408 -18 b 174 79 314 -18 236 14 b 81 325 112 144 81 226 b 173 567 81 422 111 503 b 401 664 234 632 311 664 b 627 573 499 664 574 634 b 707 347 680 512 707 437 l 707 308 l 158 308 b 231 124 160 237 184 176 b 411 47 277 73 337 47 b 633 157 497 47 571 84 l 683 117 b 408 -18 614 27 522 -18 m 601 979 b 541 847 597 923 577 878 b 406 799 505 815 460 799 b 271 847 351 799 306 815 b 211 979 236 878 216 923 l 263 979 b 312 891 269 941 285 912 b 406 860 338 870 369 860 b 551 979 488 860 537 900 "},"Ė":{"ha":821,"x_min":0,"x_max":0,"o":"m 214 71 l 753 71 l 753 0 l 136 0 l 136 983 l 735 983 l 735 913 l 214 913 l 214 546 l 701 546 l 701 476 l 214 476 m 501 1182 b 484 1142 501 1166 496 1153 b 444 1125 472 1131 459 1125 b 405 1142 430 1125 416 1131 b 388 1182 393 1153 388 1166 b 405 1222 388 1198 393 1211 b 444 1239 416 1233 430 1239 b 484 1222 459 1239 472 1233 b 501 1182 496 1211 501 1198 "},"ė":{"ha":788,"x_min":0,"x_max":0,"o":"m 632 368 b 566 537 629 438 607 494 b 400 601 525 580 469 601 b 231 528 331 601 275 577 b 160 368 186 480 163 426 m 408 -18 b 174 79 314 -18 236 14 b 81 325 112 144 81 226 b 173 567 81 422 111 503 b 401 664 234 632 311 664 b 627 573 499 664 574 634 b 707 347 680 512 707 437 l 707 308 l 158 308 b 231 124 160 237 184 176 b 411 47 277 73 337 47 b 633 157 497 47 571 84 l 683 117 b 408 -18 614 27 522 -18 m 463 904 b 445 864 463 888 457 875 b 406 847 434 853 420 847 b 366 864 391 847 378 853 b 349 904 354 875 349 888 b 366 944 349 920 354 933 b 406 961 378 956 391 961 b 445 944 420 961 434 956 b 463 904 457 933 463 920 "},"Ę":{"ha":821,"x_min":0,"x_max":0,"o":"m 794 -261 b 672 -310 760 -294 719 -310 b 586 -277 639 -310 610 -299 b 550 -193 562 -255 550 -227 b 675 0 550 -136 592 -71 l 136 0 l 136 983 l 735 983 l 735 913 l 214 913 l 214 546 l 701 546 l 701 476 l 214 476 l 214 71 l 753 71 l 753 0 l 731 0 b 644 -100 690 -42 661 -75 b 618 -176 627 -125 618 -150 b 639 -230 618 -199 625 -216 b 693 -250 653 -243 671 -250 b 771 -217 725 -250 750 -239 "},"ę":{"ha":788,"x_min":0,"x_max":0,"o":"m 433 -310 b 347 -277 400 -310 371 -299 b 311 -193 323 -255 311 -227 b 415 -17 311 -139 346 -81 l 385 -17 b 166 88 296 -10 223 25 b 81 325 109 152 81 231 b 173 567 81 422 111 503 b 401 664 234 632 311 664 b 627 573 499 664 574 634 b 707 347 680 512 707 437 l 707 308 l 158 308 b 231 124 160 237 184 176 b 411 47 277 73 337 47 b 537 78 457 47 499 58 b 628 161 574 99 605 127 l 683 117 b 481 -11 630 47 562 5 b 403 -103 444 -48 419 -79 b 379 -176 387 -127 379 -151 b 401 -230 379 -199 386 -216 b 454 -250 415 -243 433 -250 b 533 -217 487 -250 513 -239 l 556 -261 b 433 -310 521 -294 481 -310 m 632 368 b 566 537 629 438 607 494 b 400 601 525 580 469 601 b 231 528 331 601 275 577 b 160 368 186 480 163 426 "},"Ě":{"ha":821,"x_min":0,"x_max":0,"o":"m 214 71 l 753 71 l 753 0 l 136 0 l 136 983 l 735 983 l 735 913 l 214 913 l 214 546 l 701 546 l 701 476 l 214 476 m 483 1061 l 394 1061 l 246 1261 l 319 1261 l 439 1101 l 558 1261 l 632 1261 "},"ě":{"ha":788,"x_min":0,"x_max":0,"o":"m 632 368 b 566 537 629 438 607 494 b 400 601 525 580 469 601 b 231 528 331 601 275 577 b 160 368 186 480 163 426 m 408 -18 b 174 79 314 -18 236 14 b 81 325 112 144 81 226 b 173 567 81 422 111 503 b 401 664 234 632 311 664 b 627 573 499 664 574 634 b 707 347 680 512 707 437 l 707 308 l 158 308 b 231 124 160 237 184 176 b 411 47 277 73 337 47 b 633 157 497 47 571 84 l 683 117 b 408 -18 614 27 522 -18 m 449 783 l 360 783 l 211 983 l 285 983 l 404 824 l 524 983 l 597 983 "},"Ĝ":{"ha":1089,"x_min":0,"x_max":0,"o":"m 890 828 b 597 939 816 902 719 939 b 286 810 469 939 365 896 b 168 493 207 724 168 618 b 286 175 168 368 207 262 b 600 44 365 88 469 44 b 882 111 713 44 807 67 l 882 436 l 646 436 l 646 506 l 961 506 l 961 67 b 599 -26 857 5 737 -26 b 229 121 449 -26 325 23 b 85 493 133 219 85 343 b 230 863 85 642 133 766 b 597 1010 327 961 449 1010 b 940 882 739 1010 853 967 m 792 1061 l 718 1061 l 599 1221 l 479 1061 l 406 1061 l 554 1261 l 643 1261 "},"ĝ":{"ha":875,"x_min":0,"x_max":0,"o":"m 151 -158 b 410 -271 222 -233 308 -271 b 610 -191 501 -271 568 -244 b 672 15 651 -138 672 -69 l 672 142 l 669 142 b 562 33 645 95 609 59 b 411 -6 514 7 464 -6 b 172 88 313 -6 233 26 b 81 326 111 151 81 230 b 173 567 81 422 111 502 b 411 664 234 631 314 664 b 560 625 464 664 514 651 b 669 515 607 599 644 563 l 672 515 l 672 647 l 749 647 l 749 15 b 733 -109 749 -29 743 -71 b 681 -221 722 -147 705 -185 b 574 -306 656 -257 621 -285 b 407 -337 528 -327 472 -337 b 103 -210 284 -337 182 -295 m 160 329 b 230 137 160 253 183 189 b 418 58 277 84 339 58 b 606 135 494 58 557 84 b 681 329 656 187 681 251 b 606 521 681 403 656 467 b 418 601 556 575 493 601 b 230 522 339 601 277 575 b 160 329 183 469 160 405 m 619 783 l 546 783 l 426 943 l 307 783 l 233 783 l 382 983 l 471 983 "},"Ğ":{"ha":1089,"x_min":0,"x_max":0,"o":"m 890 828 b 597 939 816 902 719 939 b 286 810 469 939 365 896 b 168 493 207 724 168 618 b 286 175 168 368 207 262 b 600 44 365 88 469 44 b 882 111 713 44 807 67 l 882 436 l 646 436 l 646 506 l 961 506 l 961 67 b 599 -26 857 5 737 -26 b 229 121 449 -26 325 23 b 85 493 133 219 85 343 b 230 863 85 642 133 766 b 597 1010 327 961 449 1010 b 940 882 739 1010 853 967 m 792 1257 b 731 1124 787 1200 767 1156 b 596 1076 696 1092 650 1076 b 461 1124 541 1076 496 1092 b 401 1257 426 1156 406 1200 l 453 1257 b 502 1169 459 1219 476 1190 b 596 1138 528 1148 560 1138 b 742 1257 678 1138 727 1177 "},"ğ":{"ha":875,"x_min":0,"x_max":0,"o":"m 151 -158 b 410 -271 222 -233 308 -271 b 610 -191 501 -271 568 -244 b 672 15 651 -138 672 -69 l 672 142 l 669 142 b 562 33 645 95 609 59 b 411 -6 514 7 464 -6 b 172 88 313 -6 233 26 b 81 326 111 151 81 230 b 173 567 81 422 111 502 b 411 664 234 631 314 664 b 560 625 464 664 514 651 b 669 515 607 599 644 563 l 672 515 l 672 647 l 749 647 l 749 15 b 733 -109 749 -29 743 -71 b 681 -221 722 -147 705 -185 b 574 -306 656 -257 621 -285 b 407 -337 528 -327 472 -337 b 103 -210 284 -337 182 -295 m 160 329 b 230 137 160 253 183 189 b 418 58 277 84 339 58 b 606 135 494 58 557 84 b 681 329 656 187 681 251 b 606 521 681 403 656 467 b 418 601 556 575 493 601 b 230 522 339 601 277 575 b 160 329 183 469 160 405 m 624 979 b 563 847 619 923 599 878 b 428 799 528 815 482 799 b 293 847 373 799 328 815 b 233 979 258 878 238 923 l 285 979 b 334 891 291 941 308 912 b 428 860 360 870 392 860 b 574 979 510 860 559 900 "},"Ġ":{"ha":1089,"x_min":0,"x_max":0,"o":"m 890 828 b 597 939 816 902 719 939 b 286 810 469 939 365 896 b 168 493 207 724 168 618 b 286 175 168 368 207 262 b 600 44 365 88 469 44 b 882 111 713 44 807 67 l 882 436 l 646 436 l 646 506 l 961 506 l 961 67 b 599 -26 857 5 737 -26 b 229 121 449 -26 325 23 b 85 493 133 219 85 343 b 230 863 85 642 133 766 b 597 1010 327 961 449 1010 b 940 882 739 1010 853 967 m 651 1182 b 634 1142 651 1166 646 1153 b 594 1125 622 1131 609 1125 b 555 1142 580 1125 566 1131 b 538 1182 543 1153 538 1166 b 555 1222 538 1198 543 1211 b 594 1239 566 1233 580 1239 b 634 1222 609 1239 622 1233 b 651 1182 646 1211 651 1198 "},"ġ":{"ha":875,"x_min":0,"x_max":0,"o":"m 151 -158 b 410 -271 222 -233 308 -271 b 610 -191 501 -271 568 -244 b 672 15 651 -138 672 -69 l 672 142 l 669 142 b 562 33 645 95 609 59 b 411 -6 514 7 464 -6 b 172 88 313 -6 233 26 b 81 326 111 151 81 230 b 173 567 81 422 111 502 b 411 664 234 631 314 664 b 560 625 464 664 514 651 b 669 515 607 599 644 563 l 672 515 l 672 647 l 749 647 l 749 15 b 733 -109 749 -29 743 -71 b 681 -221 722 -147 705 -185 b 574 -306 656 -257 621 -285 b 407 -337 528 -327 472 -337 b 103 -210 284 -337 182 -295 m 160 329 b 230 137 160 253 183 189 b 418 58 277 84 339 58 b 606 135 494 58 557 84 b 681 329 656 187 681 251 b 606 521 681 403 656 467 b 418 601 556 575 493 601 b 230 522 339 601 277 575 b 160 329 183 469 160 405 m 483 904 b 466 864 483 888 478 875 b 426 847 454 853 441 847 b 387 864 412 847 398 853 b 369 904 375 875 369 888 b 387 944 369 920 375 933 b 426 961 398 956 412 961 b 466 944 441 961 454 956 b 483 904 478 933 483 920 "},"Ģ":{"ha":1093,"x_min":0,"x_max":0,"o":"m 890 828 b 597 939 816 902 719 939 b 286 810 469 939 365 896 b 168 493 207 724 168 618 b 286 175 168 368 207 262 b 600 44 365 88 469 44 b 882 111 713 44 807 67 l 882 436 l 646 436 l 646 506 l 961 506 l 961 67 b 599 -26 857 5 737 -26 b 229 121 449 -26 325 23 b 85 493 133 219 85 343 b 230 863 85 642 133 766 b 597 1010 327 961 449 1010 b 940 882 739 1010 853 967 m 557 -319 l 494 -319 l 576 -62 l 656 -62 "},"ģ":{"ha":875,"x_min":0,"x_max":0,"o":"m 151 -158 b 410 -271 222 -233 308 -271 b 610 -191 501 -271 568 -244 b 672 15 651 -138 672 -69 l 672 142 l 669 142 b 562 33 645 95 609 59 b 411 -6 514 7 464 -6 b 172 88 313 -6 233 26 b 81 326 111 151 81 230 b 173 567 81 422 111 502 b 411 664 234 631 314 664 b 560 625 464 664 514 651 b 669 515 607 599 644 563 l 672 515 l 672 647 l 749 647 l 749 15 b 733 -109 749 -29 743 -71 b 681 -221 722 -147 705 -185 b 574 -306 656 -257 621 -285 b 407 -337 528 -327 472 -337 b 103 -210 284 -337 182 -295 m 160 329 b 230 137 160 253 183 189 b 418 58 277 84 339 58 b 606 135 494 58 557 84 b 681 329 656 187 681 251 b 606 521 681 403 656 467 b 418 601 556 575 493 601 b 230 522 339 601 277 575 b 160 329 183 469 160 405 m 488 1040 l 550 1040 l 468 783 l 389 783 "},"Ĥ":{"ha":1003,"x_min":0,"x_max":0,"o":"m 136 983 l 215 983 l 215 547 l 789 547 l 789 983 l 868 983 l 868 0 l 789 0 l 789 474 l 215 474 l 215 0 l 136 0 m 693 1061 l 619 1061 l 500 1221 l 381 1061 l 307 1061 l 456 1261 l 544 1261 "},"ĥ":{"ha":804,"x_min":0,"x_max":0,"o":"m 210 521 b 303 627 231 567 262 603 b 438 664 344 652 388 664 b 620 590 519 664 580 639 b 681 394 660 540 681 475 l 681 0 l 606 0 l 606 367 b 421 600 606 522 544 600 b 269 529 362 600 311 576 b 207 329 228 482 207 415 l 207 0 l 132 0 l 132 1050 l 207 1050 l 207 521 m 590 1106 l 517 1106 l 397 1265 l 278 1106 l 204 1106 l 353 1306 l 442 1306 "},"Ħ":{"ha":1003,"x_min":0,"x_max":0,"o":"m 136 983 l 215 983 l 215 750 l 789 750 l 789 983 l 868 983 l 868 0 l 789 0 l 789 474 l 215 474 l 215 0 l 136 0 m 789 547 l 789 694 l 215 694 l 215 547 "},"ħ":{"ha":804,"x_min":0,"x_max":0,"o":"m 132 847 l 132 1050 l 207 1050 l 207 847 l 449 847 l 449 792 l 207 792 l 207 521 l 210 521 b 300 625 227 564 257 599 b 438 664 343 651 388 664 b 620 590 519 664 580 639 b 681 394 660 540 681 475 l 681 0 l 606 0 l 606 367 b 421 601 606 523 544 601 b 269 530 362 601 311 578 b 207 329 228 482 207 415 l 207 0 l 132 0 l 132 792 l 50 792 l 50 847 "},"Ĩ":{"ha":350,"x_min":0,"x_max":0,"o":"m 215 0 l 136 0 l 136 983 l 215 983 m -29 1085 b 85 1215 -15 1172 23 1215 b 183 1183 105 1215 138 1204 b 272 1150 229 1161 258 1150 b 336 1218 305 1150 326 1173 l 385 1218 b 272 1089 371 1132 333 1089 b 174 1122 251 1089 218 1100 b 85 1154 129 1143 100 1154 b 19 1085 51 1154 30 1131 "},"ĩ":{"ha":338,"x_min":0,"x_max":0,"o":"m 207 0 l 131 0 l 131 647 l 207 647 m -35 807 b 79 938 -21 894 17 938 b 178 905 100 938 132 927 b 267 872 223 883 253 872 b 331 940 299 872 320 895 l 379 940 b 267 811 365 854 328 811 b 168 844 245 811 213 822 b 79 876 124 866 94 876 b 14 807 46 876 24 853 "},"Ī":{"ha":350,"x_min":0,"x_max":0,"o":"m 215 0 l 136 0 l 136 983 l 215 983 m 356 1119 l -3 1119 l -3 1181 l 356 1181 "},"ī":{"ha":338,"x_min":0,"x_max":0,"o":"m 207 0 l 131 0 l 131 647 l 207 647 m 349 842 l -10 842 l -10 903 l 349 903 "},"Ĭ":{"ha":350,"x_min":0,"x_max":0,"o":"m 215 0 l 136 0 l 136 983 l 215 983 m 371 1257 b 310 1124 366 1200 346 1156 b 175 1076 275 1092 230 1076 b 40 1124 120 1076 75 1092 b -19 1257 5 1156 -15 1200 l 32 1257 b 81 1169 38 1219 55 1190 b 175 1138 108 1148 139 1138 b 321 1257 257 1138 306 1177 "},"ĭ":{"ha":338,"x_min":0,"x_max":0,"o":"m 207 0 l 131 0 l 131 647 l 207 647 m 364 979 b 303 847 359 923 339 878 b 168 799 268 815 223 799 b 33 847 113 799 69 815 b -26 979 -2 878 -22 923 l 25 979 b 74 891 31 941 48 912 b 168 860 101 870 132 860 b 314 979 250 860 299 900 "},"Į":{"ha":350,"x_min":0,"x_max":0,"o":"m 150 -310 b 64 -277 117 -310 88 -299 b 28 -193 40 -255 28 -227 b 153 0 28 -136 69 -71 l 136 0 l 136 983 l 215 983 l 215 0 b 147 -69 183 -32 160 -56 b 112 -119 134 -83 122 -100 b 96 -176 101 -139 96 -158 b 117 -230 96 -199 103 -216 b 171 -250 132 -243 150 -250 b 250 -217 203 -250 230 -239 l 272 -261 b 150 -310 238 -294 197 -310 "},"į":{"ha":338,"x_min":0,"x_max":0,"o":"m 144 -310 b 58 -277 111 -310 82 -299 b 22 -193 34 -255 22 -227 b 146 -1 22 -135 63 -71 l 131 0 l 131 647 l 207 647 l 207 0 l 203 0 b 115 -99 161 -42 132 -75 b 89 -176 97 -124 89 -150 b 110 -230 89 -199 96 -216 b 165 -250 125 -243 143 -250 b 243 -217 197 -250 223 -239 l 265 -261 b 144 -310 233 -294 193 -310 m 168 847 b 129 864 153 847 140 853 b 113 904 118 875 113 888 b 129 944 113 920 118 933 b 168 961 140 956 153 961 b 208 944 183 961 196 956 b 225 904 219 933 225 920 b 208 864 225 888 219 875 b 168 847 196 853 183 847 "},"İ":{"ha":350,"x_min":0,"x_max":0,"o":"m 215 0 l 136 0 l 136 983 l 215 983 m 233 1182 b 216 1142 233 1166 228 1153 b 176 1125 204 1131 191 1125 b 137 1142 162 1125 148 1131 b 119 1182 125 1153 119 1166 b 137 1222 119 1198 125 1211 b 176 1239 148 1233 162 1239 b 216 1222 191 1239 204 1233 b 233 1182 228 1211 233 1198 "},"ı":{"ha":338,"x_min":0,"x_max":0,"o":"m 207 0 l 131 0 l 131 647 l 207 647 "},"Ĳ":{"ha":1008,"x_min":0,"x_max":0,"o":"m 215 0 l 136 0 l 136 983 l 215 983 m 439 182 b 503 83 451 141 472 108 b 614 44 533 57 570 44 b 801 285 739 44 801 125 l 801 983 l 881 983 l 881 279 b 867 170 881 240 876 204 b 826 74 859 136 845 104 b 746 1 808 43 781 19 b 621 -25 711 -16 669 -25 b 456 27 556 -25 501 -8 b 367 161 410 62 381 106 "},"ĳ":{"ha":674,"x_min":0,"x_max":0,"o":"m 314 -262 b 365 -269 332 -267 350 -269 b 448 -231 407 -269 434 -257 b 468 -121 461 -206 468 -169 l 468 647 l 543 647 l 543 -131 b 504 -279 543 -194 530 -243 b 367 -333 478 -315 432 -333 b 303 -325 340 -333 319 -331 m 131 647 l 207 647 l 207 0 l 131 0 m 168 847 b 129 864 153 847 140 853 b 113 904 118 875 113 888 b 129 944 113 920 118 933 b 168 961 140 956 153 961 b 208 944 183 961 196 956 b 225 904 219 933 225 920 b 208 864 225 888 219 875 b 168 847 196 853 183 847 m 506 847 b 466 864 491 847 478 853 b 449 904 454 875 449 888 b 466 944 449 920 454 933 b 506 961 478 956 491 961 b 544 944 520 961 533 956 b 561 904 556 933 561 920 b 544 864 561 888 556 875 b 506 847 533 853 520 847 "},"Ĵ":{"ha":678,"x_min":0,"x_max":0,"o":"m 110 182 b 172 83 121 141 142 108 b 283 44 203 57 240 44 b 471 285 408 44 471 125 l 471 983 l 550 983 l 550 279 b 538 170 550 240 546 204 b 497 74 529 136 516 104 b 416 1 478 43 451 19 b 292 -25 381 -16 340 -25 b 125 27 226 -25 170 -8 b 36 161 80 62 50 106 m 701 1061 l 628 1061 l 508 1221 l 389 1061 l 315 1061 l 464 1261 l 553 1261 "},"ĵ":{"ha":339,"x_min":0,"x_max":0,"o":"m -22 -262 b 31 -269 -4 -267 14 -269 b 112 -231 71 -269 98 -257 b 132 -121 125 -206 132 -169 l 132 647 l 207 647 l 207 -131 b 168 -279 207 -194 194 -243 b 32 -333 142 -315 97 -333 b -33 -325 4 -333 -18 -331 m 361 783 l 288 783 l 168 943 l 49 783 l -25 783 l 124 983 l 213 983 "},"Ķ":{"ha":846,"x_min":0,"x_max":0,"o":"m 215 539 l 692 983 l 806 983 l 308 536 l 832 0 l 717 0 l 215 525 l 215 0 l 136 0 l 136 983 l 215 983 m 414 -319 l 351 -319 l 433 -62 l 513 -62 "},"ķ":{"ha":682,"x_min":0,"x_max":0,"o":"m 207 353 l 211 353 l 519 647 l 628 647 l 297 350 l 663 0 l 551 0 l 211 340 l 207 340 l 207 0 l 132 0 l 132 1050 l 207 1050 m 332 -318 l 269 -318 l 351 -61 l 431 -61 "},"ĸ":{"ha":682,"x_min":0,"x_max":0,"o":"m 207 353 l 211 353 l 519 647 l 628 647 l 297 350 l 663 0 l 551 0 l 211 340 l 207 340 l 207 0 l 132 0 l 132 647 l 207 647 "},"Ĺ":{"ha":703,"x_min":0,"x_max":0,"o":"m 215 71 l 682 71 l 682 0 l 136 0 l 136 983 l 215 983 m 207 1061 l 142 1061 l 282 1261 l 382 1261 "},"ĺ":{"ha":339,"x_min":0,"x_max":0,"o":"m 207 0 l 132 0 l 132 1050 l 207 1050 m 199 1100 l 133 1100 l 274 1300 l 374 1300 "},"Ļ":{"ha":703,"x_min":0,"x_max":0,"o":"m 215 71 l 682 71 l 682 0 l 136 0 l 136 983 l 215 983 m 368 -319 l 306 -319 l 386 -62 l 465 -62 "},"ļ":{"ha":339,"x_min":0,"x_max":0,"o":"m 207 0 l 132 0 l 132 1050 l 207 1050 m 133 -318 l 71 -318 l 153 -61 l 232 -61 "},"Ľ":{"ha":703,"x_min":0,"x_max":0,"o":"m 215 71 l 682 71 l 682 0 l 136 0 l 136 983 l 215 983 m 386 726 l 324 726 l 406 983 l 483 983 "},"ľ":{"ha":386,"x_min":0,"x_max":0,"o":"m 207 0 l 132 0 l 132 1050 l 207 1050 m 349 726 l 286 726 l 367 983 l 446 983 "},"Ŀ":{"ha":703,"x_min":0,"x_max":0,"o":"m 215 71 l 682 71 l 682 0 l 136 0 l 136 983 l 215 983 m 493 599 b 476 558 493 583 488 569 b 438 542 465 547 452 542 b 398 558 423 542 409 547 b 381 599 386 569 381 583 b 398 639 381 614 386 628 b 438 656 409 650 423 656 b 476 639 452 656 465 650 b 493 599 488 628 493 614 "},"ŀ":{"ha":404,"x_min":0,"x_max":0,"o":"m 207 0 l 132 0 l 132 1050 l 207 1050 m 401 640 b 384 600 401 625 396 611 b 344 583 372 589 359 583 b 305 600 330 583 316 589 b 288 640 293 611 288 625 b 305 681 288 656 293 669 b 344 697 316 692 330 697 b 384 681 359 697 372 692 b 401 640 396 669 401 656 "},"Ł":{"ha":703,"x_min":0,"x_max":0,"o":"m 215 478 l 511 736 l 511 658 l 215 399 l 215 71 l 682 71 l 682 0 l 136 0 l 136 343 l 29 250 l 29 329 l 136 422 l 136 983 l 215 983 "},"ł":{"ha":339,"x_min":0,"x_max":0,"o":"m 207 614 l 317 722 l 317 642 l 207 533 l 207 0 l 133 0 l 133 472 l 28 367 l 28 449 l 133 554 l 133 1050 l 207 1050 "},"Ń":{"ha":1067,"x_min":0,"x_max":0,"o":"m 849 114 l 851 114 l 851 983 l 931 983 l 931 0 l 831 0 l 218 875 l 215 875 l 215 0 l 136 0 l 136 983 l 236 983 m 553 1061 l 488 1061 l 628 1261 l 728 1261 "},"ń":{"ha":803,"x_min":0,"x_max":0,"o":"m 197 647 b 203 518 201 599 203 556 l 206 518 b 299 624 224 562 255 597 b 438 664 342 650 388 664 b 619 590 518 664 578 639 b 679 394 659 541 679 476 l 679 0 l 604 0 l 604 367 b 421 600 604 522 543 600 b 269 529 361 600 310 576 b 207 329 228 482 207 415 l 207 0 l 131 0 l 131 499 b 125 647 131 560 129 609 m 417 783 l 351 783 l 492 983 l 592 983 "},"Ņ":{"ha":1067,"x_min":0,"x_max":0,"o":"m 849 114 l 851 114 l 851 983 l 931 983 l 931 0 l 831 0 l 218 875 l 215 875 l 215 0 l 136 0 l 136 983 l 236 983 m 483 -319 l 419 -319 l 501 -62 l 581 -62 "},"ņ":{"ha":803,"x_min":0,"x_max":0,"o":"m 197 647 b 203 518 201 599 203 556 l 206 518 b 299 624 224 562 255 597 b 438 664 342 650 388 664 b 619 590 518 664 578 639 b 679 394 659 541 679 476 l 679 0 l 604 0 l 604 367 b 421 600 604 522 543 600 b 269 529 361 600 310 576 b 207 329 228 482 207 415 l 207 0 l 131 0 l 131 499 b 125 647 131 560 129 609 m 365 -319 l 303 -319 l 385 -62 l 464 -62 "},"Ň":{"ha":1067,"x_min":0,"x_max":0,"o":"m 849 114 l 851 114 l 851 983 l 931 983 l 931 0 l 831 0 l 218 875 l 215 875 l 215 0 l 136 0 l 136 983 l 236 983 m 578 1061 l 489 1061 l 340 1261 l 414 1261 l 533 1101 l 653 1261 l 726 1261 "},"ň":{"ha":803,"x_min":0,"x_max":0,"o":"m 197 647 b 203 518 201 599 203 556 l 206 518 b 299 624 224 562 255 597 b 438 664 342 650 388 664 b 619 590 518 664 578 639 b 679 394 659 541 679 476 l 679 0 l 604 0 l 604 367 b 421 600 604 522 543 600 b 269 529 361 600 310 576 b 207 329 228 482 207 415 l 207 0 l 131 0 l 131 499 b 125 647 131 560 129 609 m 451 783 l 363 783 l 214 983 l 288 983 l 407 824 l 526 983 l 600 983 "},"ŉ":{"ha":803,"x_min":0,"x_max":0,"o":"m 197 647 b 203 518 201 599 203 556 l 206 518 b 299 624 224 562 255 597 b 438 664 342 650 388 664 b 619 590 518 664 578 639 b 679 394 659 541 679 476 l 679 0 l 604 0 l 604 367 b 421 600 604 522 543 600 b 269 529 361 600 310 576 b 207 329 228 482 207 415 l 207 0 l 131 0 l 131 499 b 125 647 131 560 129 609 m 60 774 l -3 774 l 78 1031 l 157 1031 "},"Ŋ":{"ha":1067,"x_min":0,"x_max":0,"o":"m 136 983 l 236 983 l 849 133 l 851 133 l 851 983 l 931 983 l 931 -131 b 892 -279 931 -194 918 -243 b 756 -333 866 -315 820 -333 b 690 -325 728 -333 706 -331 l 701 -262 b 754 -269 720 -267 738 -269 b 835 -231 795 -269 822 -257 b 856 -121 849 -206 856 -169 l 856 -14 l 218 875 l 215 875 l 215 0 l 136 0 "},"ŋ":{"ha":803,"x_min":0,"x_max":0,"o":"m 450 -262 b 503 -269 469 -267 486 -269 b 584 -231 544 -269 571 -257 b 604 -121 597 -206 604 -169 l 604 367 b 421 601 604 523 543 601 b 269 530 361 601 310 578 b 207 329 228 482 207 415 l 207 0 l 131 0 l 131 499 b 125 647 131 560 129 609 l 197 647 b 203 518 201 599 203 556 l 206 518 b 299 624 224 562 255 597 b 438 664 342 650 388 664 b 619 590 518 664 578 639 b 679 394 659 541 679 476 l 679 -131 b 640 -279 679 -194 666 -243 b 504 -333 614 -315 569 -333 b 439 -325 476 -333 455 -331 "},"Ō":{"ha":1190,"x_min":0,"x_max":0,"o":"m 1106 492 b 960 120 1106 342 1057 218 b 594 -26 864 22 742 -26 b 230 120 448 -26 327 22 b 85 492 133 218 85 342 b 230 863 85 642 133 766 b 594 1010 327 961 448 1010 b 960 863 742 1010 864 961 b 1106 492 1057 766 1106 642 m 1022 492 b 903 809 1022 617 983 722 b 594 939 824 896 721 939 b 286 809 468 939 365 896 b 168 492 207 722 168 617 b 286 174 168 367 207 261 b 594 44 365 88 468 44 b 904 174 722 44 825 88 b 1022 492 983 261 1022 367 m 778 1119 l 419 1119 l 419 1181 l 778 1181 "},"ō":{"ha":846,"x_min":0,"x_max":0,"o":"m 764 324 b 668 79 764 225 732 144 b 422 -18 604 14 522 -18 b 178 79 323 -18 242 14 b 82 324 114 144 82 225 b 177 568 82 423 114 504 b 422 664 241 632 322 664 b 668 568 522 664 604 632 b 764 324 732 504 764 423 m 686 324 b 614 520 686 402 662 468 b 422 599 566 572 502 599 b 232 520 344 599 280 572 b 160 324 184 468 160 402 b 232 128 160 245 184 180 b 422 50 280 76 344 50 b 614 128 502 50 566 76 b 686 324 662 180 686 245 m 603 842 l 244 842 l 244 903 l 603 903 "},"Ŏ":{"ha":1190,"x_min":0,"x_max":0,"o":"m 1106 492 b 960 120 1106 342 1057 218 b 594 -26 864 22 742 -26 b 230 120 448 -26 327 22 b 85 492 133 218 85 342 b 230 863 85 642 133 766 b 594 1010 327 961 448 1010 b 960 863 742 1010 864 961 b 1106 492 1057 766 1106 642 m 1022 492 b 903 809 1022 617 983 722 b 594 939 824 896 721 939 b 286 809 468 939 365 896 b 168 492 207 722 168 617 b 286 174 168 367 207 261 b 594 44 365 88 468 44 b 904 174 722 44 825 88 b 1022 492 983 261 1022 367 m 793 1257 b 733 1124 788 1200 768 1156 b 597 1076 697 1092 652 1076 b 463 1124 543 1076 498 1092 b 403 1257 427 1156 407 1200 l 454 1257 b 503 1169 461 1219 477 1190 b 597 1138 530 1148 561 1138 b 743 1257 680 1138 728 1177 "},"ŏ":{"ha":846,"x_min":0,"x_max":0,"o":"m 764 324 b 668 79 764 225 732 144 b 422 -18 604 14 522 -18 b 178 79 323 -18 242 14 b 82 324 114 144 82 225 b 177 568 82 423 114 504 b 422 664 241 632 322 664 b 668 568 522 664 604 632 b 764 324 732 504 764 423 m 686 324 b 614 520 686 402 662 468 b 422 599 566 572 502 599 b 232 520 344 599 280 572 b 160 324 184 468 160 402 b 232 128 160 245 184 180 b 422 50 280 76 344 50 b 614 128 502 50 566 76 b 686 324 662 180 686 245 m 619 979 b 559 847 615 923 595 878 b 424 799 523 815 478 799 b 289 847 369 799 324 815 b 229 979 254 878 234 923 l 281 979 b 330 891 287 941 303 912 b 424 860 356 870 388 860 b 569 979 506 860 555 900 "},"Ő":{"ha":1190,"x_min":0,"x_max":0,"o":"m 1106 492 b 960 120 1106 342 1057 218 b 594 -26 864 22 742 -26 b 230 120 448 -26 327 22 b 85 492 133 218 85 342 b 230 863 85 642 133 766 b 594 1010 327 961 448 1010 b 960 863 742 1010 864 961 b 1106 492 1057 766 1106 642 m 1022 492 b 903 809 1022 617 983 722 b 594 939 824 896 721 939 b 286 809 468 939 365 896 b 168 492 207 722 168 617 b 286 174 168 367 207 261 b 594 44 365 88 468 44 b 904 174 722 44 825 88 b 1022 492 983 261 1022 367 m 593 1261 l 693 1261 l 518 1061 l 453 1061 m 807 1261 l 907 1261 l 732 1061 l 667 1061 "},"ő":{"ha":846,"x_min":0,"x_max":0,"o":"m 764 324 b 668 79 764 225 732 144 b 422 -18 604 14 522 -18 b 178 79 323 -18 242 14 b 82 324 114 144 82 225 b 177 568 82 423 114 504 b 422 664 241 632 322 664 b 668 568 522 664 604 632 b 764 324 732 504 764 423 m 686 324 b 614 520 686 402 662 468 b 422 599 566 572 502 599 b 232 520 344 599 280 572 b 160 324 184 468 160 402 b 232 128 160 245 184 180 b 422 50 280 76 344 50 b 614 128 502 50 566 76 b 686 324 662 180 686 245 m 426 983 l 526 983 l 351 783 l 286 783 m 640 983 l 740 983 l 565 783 l 500 783 "},"Ŕ":{"ha":831,"x_min":0,"x_max":0,"o":"m 215 0 l 136 0 l 136 983 l 419 983 b 747 726 638 983 747 898 b 672 550 747 652 722 594 b 486 476 622 506 560 482 l 776 0 l 681 0 l 400 471 l 215 471 m 215 539 l 408 539 b 601 587 492 539 556 555 b 668 726 646 619 668 665 b 407 915 668 852 581 915 l 215 915 m 389 1061 l 324 1061 l 464 1261 l 564 1261 "},"ŕ":{"ha":482,"x_min":0,"x_max":0,"o":"m 131 499 b 125 647 131 560 129 609 l 197 647 b 203 518 201 599 203 556 l 206 518 b 290 625 223 563 251 599 b 418 664 328 651 371 664 b 469 658 441 664 458 662 l 461 589 b 408 594 448 593 431 594 b 263 524 348 594 300 571 b 207 332 225 476 207 413 l 207 0 l 131 0 l 131 499 m 231 783 l 165 783 l 306 983 l 406 983 "},"Ŗ":{"ha":831,"x_min":0,"x_max":0,"o":"m 215 0 l 136 0 l 136 983 l 419 983 b 747 726 638 983 747 898 b 672 550 747 652 722 594 b 486 476 622 506 560 482 l 776 0 l 681 0 l 400 471 l 215 471 m 215 539 l 408 539 b 601 587 492 539 556 555 b 668 726 646 619 668 665 b 407 915 668 852 581 915 l 215 915 m 392 -319 l 329 -319 l 411 -62 l 490 -62 "},"ŗ":{"ha":482,"x_min":0,"x_max":0,"o":"m 131 499 b 125 647 131 560 129 609 l 197 647 b 203 518 201 599 203 556 l 206 518 b 290 625 223 563 251 599 b 418 664 328 651 371 664 b 469 658 441 664 458 662 l 461 589 b 408 594 448 593 431 594 b 263 524 348 594 300 571 b 207 332 225 476 207 413 l 207 0 l 131 0 l 131 499 m 132 -319 l 69 -319 l 151 -62 l 231 -62 "},"Ř":{"ha":831,"x_min":0,"x_max":0,"o":"m 215 0 l 136 0 l 136 983 l 419 983 b 747 726 638 983 747 898 b 672 550 747 652 722 594 b 486 476 622 506 560 482 l 776 0 l 681 0 l 400 471 l 215 471 m 215 539 l 408 539 b 601 587 492 539 556 555 b 668 726 646 619 668 665 b 407 915 668 852 581 915 l 215 915 m 436 1061 l 347 1061 l 199 1261 l 272 1261 l 392 1101 l 511 1261 l 585 1261 "},"ř":{"ha":482,"x_min":0,"x_max":0,"o":"m 131 499 b 125 647 131 560 129 609 l 197 647 b 203 518 201 599 203 556 l 206 518 b 290 625 223 563 251 599 b 418 664 328 651 371 664 b 469 658 441 664 458 662 l 461 589 b 408 594 448 593 431 594 b 263 524 348 594 300 571 b 207 332 225 476 207 413 l 207 0 l 131 0 l 131 499 m 333 783 l 244 783 l 96 983 l 169 983 l 289 824 l 408 983 l 482 983 "},"Ś":{"ha":786,"x_min":0,"x_max":0,"o":"m 625 842 b 408 942 570 908 498 942 b 250 890 349 942 296 924 b 181 743 204 855 181 806 b 209 644 181 704 190 671 b 283 582 228 618 253 597 b 384 542 314 567 347 554 b 494 503 421 530 457 517 b 594 453 530 489 564 472 b 669 374 625 434 650 408 b 697 251 688 339 697 299 b 604 46 697 163 666 94 b 383 -26 542 -2 469 -26 b 86 115 257 -26 158 21 l 142 164 b 383 43 210 83 291 43 b 547 98 445 43 500 61 b 617 247 593 134 617 184 b 588 347 617 286 607 319 b 515 411 569 374 545 395 b 415 453 484 427 451 441 b 304 493 378 466 341 479 b 203 542 267 507 234 523 b 130 622 173 561 149 588 b 101 743 111 655 101 696 b 194 940 101 828 132 894 b 413 1010 256 987 329 1010 b 682 893 533 1010 623 971 m 411 1061 l 346 1061 l 486 1261 l 586 1261 "},"ś":{"ha":604,"x_min":0,"x_max":0,"o":"m 468 513 b 306 601 433 572 379 601 b 203 573 267 601 233 592 b 160 489 174 554 160 526 b 197 410 160 454 172 428 b 322 365 222 393 264 378 b 485 299 394 350 449 327 b 539 179 521 270 539 230 b 470 33 539 114 516 66 b 304 -17 424 0 369 -17 b 58 104 195 -17 113 24 l 118 147 b 197 75 138 118 164 94 b 304 47 229 56 265 47 b 417 78 349 47 386 58 b 464 174 448 99 464 131 b 425 250 464 206 451 231 b 331 291 399 269 368 282 b 221 320 295 300 258 309 b 126 376 184 331 152 350 b 88 483 100 403 88 439 b 152 618 88 543 109 588 b 308 664 195 649 247 664 b 438 635 356 664 400 654 b 526 554 477 616 506 589 m 324 783 l 258 783 l 399 983 l 499 983 "},"Ŝ":{"ha":786,"x_min":0,"x_max":0,"o":"m 625 842 b 408 942 570 908 498 942 b 250 890 349 942 296 924 b 181 743 204 855 181 806 b 209 644 181 704 190 671 b 283 582 228 618 253 597 b 384 542 314 567 347 554 b 494 503 421 530 457 517 b 594 453 530 489 564 472 b 669 374 625 434 650 408 b 697 251 688 339 697 299 b 604 46 697 163 666 94 b 383 -26 542 -2 469 -26 b 86 115 257 -26 158 21 l 142 164 b 383 43 210 83 291 43 b 547 98 445 43 500 61 b 617 247 593 134 617 184 b 588 347 617 286 607 319 b 515 411 569 374 545 395 b 415 453 484 427 451 441 b 304 493 378 466 341 479 b 203 542 267 507 234 523 b 130 622 173 561 149 588 b 101 743 111 655 101 696 b 194 940 101 828 132 894 b 413 1010 256 987 329 1010 b 682 893 533 1010 623 971 m 603 1061 l 529 1061 l 410 1221 l 290 1061 l 217 1061 l 365 1261 l 454 1261 "},"ŝ":{"ha":604,"x_min":0,"x_max":0,"o":"m 468 513 b 306 601 433 572 379 601 b 203 573 267 601 233 592 b 160 489 174 554 160 526 b 197 410 160 454 172 428 b 322 365 222 393 264 378 b 485 299 394 350 449 327 b 539 179 521 270 539 230 b 470 33 539 114 516 66 b 304 -17 424 0 369 -17 b 58 104 195 -17 113 24 l 118 147 b 197 75 138 118 164 94 b 304 47 229 56 265 47 b 417 78 349 47 386 58 b 464 174 448 99 464 131 b 425 250 464 206 451 231 b 331 291 399 269 368 282 b 221 320 295 300 258 309 b 126 376 184 331 152 350 b 88 483 100 403 88 439 b 152 618 88 543 109 588 b 308 664 195 649 247 664 b 438 635 356 664 400 654 b 526 554 477 616 506 589 m 506 783 l 432 783 l 313 943 l 193 783 l 119 783 l 268 983 l 357 983 "},"Ş":{"ha":786,"x_min":0,"x_max":0,"o":"m 625 842 b 408 942 570 908 498 942 b 250 890 349 942 296 924 b 181 743 204 855 181 806 b 209 644 181 704 190 671 b 283 582 228 618 253 597 b 384 542 314 567 347 554 b 494 503 421 530 457 517 b 594 453 530 489 564 472 b 669 374 625 434 650 408 b 697 251 688 339 697 299 b 614 54 697 167 669 101 b 410 -25 558 7 490 -19 l 357 -108 b 413 -101 371 -104 389 -101 b 494 -127 443 -101 470 -110 b 529 -200 517 -144 529 -169 b 481 -290 529 -242 513 -272 b 368 -318 448 -309 411 -318 b 239 -290 322 -318 279 -309 l 257 -247 b 363 -269 288 -262 323 -269 b 431 -253 387 -269 409 -264 b 463 -201 452 -242 463 -225 b 379 -142 463 -162 435 -142 b 308 -156 353 -142 330 -146 l 288 -137 l 360 -25 b 86 115 245 -19 154 27 l 142 164 b 383 43 210 83 291 43 b 547 98 445 43 500 61 b 617 247 593 134 617 184 b 588 347 617 286 607 319 b 515 411 569 374 545 395 b 415 453 484 427 451 441 b 304 493 378 466 341 479 b 203 542 267 507 234 523 b 130 622 173 561 149 588 b 101 743 111 655 101 696 b 194 940 101 828 132 894 b 413 1010 256 987 329 1010 b 682 893 533 1010 623 971 "},"ş":{"ha":604,"x_min":0,"x_max":0,"o":"m 468 513 b 306 601 433 572 379 601 b 203 573 267 601 233 592 b 160 489 174 554 160 526 b 197 410 160 454 172 428 b 322 365 222 393 264 378 b 485 299 394 350 449 327 b 539 179 521 270 539 230 b 481 42 539 120 519 74 b 335 -15 442 9 393 -10 l 275 -108 b 331 -101 289 -104 307 -101 b 412 -127 361 -101 388 -110 b 447 -200 435 -144 447 -169 b 399 -290 447 -242 431 -272 b 286 -318 366 -309 329 -318 b 157 -290 240 -318 197 -309 l 175 -247 b 281 -269 206 -262 241 -269 b 349 -253 305 -269 327 -264 b 381 -201 370 -242 381 -225 b 297 -142 381 -162 353 -142 b 226 -156 271 -142 248 -146 l 206 -137 l 283 -15 b 58 104 183 -11 108 29 l 118 147 b 197 75 138 118 164 94 b 304 47 229 56 265 47 b 417 78 349 47 386 58 b 464 174 448 99 464 131 b 425 250 464 206 451 231 b 331 291 399 269 368 282 b 221 320 295 300 258 309 b 126 376 184 331 152 350 b 88 483 100 403 88 439 b 152 618 88 543 109 588 b 308 664 195 649 247 664 b 438 635 356 664 400 654 b 526 554 477 616 506 589 "},"Ţ":{"ha":779,"x_min":0,"x_max":0,"o":"m 429 0 l 350 0 l 350 913 l 19 913 l 19 983 l 760 983 l 760 913 l 429 913 m 354 -319 l 292 -319 l 372 -62 l 451 -62 "},"ţ":{"ha":435,"x_min":0,"x_max":0,"o":"m 408 583 l 224 583 l 224 174 b 250 81 224 130 232 99 b 326 54 268 63 293 54 b 406 72 353 54 380 60 l 410 7 b 307 -11 376 -5 342 -11 b 194 28 262 -11 224 2 b 149 156 164 55 149 97 l 149 583 l 13 583 l 13 647 l 147 647 l 147 832 l 224 832 l 224 647 l 408 647 m 235 -319 l 172 -319 l 253 -62 l 332 -62 "},"Ť":{"ha":779,"x_min":0,"x_max":0,"o":"m 429 0 l 350 0 l 350 913 l 19 913 l 19 983 l 760 983 l 760 913 l 429 913 m 433 1061 l 344 1061 l 196 1261 l 269 1261 l 389 1101 l 508 1261 l 582 1261 "},"ť":{"ha":449,"x_min":0,"x_max":0,"o":"m 408 583 l 224 583 l 224 174 b 250 81 224 130 232 99 b 326 54 268 63 293 54 b 406 72 353 54 380 60 l 410 7 b 307 -11 376 -5 342 -11 b 194 28 262 -11 224 2 b 149 156 164 55 149 97 l 149 583 l 13 583 l 13 647 l 147 647 l 147 832 l 224 832 l 224 647 l 408 647 m 376 758 l 314 758 l 394 1015 l 474 1015 "},"Ŧ":{"ha":779,"x_min":0,"x_max":0,"o":"m 350 756 l 350 913 l 19 913 l 19 983 l 760 983 l 760 913 l 429 913 l 429 756 l 674 756 l 674 699 l 429 699 l 429 0 l 350 0 l 350 699 l 96 699 l 96 756 "},"ŧ":{"ha":435,"x_min":0,"x_max":0,"o":"m 149 421 l 149 583 l 13 583 l 13 647 l 147 647 l 147 832 l 224 832 l 224 647 l 408 647 l 408 583 l 224 583 l 224 421 l 393 421 l 393 365 l 224 365 l 224 174 b 250 81 224 130 232 99 b 326 54 268 63 293 54 b 406 72 353 54 380 60 l 410 7 b 307 -11 376 -5 342 -11 b 194 28 262 -11 224 2 b 149 156 164 55 149 97 l 149 365 l 24 365 l 24 421 "},"Ũ":{"ha":996,"x_min":0,"x_max":0,"o":"m 497 -26 b 319 9 429 -26 369 -15 b 203 104 268 33 230 64 b 146 229 177 144 158 186 b 128 368 134 273 128 319 l 128 983 l 207 983 l 207 378 b 215 283 207 344 209 313 b 243 193 220 253 229 223 b 296 117 257 163 275 138 b 379 65 317 95 345 78 b 497 44 413 51 453 44 b 638 74 552 44 599 54 b 729 152 678 93 708 119 b 775 258 750 185 766 220 b 789 378 784 295 789 335 l 789 983 l 868 983 l 868 368 b 850 229 868 319 862 273 b 792 104 838 186 819 144 b 677 9 766 64 728 33 b 497 -26 627 -15 567 -26 m 292 1085 b 406 1215 306 1172 344 1215 b 504 1183 426 1215 459 1204 b 593 1150 550 1161 579 1150 b 657 1218 625 1150 647 1173 l 706 1218 b 593 1089 692 1132 654 1089 b 494 1122 572 1089 539 1100 b 406 1154 450 1143 420 1154 b 340 1085 372 1154 350 1131 "},"ũ":{"ha":803,"x_min":0,"x_max":0,"o":"m 604 0 b 599 128 600 46 599 89 l 596 128 b 504 22 578 84 548 49 b 365 -18 461 -5 414 -18 b 183 56 284 -18 223 7 b 122 251 142 106 122 171 l 122 647 l 199 647 l 199 281 b 382 46 199 124 260 46 b 533 117 441 46 492 70 b 596 318 575 165 596 232 l 596 647 l 671 647 l 671 149 b 678 0 671 96 673 46 m 194 807 b 308 938 208 894 246 938 b 407 905 329 938 362 927 b 496 872 452 883 482 872 b 560 940 528 872 550 895 l 608 940 b 496 811 594 854 557 811 b 397 844 475 811 442 822 b 308 876 353 866 323 876 b 243 807 275 876 253 853 "},"Ū":{"ha":996,"x_min":0,"x_max":0,"o":"m 497 -26 b 319 9 429 -26 369 -15 b 203 104 268 33 230 64 b 146 229 177 144 158 186 b 128 368 134 273 128 319 l 128 983 l 207 983 l 207 378 b 215 283 207 344 209 313 b 243 193 220 253 229 223 b 296 117 257 163 275 138 b 379 65 317 95 345 78 b 497 44 413 51 453 44 b 638 74 552 44 599 54 b 729 152 678 93 708 119 b 775 258 750 185 766 220 b 789 378 784 295 789 335 l 789 983 l 868 983 l 868 368 b 850 229 868 319 862 273 b 792 104 838 186 819 144 b 677 9 766 64 728 33 b 497 -26 627 -15 567 -26 m 678 1119 l 319 1119 l 319 1181 l 678 1181 "},"ū":{"ha":803,"x_min":0,"x_max":0,"o":"m 604 0 b 599 128 600 46 599 89 l 596 128 b 504 22 578 84 548 49 b 365 -18 461 -5 414 -18 b 183 56 284 -18 223 7 b 122 251 142 106 122 171 l 122 647 l 199 647 l 199 281 b 382 46 199 124 260 46 b 533 117 441 46 492 70 b 596 318 575 165 596 232 l 596 647 l 671 647 l 671 149 b 678 0 671 96 673 46 m 578 842 l 219 842 l 219 903 l 578 903 "},"Ŭ":{"ha":996,"x_min":0,"x_max":0,"o":"m 497 -26 b 319 9 429 -26 369 -15 b 203 104 268 33 230 64 b 146 229 177 144 158 186 b 128 368 134 273 128 319 l 128 983 l 207 983 l 207 378 b 215 283 207 344 209 313 b 243 193 220 253 229 223 b 296 117 257 163 275 138 b 379 65 317 95 345 78 b 497 44 413 51 453 44 b 638 74 552 44 599 54 b 729 152 678 93 708 119 b 775 258 750 185 766 220 b 789 378 784 295 789 335 l 789 983 l 868 983 l 868 368 b 850 229 868 319 862 273 b 792 104 838 186 819 144 b 677 9 766 64 728 33 b 497 -26 627 -15 567 -26 m 693 1257 b 633 1124 688 1200 668 1156 b 497 1076 597 1092 552 1076 b 363 1124 443 1076 398 1092 b 303 1257 327 1156 307 1200 l 354 1257 b 403 1169 361 1219 377 1190 b 497 1138 430 1148 461 1138 b 643 1257 580 1138 628 1177 "},"ŭ":{"ha":803,"x_min":0,"x_max":0,"o":"m 604 0 b 599 128 600 46 599 89 l 596 128 b 504 22 578 84 548 49 b 365 -18 461 -5 414 -18 b 183 56 284 -18 223 7 b 122 251 142 106 122 171 l 122 647 l 199 647 l 199 281 b 382 46 199 124 260 46 b 533 117 441 46 492 70 b 596 318 575 165 596 232 l 596 647 l 671 647 l 671 149 b 678 0 671 96 673 46 m 596 979 b 535 847 591 923 571 878 b 400 799 500 815 455 799 b 265 847 345 799 300 815 b 206 979 230 878 210 923 l 257 979 b 306 891 263 941 280 912 b 400 860 333 870 364 860 b 546 979 482 860 531 900 "},"Ů":{"ha":996,"x_min":0,"x_max":0,"o":"m 497 -26 b 319 9 429 -26 369 -15 b 203 104 268 33 230 64 b 146 229 177 144 158 186 b 128 368 134 273 128 319 l 128 983 l 207 983 l 207 378 b 215 283 207 344 209 313 b 243 193 220 253 229 223 b 296 117 257 163 275 138 b 379 65 317 95 345 78 b 497 44 413 51 453 44 b 638 74 552 44 599 54 b 729 152 678 93 708 119 b 775 258 750 185 766 220 b 789 378 784 295 789 335 l 789 983 l 868 983 l 868 368 b 850 229 868 319 862 273 b 792 104 838 186 819 144 b 677 9 766 64 728 33 b 497 -26 627 -15 567 -26 m 633 1181 b 594 1087 633 1144 620 1112 b 500 1049 567 1061 536 1049 b 406 1087 464 1049 433 1061 b 367 1181 380 1112 367 1144 b 406 1274 367 1218 380 1249 b 500 1313 433 1300 464 1313 b 594 1274 536 1313 567 1300 b 633 1181 620 1249 633 1218 m 590 1181 b 564 1244 590 1206 581 1227 b 500 1271 546 1262 525 1271 b 436 1244 475 1271 454 1262 b 410 1181 419 1227 410 1206 b 436 1117 410 1156 419 1134 b 500 1090 454 1099 475 1090 b 564 1117 525 1090 546 1099 b 590 1181 581 1134 590 1156 "},"ů":{"ha":803,"x_min":0,"x_max":0,"o":"m 604 0 b 599 128 600 46 599 89 l 596 128 b 504 22 578 84 548 49 b 365 -18 461 -5 414 -18 b 183 56 284 -18 223 7 b 122 251 142 106 122 171 l 122 647 l 199 647 l 199 281 b 382 46 199 124 260 46 b 533 117 441 46 492 70 b 596 318 575 165 596 232 l 596 647 l 671 647 l 671 149 b 678 0 671 96 673 46 m 532 903 b 492 809 532 866 519 834 b 399 771 466 784 435 771 b 305 809 363 771 331 784 b 265 903 278 834 265 866 b 305 997 265 940 278 971 b 399 1035 331 1022 363 1035 b 492 997 435 1035 466 1022 b 532 903 519 971 532 940 m 489 903 b 463 967 489 928 480 949 b 399 993 445 984 424 993 b 335 967 374 993 352 984 b 308 903 317 949 308 928 b 335 839 308 878 317 856 b 399 813 352 821 374 813 b 463 839 424 813 445 821 b 489 903 480 856 489 878 "},"Ű":{"ha":996,"x_min":0,"x_max":0,"o":"m 497 -26 b 319 9 429 -26 369 -15 b 203 104 268 33 230 64 b 146 229 177 144 158 186 b 128 368 134 273 128 319 l 128 983 l 207 983 l 207 378 b 215 283 207 344 209 313 b 243 193 220 253 229 223 b 296 117 257 163 275 138 b 379 65 317 95 345 78 b 497 44 413 51 453 44 b 638 74 552 44 599 54 b 729 152 678 93 708 119 b 775 258 750 185 766 220 b 789 378 784 295 789 335 l 789 983 l 868 983 l 868 368 b 850 229 868 319 862 273 b 792 104 838 186 819 144 b 677 9 766 64 728 33 b 497 -26 627 -15 567 -26 m 489 1261 l 589 1261 l 414 1061 l 349 1061 m 703 1261 l 803 1261 l 628 1061 l 563 1061 "},"ű":{"ha":803,"x_min":0,"x_max":0,"o":"m 604 0 b 599 128 600 46 599 89 l 596 128 b 504 22 578 84 548 49 b 365 -18 461 -5 414 -18 b 183 56 284 -18 223 7 b 122 251 142 106 122 171 l 122 647 l 199 647 l 199 281 b 382 46 199 124 260 46 b 533 117 441 46 492 70 b 596 318 575 165 596 232 l 596 647 l 671 647 l 671 149 b 678 0 671 96 673 46 m 392 983 l 492 983 l 317 783 l 251 783 m 606 983 l 706 983 l 531 783 l 465 783 "},"Ų":{"ha":996,"x_min":0,"x_max":0,"o":"m 493 -25 b 345 -1 438 -25 388 -17 b 240 62 302 16 267 36 b 174 153 213 87 191 118 b 138 258 156 188 144 223 b 128 368 131 294 128 330 l 128 983 l 207 983 l 207 378 b 215 283 207 344 209 313 b 243 193 220 253 229 223 b 296 117 257 163 275 138 b 379 65 317 95 345 78 b 497 44 413 51 453 44 b 638 74 552 44 599 54 b 729 152 678 93 708 119 b 775 258 750 185 766 220 b 789 378 784 295 789 335 l 789 983 l 868 983 l 868 368 b 853 243 868 325 863 283 b 807 127 844 203 828 165 b 716 32 786 90 755 58 b 576 -19 677 6 630 -11 b 504 -105 543 -54 519 -82 b 482 -176 489 -128 482 -151 b 503 -230 482 -199 489 -216 b 557 -250 518 -243 536 -250 b 636 -217 589 -250 616 -239 l 658 -261 b 536 -310 626 -294 585 -310 b 450 -277 503 -310 474 -299 b 414 -193 426 -255 414 -227 b 510 -25 414 -141 446 -85 "},"ų":{"ha":803,"x_min":0,"x_max":0,"o":"m 603 -310 b 517 -277 569 -310 541 -299 b 481 -193 493 -255 481 -227 b 606 0 481 -136 522 -71 l 604 0 b 599 128 600 46 599 89 l 596 128 b 504 22 578 84 548 49 b 365 -18 461 -5 414 -18 b 183 56 284 -18 223 7 b 122 251 142 106 122 171 l 122 647 l 199 647 l 199 281 b 382 46 199 124 260 46 b 533 117 441 46 492 70 b 596 318 575 165 596 232 l 596 647 l 671 647 l 671 149 b 678 0 671 96 673 46 l 669 0 b 660 -1 664 -1 661 -1 b 574 -99 620 -41 591 -74 b 549 -176 557 -124 549 -150 b 569 -230 549 -199 556 -216 b 624 -250 583 -243 601 -250 b 701 -217 655 -250 681 -239 l 725 -261 b 603 -310 691 -294 650 -310 "},"Ŵ":{"ha":1343,"x_min":0,"x_max":0,"o":"m 364 104 l 367 104 l 622 983 l 721 983 l 978 104 l 982 104 l 1235 983 l 1318 983 l 1026 0 l 931 0 l 672 878 l 669 878 l 413 0 l 317 0 l 25 983 l 108 983 m 864 1061 l 790 1061 l 671 1221 l 551 1061 l 478 1061 l 626 1261 l 715 1261 "},"ŵ":{"ha":1017,"x_min":0,"x_max":0,"o":"m 119 647 l 282 94 l 285 94 l 469 647 l 546 647 l 733 94 l 736 94 l 897 647 l 976 647 l 776 0 l 692 0 l 508 550 l 506 550 l 324 0 l 239 0 l 39 647 m 699 783 l 625 783 l 506 943 l 386 783 l 313 783 l 461 983 l 550 983 "},"Ŷ":{"ha":810,"x_min":0,"x_max":0,"o":"m 444 0 l 365 0 l 365 425 l 6 983 l 104 983 l 407 493 l 711 983 l 803 983 l 444 425 m 600 1061 l 526 1061 l 407 1221 l 288 1061 l 214 1061 l 363 1261 l 451 1261 "},"ŷ":{"ha":653,"x_min":0,"x_max":0,"o":"m 117 -335 b 40 -325 94 -335 68 -331 l 50 -257 b 114 -268 69 -264 91 -268 b 190 -238 145 -268 171 -258 b 240 -150 209 -218 225 -189 l 296 -4 l 25 647 l 110 647 l 335 76 l 338 79 l 546 647 l 628 647 l 306 -181 b 232 -296 285 -231 261 -270 b 117 -335 203 -322 165 -335 m 528 783 l 454 783 l 335 943 l 215 783 l 142 783 l 290 983 l 379 983 "},"Ź":{"ha":804,"x_min":0,"x_max":0,"o":"m 744 913 l 150 71 l 756 71 l 756 0 l 53 0 l 53 69 l 649 913 l 68 913 l 68 983 l 744 983 m 415 1061 l 350 1061 l 490 1261 l 590 1261 "},"ź":{"ha":613,"x_min":0,"x_max":0,"o":"m 546 590 l 149 65 l 561 65 l 561 0 l 50 0 l 50 56 l 449 583 l 71 583 l 71 647 l 546 647 m 324 783 l 258 783 l 399 983 l 499 983 "},"Ż":{"ha":804,"x_min":0,"x_max":0,"o":"m 744 913 l 150 71 l 756 71 l 756 0 l 53 0 l 53 69 l 649 913 l 68 913 l 68 983 l 744 983 m 461 1182 b 444 1142 461 1166 455 1153 b 404 1125 432 1131 419 1125 b 365 1142 389 1125 376 1131 b 347 1182 353 1153 347 1166 b 365 1222 347 1198 353 1211 b 404 1239 376 1233 389 1239 b 444 1222 419 1239 432 1233 b 461 1182 455 1211 461 1198 "},"ż":{"ha":613,"x_min":0,"x_max":0,"o":"m 546 590 l 149 65 l 561 65 l 561 0 l 50 0 l 50 56 l 449 583 l 71 583 l 71 647 l 546 647 m 367 904 b 349 864 367 888 361 875 b 310 847 338 853 325 847 b 270 864 295 847 282 853 b 253 904 259 875 253 888 b 270 944 253 920 259 933 b 310 961 282 956 295 961 b 349 944 325 961 338 956 b 367 904 361 933 367 920 "},"ƒ":{"ha":797,"x_min":0,"x_max":0,"o":"m 596 517 l 429 517 l 333 4 b 271 -140 321 -56 300 -104 b 133 -194 241 -176 195 -194 b 33 -172 92 -194 58 -187 l 64 -111 b 135 -128 84 -122 108 -128 b 222 -87 175 -128 204 -114 b 261 28 239 -61 252 -22 l 351 517 l 200 517 l 200 578 l 364 578 l 403 789 b 604 1000 428 930 495 1000 b 724 964 651 1000 691 988 l 686 910 b 608 933 663 925 637 933 b 476 774 539 933 495 880 l 442 578 l 596 578 "},"Ș":{"ha":786,"x_min":0,"x_max":0,"o":"m 625 842 b 408 942 570 908 498 942 b 250 890 349 942 296 924 b 181 743 204 855 181 806 b 209 644 181 704 190 671 b 283 582 228 618 253 597 b 384 542 314 567 347 554 b 494 503 421 530 457 517 b 594 453 530 489 564 472 b 669 374 625 434 650 408 b 697 251 688 339 697 299 b 604 46 697 163 666 94 b 383 -26 542 -2 469 -26 b 86 115 257 -26 158 21 l 142 164 b 383 43 210 83 291 43 b 547 98 445 43 500 61 b 617 247 593 134 617 184 b 588 347 617 286 607 319 b 515 411 569 374 545 395 b 415 453 484 427 451 441 b 304 493 378 466 341 479 b 203 542 267 507 234 523 b 130 622 173 561 149 588 b 101 743 111 655 101 696 b 194 940 101 828 132 894 b 413 1010 256 987 329 1010 b 682 893 533 1010 623 971 m 360 -321 l 297 -321 l 379 -64 l 458 -64 "},"ș":{"ha":604,"x_min":0,"x_max":0,"o":"m 468 513 b 306 601 433 572 379 601 b 203 573 267 601 233 592 b 160 489 174 554 160 526 b 197 410 160 454 172 428 b 322 365 222 393 264 378 b 485 299 394 350 449 327 b 539 179 521 270 539 230 b 470 33 539 114 516 66 b 304 -17 424 0 369 -17 b 58 104 195 -17 113 24 l 118 147 b 197 75 138 118 164 94 b 304 47 229 56 265 47 b 417 78 349 47 386 58 b 464 174 448 99 464 131 b 425 250 464 206 451 231 b 331 291 399 269 368 282 b 221 320 295 300 258 309 b 126 376 184 331 152 350 b 88 483 100 403 88 439 b 152 618 88 543 109 588 b 308 664 195 649 247 664 b 438 635 356 664 400 654 b 526 554 477 616 506 589 m 264 -321 l 201 -321 l 283 -64 l 363 -64 "},"Ț":{"ha":779,"x_min":0,"x_max":0,"o":"m 429 0 l 350 0 l 350 913 l 19 913 l 19 983 l 760 983 l 760 913 l 429 913 m 354 -319 l 292 -319 l 372 -62 l 451 -62 "},"ț":{"ha":435,"x_min":0,"x_max":0,"o":"m 408 583 l 224 583 l 224 174 b 250 81 224 130 232 99 b 326 54 268 63 293 54 b 406 72 353 54 380 60 l 410 7 b 307 -11 376 -5 342 -11 b 194 28 262 -11 224 2 b 149 156 164 55 149 97 l 149 583 l 13 583 l 13 647 l 147 647 l 147 832 l 224 832 l 224 647 l 408 647 m 235 -319 l 172 -319 l 253 -62 l 332 -62 "},"ȷ":{"ha":339,"x_min":0,"x_max":0,"o":"m -22 -262 b 31 -269 -4 -267 14 -269 b 112 -231 71 -269 98 -257 b 132 -121 125 -206 132 -169 l 132 647 l 207 647 l 207 -131 b 168 -279 207 -194 194 -243 b 32 -333 142 -315 97 -333 b -33 -325 4 -333 -18 -331 "},"ˆ":{"ha":333,"x_min":0,"x_max":0,"o":"m 360 783 l 286 783 l 167 943 l 47 783 l -26 783 l 122 983 l 211 983 "},"ˇ":{"ha":333,"x_min":0,"x_max":0,"o":"m 211 783 l 122 783 l -26 983 l 47 983 l 167 824 l 286 983 l 360 983 "},"ˉ":{"ha":333,"x_min":0,"x_max":0,"o":"m 346 1119 l -12 1119 l -12 1181 l 346 1181 "},"˘":{"ha":333,"x_min":0,"x_max":0,"o":"m 361 979 b 301 847 356 923 336 878 b 165 799 265 815 220 799 b 31 847 111 799 66 815 b -29 979 -5 878 -25 923 l 22 979 b 72 891 29 941 45 912 b 165 860 98 870 129 860 b 311 979 248 860 296 900 "},"˙":{"ha":333,"x_min":0,"x_max":0,"o":"m 224 904 b 206 864 224 888 218 875 b 167 847 195 853 181 847 b 127 864 152 847 139 853 b 110 904 116 875 110 888 b 127 944 110 920 116 933 b 167 961 139 956 152 961 b 206 944 181 961 195 956 b 224 904 218 933 224 920 "},"˚":{"ha":333,"x_min":0,"x_max":0,"o":"m 300 903 b 260 809 300 866 287 834 b 167 771 234 784 203 771 b 73 809 131 771 99 784 b 33 903 47 834 33 866 b 73 997 33 940 47 971 b 167 1035 99 1022 131 1035 b 260 997 203 1035 234 1022 b 300 903 287 971 300 940 m 257 903 b 231 967 257 928 248 949 b 167 993 213 984 192 993 b 103 967 142 993 120 984 b 76 903 85 949 76 928 b 103 839 76 878 85 856 b 167 813 120 821 142 813 b 231 839 192 813 213 821 b 257 903 248 856 257 878 "},"˛":{"ha":333,"x_min":0,"x_max":0,"o":"m 290 -261 b 168 -310 256 -294 215 -310 b 82 -277 135 -310 106 -299 b 46 -193 58 -255 46 -227 b 171 0 46 -136 88 -71 l 226 0 b 140 -100 186 -42 157 -75 b 114 -176 122 -125 114 -150 b 135 -230 114 -199 121 -216 b 189 -250 150 -243 168 -250 b 267 -217 221 -250 247 -239 "},"˜":{"ha":333,"x_min":0,"x_max":0,"o":"m -40 807 b 74 938 -26 894 12 938 b 172 905 94 938 127 927 b 261 872 218 883 247 872 b 325 940 294 872 315 895 l 374 940 b 261 811 360 854 322 811 b 163 844 240 811 207 822 b 74 876 118 866 88 876 b 8 807 40 876 19 853 "},"˝":{"ha":333,"x_min":0,"x_max":0,"o":"m 99 983 l 199 983 l 24 783 l -42 783 m 313 983 l 413 983 l 238 783 l 172 783 "},"Δ":{"ha":925,"x_min":0,"x_max":0,"o":"m 31 0 l 418 989 l 503 989 l 897 0 m 460 915 l 131 68 l 792 68 "},"Ω":{"ha":1031,"x_min":0,"x_max":0,"o":"m 611 0 l 611 243 b 801 357 694 258 757 296 b 868 578 846 418 868 492 b 764 832 868 680 833 764 b 507 933 694 900 609 933 b 251 832 406 933 321 900 b 147 578 182 764 147 680 b 214 356 147 491 169 417 b 404 243 258 294 322 257 l 404 0 l 74 0 l 74 65 l 344 65 l 344 196 b 146 338 260 220 194 267 b 74 579 98 408 74 488 b 201 881 74 700 116 800 b 508 1001 287 961 389 1001 b 815 881 628 1001 730 961 b 942 581 899 801 942 701 b 870 338 942 489 918 408 b 671 196 822 267 756 220 l 671 65 l 942 65 l 942 0 "},"μ":{"ha":772,"x_min":0,"x_max":0,"o":"m 110 647 l 182 647 l 182 281 b 224 107 182 204 196 146 b 367 49 251 68 299 49 b 520 121 429 49 480 73 b 581 318 560 169 581 235 l 581 647 l 654 647 l 654 149 b 660 0 654 109 656 59 l 581 0 l 581 124 l 578 124 b 483 22 557 83 526 49 b 350 -18 441 -5 396 -18 b 182 46 278 -18 222 3 l 182 -317 l 110 -317 "},"π":{"ha":779,"x_min":0,"x_max":0,"o":"m 726 13 b 643 -8 696 -1 668 -8 b 594 1 624 -8 607 -5 b 565 21 581 7 572 13 b 550 56 559 28 554 40 b 544 97 546 71 544 85 b 543 147 543 108 543 125 l 543 581 l 218 581 l 218 0 l 147 0 l 147 581 l 49 581 l 49 647 l 719 647 l 719 581 l 614 581 l 614 136 b 625 74 614 108 618 88 b 672 54 632 61 648 54 b 726 65 691 54 709 58 l 726 13 "},"Ѐ":{"ha":821,"x_min":0,"x_max":0,"o":"m 214 71 l 753 71 l 753 0 l 136 0 l 136 983 l 735 983 l 735 913 l 214 913 l 214 546 l 701 546 l 701 476 l 214 476 m 265 1261 l 365 1261 l 506 1061 l 440 1061 "},"Ё":{"ha":821,"x_min":0,"x_max":0,"o":"m 254 1182 b 271 1224 254 1198 260 1212 b 313 1242 282 1236 296 1242 b 355 1224 329 1242 343 1236 b 372 1182 366 1212 372 1198 b 355 1139 372 1165 366 1151 b 313 1121 343 1127 329 1121 b 271 1139 296 1121 282 1127 b 254 1182 260 1151 254 1165 m 504 1182 b 522 1224 504 1198 510 1212 b 564 1242 533 1236 547 1242 b 606 1224 581 1242 595 1236 b 624 1182 618 1212 624 1198 b 606 1139 624 1165 618 1151 b 564 1121 595 1127 581 1121 b 522 1139 547 1121 533 1127 b 504 1182 510 1151 504 1165 m 136 983 l 735 983 l 735 913 l 214 913 l 214 546 l 701 546 l 701 476 l 214 476 l 214 71 l 753 71 l 753 0 l 136 0 "},"Ђ":{"ha":1093,"x_min":0,"x_max":0,"o":"m 678 -12 b 567 -1 639 -12 602 -9 l 579 68 b 671 58 607 62 638 58 b 875 115 759 58 827 77 b 947 279 923 152 947 207 b 874 449 947 353 923 410 b 663 507 826 488 755 507 b 429 472 569 507 491 495 l 429 0 l 350 0 l 350 913 l 19 913 l 19 983 l 760 983 l 760 913 l 429 913 l 429 544 b 667 575 500 565 580 575 b 931 500 780 575 868 550 b 1026 281 995 450 1026 377 b 933 63 1026 185 995 112 b 678 -12 870 13 785 -12 "},"Ѓ":{"ha":699,"x_min":0,"x_max":0,"o":"m 410 1061 l 344 1061 l 485 1261 l 585 1261 m 136 983 l 679 983 l 679 913 l 215 913 l 215 0 l 136 0 "},"Є":{"ha":1001,"x_min":0,"x_max":0,"o":"m 593 -26 b 228 120 445 -26 323 22 b 85 492 132 218 85 342 b 229 863 85 642 133 766 b 593 1010 325 961 447 1010 b 791 970 663 1010 729 997 b 936 863 853 944 901 908 l 872 813 b 756 903 844 849 806 879 b 594 939 706 927 652 939 b 303 827 477 939 380 902 b 171 546 227 753 183 659 l 683 546 l 683 476 l 168 476 l 168 471 b 292 167 173 350 214 249 b 594 44 371 85 471 44 b 896 189 727 44 827 93 l 957 147 b 806 22 920 95 870 53 b 593 -26 743 -10 672 -26 "},"Ѕ":{"ha":786,"x_min":0,"x_max":0,"o":"m 625 842 b 408 942 570 908 498 942 b 250 890 349 942 296 924 b 181 743 204 855 181 806 b 209 644 181 704 190 671 b 283 582 228 618 253 597 b 384 542 314 567 347 554 b 494 503 421 530 457 517 b 594 453 530 489 564 472 b 669 374 625 434 650 408 b 697 251 688 339 697 299 b 604 46 697 163 666 94 b 383 -26 542 -2 469 -26 b 86 115 257 -26 158 21 l 142 164 b 383 43 210 83 291 43 b 547 98 445 43 500 61 b 617 247 593 134 617 184 b 588 347 617 286 607 319 b 515 411 569 374 545 395 b 415 453 484 427 451 441 b 304 493 378 466 341 479 b 203 542 267 507 234 523 b 130 622 173 561 149 588 b 101 743 111 655 101 696 b 194 940 101 828 132 894 b 413 1010 256 987 329 1010 b 682 893 533 1010 623 971 "},"І":{"ha":350,"x_min":0,"x_max":0,"o":"m 136 983 l 215 983 l 215 0 l 136 0 "},"Ї":{"ha":350,"x_min":0,"x_max":0,"o":"m -10 1182 b 8 1224 -10 1198 -4 1212 b 50 1242 19 1236 33 1242 b 92 1224 67 1242 81 1236 b 108 1182 103 1212 108 1198 b 92 1139 108 1165 103 1151 b 50 1121 81 1127 67 1121 b 8 1139 33 1121 19 1127 b -10 1182 -4 1151 -10 1165 m 242 1182 b 258 1224 242 1198 247 1212 b 300 1242 269 1236 283 1242 b 342 1224 317 1242 331 1236 b 360 1182 354 1212 360 1198 b 342 1139 360 1165 354 1151 b 300 1121 331 1127 317 1121 b 258 1139 283 1121 269 1127 b 242 1182 247 1151 242 1165 m 136 983 l 215 983 l 215 0 l 136 0 "},"Ј":{"ha":678,"x_min":0,"x_max":0,"o":"m 292 -25 b 125 27 226 -25 170 -8 b 36 161 80 62 50 106 l 110 182 b 172 83 121 141 142 108 b 283 44 203 57 240 44 b 471 285 408 44 471 125 l 471 983 l 550 983 l 550 279 b 538 170 550 240 546 204 b 497 74 529 136 516 104 b 416 1 478 43 451 19 b 292 -25 381 -16 340 -25 "},"Љ":{"ha":1497,"x_min":0,"x_max":0,"o":"m 89 -10 b 6 1 56 -10 29 -6 l 19 72 b 78 63 45 66 65 63 b 263 226 166 63 228 117 b 317 767 299 334 317 515 l 317 983 l 893 983 l 893 550 l 1092 550 b 1337 479 1193 550 1274 526 b 1431 272 1399 432 1431 363 b 1336 68 1431 181 1399 113 b 1088 0 1273 23 1190 0 l 814 0 l 814 914 l 394 914 l 394 732 b 326 172 394 479 372 292 b 89 -10 281 51 202 -10 m 1079 68 b 1276 118 1162 68 1227 85 b 1350 271 1325 151 1350 202 b 1279 427 1350 339 1326 391 b 1086 481 1232 463 1168 481 l 893 481 l 893 68 "},"Њ":{"ha":1471,"x_min":0,"x_max":0,"o":"m 136 983 l 215 983 l 215 550 l 789 550 l 789 983 l 868 983 l 868 550 l 1065 550 b 1310 479 1166 550 1248 526 b 1404 272 1373 432 1404 363 b 1310 68 1404 181 1373 113 b 1061 0 1247 23 1164 0 l 789 0 l 789 481 l 215 481 l 215 0 l 136 0 m 1054 68 b 1251 117 1137 68 1202 84 b 1324 271 1299 150 1324 201 b 1253 427 1324 339 1300 391 b 1060 481 1206 463 1141 481 l 868 481 l 868 68 "},"Ћ":{"ha":1093,"x_min":0,"x_max":0,"o":"m 350 913 l 19 913 l 19 983 l 760 983 l 760 913 l 429 913 l 429 544 b 665 575 502 565 581 575 b 975 321 872 575 975 490 l 975 0 l 896 0 l 896 314 b 841 454 896 373 878 420 b 668 506 804 488 747 506 b 429 474 569 506 489 495 l 429 0 l 350 0 "},"Ќ":{"ha":846,"x_min":0,"x_max":0,"o":"m 456 1061 l 390 1061 l 531 1261 l 631 1261 m 136 983 l 215 983 l 215 539 l 692 983 l 806 983 l 308 536 l 832 0 l 717 0 l 215 525 l 215 0 l 136 0 "},"Ѝ":{"ha":1024,"x_min":0,"x_max":0,"o":"m 328 1261 l 428 1261 l 568 1061 l 503 1061 m 136 983 l 215 983 l 215 121 l 218 121 l 796 983 l 889 983 l 889 0 l 810 0 l 810 868 l 806 868 l 228 0 l 136 0 "},"Ў":{"ha":860,"x_min":0,"x_max":0,"o":"m 172 -10 b 93 -1 142 -10 115 -7 l 107 72 b 172 63 126 66 148 63 b 319 172 231 63 280 99 l 393 308 l 10 983 l 101 983 l 438 389 l 763 983 l 850 983 l 388 144 b 296 28 359 93 328 54 b 172 -10 263 3 222 -10 m 436 1076 b 303 1124 382 1076 338 1092 b 242 1250 269 1156 248 1198 l 294 1260 b 343 1169 301 1221 317 1191 b 436 1138 369 1148 400 1138 b 529 1169 472 1138 503 1148 b 578 1260 555 1191 571 1221 l 631 1250 b 569 1124 624 1198 603 1156 b 436 1076 534 1092 490 1076 "},"Џ":{"ha":999,"x_min":0,"x_max":0,"o":"m 461 0 l 136 0 l 136 983 l 215 983 l 215 71 l 785 71 l 785 983 l 864 983 l 864 0 l 538 0 l 538 -247 l 461 -247 "},"А":{"ha":958,"x_min":0,"x_max":0,"o":"m 443 983 l 522 983 l 940 0 l 853 0 l 742 265 l 215 265 l 104 0 l 17 0 m 713 338 l 481 900 l 244 338 "},"Б":{"ha":864,"x_min":0,"x_max":0,"o":"m 136 983 l 706 983 l 706 913 l 215 913 l 215 550 l 433 550 b 678 479 534 550 616 526 b 772 272 741 432 772 363 b 678 68 772 181 741 113 b 429 0 615 23 532 0 l 136 0 m 422 68 b 619 117 505 68 570 84 b 692 271 667 150 692 201 b 621 427 692 339 668 391 b 428 481 574 463 509 481 l 215 481 l 215 68 "},"В":{"ha":874,"x_min":0,"x_max":0,"o":"m 136 983 l 421 983 b 534 972 462 983 499 979 b 633 933 569 964 602 951 b 708 857 665 916 690 890 b 735 738 726 824 735 784 b 684 597 735 682 718 635 b 553 521 650 558 606 533 l 553 518 b 715 443 617 512 671 487 b 782 269 760 400 782 342 b 684 70 782 183 749 117 b 431 0 619 23 534 0 l 136 0 m 422 68 b 624 118 505 68 572 85 b 701 272 675 151 701 203 b 629 428 701 342 677 394 b 439 481 581 463 518 481 l 215 481 l 215 68 m 426 547 b 587 592 488 547 542 562 b 654 732 632 622 654 669 b 585 871 654 795 631 841 b 406 915 538 900 479 915 l 215 915 l 215 547 "},"Г":{"ha":699,"x_min":0,"x_max":0,"o":"m 136 983 l 679 983 l 679 913 l 215 913 l 215 0 l 136 0 "},"Д":{"ha":1033,"x_min":0,"x_max":0,"o":"m 24 71 l 101 71 b 279 713 220 192 279 406 l 279 983 l 871 983 l 871 71 l 983 71 l 983 -247 l 907 -247 l 907 0 l 99 0 l 99 -247 l 24 -247 m 792 71 l 792 913 l 357 913 l 357 713 b 201 71 357 412 305 198 "},"Е":{"ha":821,"x_min":0,"x_max":0,"o":"m 136 983 l 735 983 l 735 913 l 214 913 l 214 546 l 701 546 l 701 476 l 214 476 l 214 71 l 753 71 l 753 0 l 136 0 "},"Ж":{"ha":1308,"x_min":0,"x_max":0,"o":"m 521 536 l 40 983 l 154 983 l 614 539 l 614 983 l 693 983 l 693 539 l 1154 983 l 1268 983 l 788 536 l 1294 0 l 1179 0 l 693 525 l 693 0 l 614 0 l 614 525 l 129 0 l 14 0 "},"З":{"ha":799,"x_min":0,"x_max":0,"o":"m 367 -26 b 57 113 236 -26 133 20 l 111 160 b 368 43 181 82 267 43 b 547 106 438 43 497 64 b 622 271 597 148 622 203 b 542 428 622 340 596 393 b 344 481 489 463 423 481 l 281 481 l 281 550 l 340 550 b 522 599 414 550 475 566 b 592 750 568 632 592 682 b 526 888 592 806 570 851 b 368 942 483 924 430 942 b 146 843 286 942 212 909 l 97 892 b 365 1010 171 970 261 1010 b 585 940 457 1010 530 987 b 667 747 639 894 667 830 b 615 599 667 689 650 639 b 483 519 581 558 537 531 l 483 517 b 640 434 546 506 599 478 b 703 271 682 390 703 336 b 606 55 703 181 671 109 b 367 -26 542 1 462 -26 "},"И":{"ha":1024,"x_min":0,"x_max":0,"o":"m 136 983 l 215 983 l 215 121 l 218 121 l 796 983 l 889 983 l 889 0 l 810 0 l 810 868 l 806 868 l 228 0 l 136 0 "},"Й":{"ha":1024,"x_min":0,"x_max":0,"o":"m 136 983 l 215 983 l 215 121 l 218 121 l 796 983 l 889 983 l 889 0 l 810 0 l 810 868 l 806 868 l 228 0 l 136 0 m 511 1076 b 378 1124 457 1076 413 1092 b 317 1250 344 1156 323 1198 l 369 1260 b 418 1169 376 1221 392 1191 b 511 1138 444 1148 475 1138 b 604 1169 547 1138 578 1148 b 653 1260 630 1191 646 1221 l 706 1250 b 644 1124 699 1198 678 1156 b 511 1076 609 1092 565 1076 "},"К":{"ha":846,"x_min":0,"x_max":0,"o":"m 136 983 l 215 983 l 215 539 l 692 983 l 806 983 l 308 536 l 832 0 l 717 0 l 215 525 l 215 0 l 136 0 "},"Л":{"ha":1029,"x_min":0,"x_max":0,"o":"m 89 -10 b 6 1 56 -10 29 -6 l 19 72 b 78 63 45 66 65 63 b 263 226 166 63 228 117 b 317 767 299 334 317 515 l 317 983 l 893 983 l 893 0 l 814 0 l 814 914 l 394 914 l 394 732 b 326 172 394 479 372 292 b 89 -10 281 51 202 -10 "},"М":{"ha":1239,"x_min":0,"x_max":0,"o":"m 136 983 l 258 983 l 621 132 l 981 983 l 1103 983 l 1103 0 l 1024 0 l 1024 882 l 1021 882 l 642 0 l 597 0 l 218 882 l 215 882 l 215 0 l 136 0 "},"Н":{"ha":1003,"x_min":0,"x_max":0,"o":"m 136 983 l 215 983 l 215 547 l 789 547 l 789 983 l 868 983 l 868 0 l 789 0 l 789 474 l 215 474 l 215 0 l 136 0 "},"О":{"ha":1190,"x_min":0,"x_max":0,"o":"m 594 -26 b 230 120 448 -26 327 22 b 85 492 133 218 85 342 b 230 863 85 642 133 766 b 594 1010 327 961 448 1010 b 960 863 742 1010 864 961 b 1106 492 1057 766 1106 642 b 960 120 1106 342 1057 218 b 594 -26 864 22 742 -26 m 594 44 b 904 174 722 44 825 88 b 1022 492 983 261 1022 367 b 903 809 1022 617 983 722 b 594 939 824 896 721 939 b 286 809 468 939 365 896 b 168 492 207 722 168 617 b 286 174 168 367 207 261 b 594 44 365 88 468 44 "},"П":{"ha":999,"x_min":0,"x_max":0,"o":"m 136 983 l 864 983 l 864 0 l 785 0 l 785 913 l 215 913 l 215 0 l 136 0 "},"Р":{"ha":803,"x_min":0,"x_max":0,"o":"m 136 983 l 410 983 b 644 919 507 983 585 962 b 733 726 704 877 733 813 b 646 532 733 642 704 577 b 414 464 588 487 510 464 l 215 464 l 215 0 l 136 0 m 410 532 b 588 581 485 532 544 548 b 654 726 632 614 654 663 b 588 869 654 790 632 838 b 408 915 543 900 483 915 l 215 915 l 215 532 "},"С":{"ha":1001,"x_min":0,"x_max":0,"o":"m 950 146 b 592 -26 862 31 743 -26 b 228 120 444 -26 323 22 b 85 492 132 218 85 342 b 229 863 85 642 133 766 b 593 1010 325 961 447 1010 b 790 972 665 1010 731 997 b 932 867 850 947 897 912 l 875 814 b 756 904 845 851 806 881 b 594 939 707 927 653 939 b 285 809 467 939 364 896 b 168 492 207 722 168 617 b 285 174 168 367 207 261 b 594 44 364 88 467 44 b 896 189 718 44 818 93 "},"Т":{"ha":779,"x_min":0,"x_max":0,"o":"m 350 913 l 19 913 l 19 983 l 760 983 l 760 913 l 429 913 l 429 0 l 350 0 "},"У":{"ha":860,"x_min":0,"x_max":0,"o":"m 172 -10 b 93 -1 142 -10 115 -7 l 107 72 b 172 63 126 66 148 63 b 319 172 231 63 280 99 l 393 308 l 10 983 l 101 983 l 438 389 l 763 983 l 850 983 l 388 144 b 296 28 359 93 328 54 b 172 -10 263 3 222 -10 "},"Ф":{"ha":1143,"x_min":0,"x_max":0,"o":"m 532 92 b 201 208 396 94 286 132 b 75 507 117 283 75 383 b 201 806 75 634 117 734 b 532 921 286 879 396 917 l 532 1010 l 611 1010 l 611 921 b 942 806 748 917 859 879 b 1068 507 1026 734 1068 634 b 942 208 1068 383 1026 283 b 611 92 859 132 748 94 l 611 -26 l 532 -26 m 532 851 b 258 753 416 848 325 815 b 158 506 192 691 158 608 b 258 260 158 402 191 320 b 532 161 324 200 415 167 m 611 161 b 886 260 728 167 819 200 b 986 506 953 320 986 402 b 886 753 986 608 953 691 b 611 851 819 815 728 848 l 611 161 "},"Х":{"ha":876,"x_min":0,"x_max":0,"o":"m 389 517 l 64 983 l 163 983 l 440 572 l 717 983 l 810 983 l 488 515 l 844 0 l 746 0 l 438 457 l 131 0 l 32 0 "},"Ц":{"ha":1025,"x_min":0,"x_max":0,"o":"m 900 0 l 136 0 l 136 983 l 215 983 l 215 71 l 785 71 l 785 983 l 864 983 l 864 71 l 975 71 l 975 -247 l 900 -247 "},"Ч":{"ha":876,"x_min":0,"x_max":0,"o":"m 661 419 b 421 389 588 399 508 389 b 115 643 217 389 115 474 l 115 983 l 194 983 l 194 650 b 249 510 194 591 213 544 b 418 458 286 475 342 458 b 661 490 522 458 603 469 l 661 983 l 740 983 l 740 0 l 661 0 "},"Ш":{"ha":1471,"x_min":0,"x_max":0,"o":"m 136 983 l 215 983 l 215 71 l 696 71 l 696 983 l 775 983 l 775 71 l 1256 71 l 1256 983 l 1335 983 l 1335 0 l 136 0 "},"Щ":{"ha":1497,"x_min":0,"x_max":0,"o":"m 1372 0 l 136 0 l 136 983 l 215 983 l 215 71 l 696 71 l 696 983 l 775 983 l 775 71 l 1256 71 l 1256 983 l 1335 983 l 1335 71 l 1447 71 l 1447 -247 l 1372 -247 "},"Ъ":{"ha":963,"x_min":0,"x_max":0,"o":"m 279 913 l 19 913 l 19 983 l 360 983 l 360 550 l 557 550 b 802 479 658 550 740 526 b 896 272 865 432 896 363 b 801 68 896 181 864 113 b 553 0 738 23 656 0 l 279 0 m 546 68 b 742 117 628 68 694 84 b 815 271 791 150 815 201 b 744 427 815 339 792 391 b 551 481 697 463 633 481 l 360 481 l 360 68 "},"Ы":{"ha":1121,"x_min":0,"x_max":0,"o":"m 136 983 l 215 983 l 215 550 l 413 550 b 658 479 513 550 595 526 b 751 272 720 432 751 363 b 657 68 751 181 720 113 b 408 0 594 23 511 0 l 136 0 m 401 68 b 598 117 484 68 549 84 b 671 271 647 150 671 201 b 600 427 671 339 647 391 b 407 481 553 463 488 481 l 215 481 l 215 68 m 906 983 l 985 983 l 985 0 l 906 0 "},"Ь":{"ha":818,"x_min":0,"x_max":0,"o":"m 136 983 l 215 983 l 215 550 l 413 550 b 658 479 513 550 595 526 b 751 272 720 432 751 363 b 657 68 751 181 720 113 b 408 0 594 23 511 0 l 136 0 m 401 68 b 598 117 484 68 549 84 b 671 271 647 150 671 201 b 600 427 671 339 647 391 b 407 481 553 463 488 481 l 215 481 l 215 68 "},"Э":{"ha":1001,"x_min":0,"x_max":0,"o":"m 408 -26 b 196 22 331 -26 260 -10 b 44 147 132 53 81 95 l 106 189 b 407 44 174 93 275 44 b 713 170 531 44 633 86 b 833 476 793 254 833 356 l 318 476 l 318 546 l 831 546 b 699 827 819 659 775 753 b 407 939 622 902 525 939 b 247 903 350 939 297 927 b 129 813 196 879 157 849 l 65 863 b 212 970 101 908 150 944 b 408 1010 273 997 339 1010 b 772 863 555 1010 676 961 b 917 492 869 766 917 642 b 774 120 917 342 869 218 b 408 -26 678 22 556 -26 "},"Ю":{"ha":1467,"x_min":0,"x_max":0,"o":"m 910 -25 b 574 117 773 -25 661 22 b 438 476 488 212 442 332 l 215 476 l 215 0 l 136 0 l 136 983 l 215 983 l 215 546 l 440 546 b 585 877 451 679 500 790 b 910 1008 671 965 779 1008 b 1250 860 1049 1008 1162 959 b 1382 494 1338 762 1382 640 b 1251 123 1382 345 1338 222 b 910 -25 1163 24 1050 -25 m 910 46 b 1194 178 1029 46 1124 90 b 1299 494 1264 266 1299 371 b 1254 710 1299 571 1284 643 b 1119 874 1225 776 1180 831 b 910 939 1059 917 989 939 b 626 807 791 939 697 895 b 521 494 556 719 521 615 b 626 178 521 371 556 266 b 910 46 696 90 790 46 "},"Я":{"ha":832,"x_min":0,"x_max":0,"o":"m 333 440 b 149 526 256 452 195 481 b 81 711 103 572 81 633 b 174 915 81 802 112 870 b 422 983 237 961 319 983 l 696 983 l 696 0 l 617 0 l 617 433 l 419 433 l 160 0 l 64 0 m 617 503 l 617 915 l 431 915 b 233 865 348 915 282 899 b 160 713 184 832 160 781 b 231 556 160 644 184 592 b 425 503 279 521 344 503 "},"а":{"ha":732,"x_min":0,"x_max":0,"o":"m 303 -18 b 149 31 245 -18 194 -2 b 81 175 103 63 81 111 b 105 271 81 212 89 244 b 167 334 121 298 142 319 b 260 370 192 349 223 361 b 369 388 298 379 334 385 b 490 392 405 390 445 392 l 539 392 l 539 421 b 356 601 539 541 478 601 b 163 525 280 601 215 576 l 121 575 b 363 664 182 634 263 664 b 543 604 438 664 498 644 b 611 429 588 564 611 506 l 611 146 b 622 0 611 88 615 39 l 554 0 b 543 119 547 44 543 84 l 540 119 b 303 -18 489 28 410 -18 m 321 44 b 483 113 391 44 445 67 b 539 279 520 159 539 214 l 539 332 l 490 332 b 158 179 269 332 158 281 b 206 77 158 133 174 99 b 321 44 238 55 276 44 "},"б":{"ha":854,"x_min":0,"x_max":0,"o":"m 432 -18 b 176 94 319 -18 234 19 b 94 394 122 156 94 256 b 98 545 94 453 96 503 b 111 676 100 587 105 631 b 141 792 118 722 128 760 b 192 880 154 823 171 853 b 270 944 212 907 238 929 b 382 976 302 960 339 971 l 590 1001 b 706 1065 656 1010 694 1031 l 760 1049 b 613 940 744 987 695 950 l 414 915 b 217 803 319 903 254 866 b 158 492 180 740 160 636 l 163 492 b 453 663 220 606 317 663 b 685 565 548 663 625 630 b 774 322 744 500 774 419 b 678 78 774 224 742 143 b 432 -18 614 14 532 -18 m 432 47 b 622 125 510 47 573 73 b 694 321 670 177 694 242 b 624 519 694 400 671 467 b 436 599 576 572 514 599 b 247 519 359 599 296 572 b 172 321 197 466 172 400 b 244 125 172 242 196 177 b 432 47 291 73 354 47 "},"в":{"ha":739,"x_min":0,"x_max":0,"o":"m 131 647 l 421 647 b 567 610 478 647 527 635 b 626 485 606 585 626 543 b 593 393 626 449 615 418 b 508 343 571 368 543 351 l 508 342 b 615 291 551 336 587 319 b 658 178 644 263 658 225 b 594 47 658 121 637 78 b 428 0 552 16 496 0 l 131 0 m 417 65 b 535 94 466 65 505 75 b 581 183 566 114 581 144 b 538 275 581 224 566 255 b 426 306 509 295 472 306 l 207 306 l 207 65 m 418 368 b 513 395 454 368 486 377 b 553 476 539 413 553 440 b 512 558 553 513 539 541 b 406 583 484 575 449 583 l 207 583 l 207 368 "},"г":{"ha":582,"x_min":0,"x_max":0,"o":"m 131 647 l 551 647 l 551 583 l 207 583 l 207 0 l 131 0 "},"д":{"ha":832,"x_min":0,"x_max":0,"o":"m 35 65 l 111 65 b 189 231 143 105 169 160 b 219 472 209 301 219 381 l 219 647 l 676 647 l 676 65 l 782 65 l 782 -212 l 711 -212 l 711 0 l 106 0 l 106 -212 l 35 -212 m 603 65 l 603 583 l 293 583 l 293 453 b 197 65 293 300 261 171 "},"е":{"ha":788,"x_min":0,"x_max":0,"o":"m 632 368 b 566 537 629 438 607 494 b 400 601 525 580 469 601 b 231 528 331 601 275 577 b 160 368 186 480 163 426 m 408 -18 b 174 79 314 -18 236 14 b 81 325 112 144 81 226 b 173 567 81 422 111 503 b 401 664 234 632 311 664 b 627 573 499 664 574 634 b 707 347 680 512 707 437 l 707 308 l 158 308 b 231 124 160 237 184 176 b 411 47 277 73 337 47 b 633 157 497 47 571 84 l 683 117 b 408 -18 614 27 522 -18 "},"ж":{"ha":1013,"x_min":0,"x_max":0,"o":"m 375 339 l 53 647 l 161 647 l 465 342 l 468 342 l 468 647 l 544 647 l 544 342 l 547 342 l 851 647 l 960 647 l 638 339 l 994 0 l 883 0 l 547 329 l 544 329 l 544 0 l 468 0 l 468 329 l 465 329 l 129 0 l 18 0 "},"з":{"ha":644,"x_min":0,"x_max":0,"o":"m 313 -18 b 54 101 197 -18 111 22 l 110 146 b 311 47 157 80 224 47 b 435 81 360 47 401 58 b 485 182 468 103 485 137 b 431 275 485 223 467 254 b 293 307 394 296 349 307 l 239 307 l 239 368 l 288 368 b 415 401 339 368 382 379 b 465 493 449 422 465 453 b 422 574 465 529 451 556 b 306 601 392 592 354 601 b 208 578 271 601 239 594 b 135 513 177 562 152 540 l 76 554 b 170 635 98 589 129 616 b 308 664 211 654 257 664 b 476 619 378 664 434 649 b 540 493 519 590 540 548 b 502 395 540 455 528 422 b 403 342 477 368 444 350 l 403 339 b 517 286 450 332 488 315 b 560 179 545 257 560 222 b 491 35 560 118 537 70 b 313 -18 445 0 386 -18 "},"и":{"ha":828,"x_min":0,"x_max":0,"o":"m 131 647 l 207 647 l 207 106 l 614 647 l 696 647 l 696 0 l 622 0 l 622 546 l 619 546 l 213 0 l 131 0 "},"й":{"ha":828,"x_min":0,"x_max":0,"o":"m 413 799 b 280 847 359 799 315 815 b 218 972 245 878 225 920 l 271 982 b 319 892 277 943 294 913 b 413 860 345 870 376 860 b 506 892 449 860 480 870 b 554 982 531 913 548 943 l 607 972 b 545 847 600 920 580 878 b 413 799 510 815 466 799 m 131 647 l 207 647 l 207 106 l 614 647 l 696 647 l 696 0 l 622 0 l 622 546 l 619 546 l 213 0 l 131 0 "},"к":{"ha":689,"x_min":0,"x_max":0,"o":"m 133 647 l 208 647 l 208 342 l 213 342 l 528 647 l 636 647 l 299 339 l 671 0 l 560 0 l 213 329 l 208 329 l 208 0 l 133 0 "},"л":{"ha":807,"x_min":0,"x_max":0,"o":"m 81 -7 b 17 1 56 -7 35 -4 l 26 67 b 69 60 38 62 53 60 b 190 148 124 60 164 89 b 228 422 215 207 228 298 l 228 647 l 676 647 l 676 0 l 601 0 l 601 583 l 301 583 l 301 399 b 81 -7 301 128 228 -7 "},"м":{"ha":1000,"x_min":0,"x_max":0,"o":"m 131 647 l 243 647 l 500 111 l 758 647 l 868 647 l 868 0 l 793 0 l 793 560 l 790 560 l 519 0 l 479 0 l 207 560 l 207 0 l 131 0 "},"н":{"ha":811,"x_min":0,"x_max":0,"o":"m 131 647 l 207 647 l 207 368 l 604 368 l 604 647 l 679 647 l 679 0 l 604 0 l 604 304 l 207 304 l 207 0 l 131 0 "},"о":{"ha":846,"x_min":0,"x_max":0,"o":"m 422 -18 b 177 79 323 -18 241 14 b 81 324 113 144 81 225 b 176 568 81 423 113 504 b 422 664 240 632 322 664 b 669 568 522 664 604 632 b 765 324 733 504 765 423 b 669 79 765 225 733 144 b 422 -18 604 14 522 -18 m 422 47 b 614 126 502 47 566 74 b 686 324 662 179 686 245 b 614 522 686 402 662 468 b 422 601 566 575 502 601 b 232 522 344 601 280 575 b 160 324 184 468 160 402 b 232 126 160 245 184 179 b 422 47 280 74 344 47 "},"п":{"ha":801,"x_min":0,"x_max":0,"o":"m 131 647 l 669 647 l 669 0 l 594 0 l 594 583 l 207 583 l 207 0 l 131 0 "},"р":{"ha":878,"x_min":0,"x_max":0,"o":"m 206 -333 l 131 -333 l 131 647 l 206 647 l 206 518 l 210 518 b 319 627 237 566 273 603 b 467 664 365 652 414 664 b 706 567 565 664 645 632 b 799 324 768 503 799 422 b 708 79 799 225 768 144 b 469 -18 647 14 568 -18 b 318 19 416 -18 365 -6 b 210 125 271 43 235 79 l 206 125 m 718 324 b 648 522 718 402 695 468 b 460 601 601 575 538 601 b 273 522 385 601 322 575 b 199 324 223 468 199 402 b 273 126 199 245 223 179 b 460 47 322 74 385 47 b 648 126 538 47 601 74 b 718 324 695 179 718 245 "},"с":{"ha":686,"x_min":0,"x_max":0,"o":"m 597 517 b 519 576 578 542 552 562 b 418 599 487 591 453 599 b 231 520 341 599 279 572 b 160 324 184 468 160 402 b 231 128 160 245 183 180 b 415 50 278 76 339 50 b 604 128 491 50 554 76 l 651 85 b 415 -18 592 16 513 -18 b 174 78 315 -18 235 14 b 82 324 113 142 82 224 b 176 568 82 423 113 504 b 417 664 238 632 319 664 b 647 563 517 664 594 630 "},"т":{"ha":613,"x_min":0,"x_max":0,"o":"m 268 583 l 29 583 l 29 647 l 582 647 l 582 583 l 343 583 l 343 0 l 268 0 "},"у":{"ha":653,"x_min":0,"x_max":0,"o":"m 117 -335 b 40 -325 94 -335 68 -331 l 50 -257 b 114 -268 69 -264 91 -268 b 190 -238 145 -268 171 -258 b 240 -150 209 -218 225 -189 l 296 -4 l 25 647 l 110 647 l 335 78 l 546 647 l 628 647 l 306 -181 b 232 -296 285 -231 261 -270 b 117 -335 203 -322 165 -335 "},"ф":{"ha":974,"x_min":0,"x_max":0,"o":"m 449 -18 b 174 74 332 -16 240 15 b 74 322 107 134 74 217 b 174 570 74 427 107 509 b 449 663 240 631 332 662 l 449 1057 l 525 1057 l 525 663 b 800 570 642 662 733 631 b 900 322 867 509 900 427 b 800 74 900 217 867 134 b 525 -18 733 15 642 -16 l 525 -333 l 449 -333 m 449 599 b 231 524 355 597 282 572 b 153 324 179 477 153 410 b 230 119 153 235 178 166 b 449 47 281 71 354 47 m 525 47 b 744 119 619 47 692 71 b 821 324 795 166 821 235 b 744 525 821 410 795 477 b 525 599 692 573 619 598 l 525 47 "},"х":{"ha":658,"x_min":0,"x_max":0,"o":"m 282 336 l 47 647 l 144 647 l 329 389 l 514 647 l 606 647 l 374 339 l 632 0 l 533 0 l 328 285 l 118 0 l 28 0 "},"ц":{"ha":825,"x_min":0,"x_max":0,"o":"m 704 0 l 131 0 l 131 647 l 207 647 l 207 65 l 594 65 l 594 647 l 669 647 l 669 65 l 775 65 l 775 -212 l 704 -212 "},"ч":{"ha":729,"x_min":0,"x_max":0,"o":"m 522 274 b 324 247 456 256 390 247 b 107 449 179 247 107 314 l 107 647 l 183 647 l 183 457 b 222 342 183 400 196 362 b 339 311 247 321 286 311 b 522 338 391 311 452 320 l 522 647 l 597 647 l 597 0 l 522 0 "},"ш":{"ha":1171,"x_min":0,"x_max":0,"o":"m 131 647 l 207 647 l 207 65 l 549 65 l 549 647 l 624 647 l 624 65 l 965 65 l 965 647 l 1040 647 l 1040 0 l 131 0 "},"щ":{"ha":1196,"x_min":0,"x_max":0,"o":"m 1075 0 l 131 0 l 131 647 l 207 647 l 207 65 l 549 65 l 549 647 l 624 647 l 624 65 l 965 65 l 965 647 l 1040 647 l 1040 65 l 1146 65 l 1146 -212 l 1075 -212 "},"ъ":{"ha":786,"x_min":0,"x_max":0,"o":"m 228 583 l 29 583 l 29 647 l 304 647 l 304 393 l 478 393 b 660 340 557 393 618 375 b 724 193 703 305 724 256 b 661 50 724 131 703 83 b 478 0 619 17 558 0 l 228 0 m 486 65 b 646 193 593 65 646 108 b 486 329 646 284 593 329 l 304 329 l 304 65 "},"ы":{"ha":961,"x_min":0,"x_max":0,"o":"m 131 647 l 207 647 l 207 393 l 381 393 b 563 340 460 393 521 375 b 626 193 605 305 626 256 b 564 50 626 131 606 83 b 381 0 522 17 461 0 l 131 0 m 389 65 b 549 193 495 65 549 108 b 389 329 549 284 495 329 l 207 329 l 207 65 m 754 647 l 829 647 l 829 0 l 754 0 "},"ь":{"ha":689,"x_min":0,"x_max":0,"o":"m 131 647 l 207 647 l 207 393 l 381 393 b 563 340 460 393 521 375 b 626 193 605 305 626 256 b 564 50 626 131 606 83 b 381 0 522 17 461 0 l 131 0 m 389 65 b 549 193 495 65 549 108 b 389 329 549 284 495 329 l 207 329 l 207 65 "},"э":{"ha":689,"x_min":0,"x_max":0,"o":"m 268 -18 b 29 83 167 -18 88 16 l 82 128 b 268 47 129 74 191 47 b 454 120 345 47 407 72 b 531 304 501 169 527 230 l 211 304 l 211 368 l 528 368 b 445 535 519 437 491 492 b 269 599 399 577 341 599 b 85 518 196 599 135 572 l 38 565 b 271 664 93 631 171 664 b 515 569 372 664 453 632 b 608 324 577 506 608 425 b 514 77 608 223 577 141 b 268 -18 451 14 369 -18 "},"ю":{"ha":1101,"x_min":0,"x_max":0,"o":"m 131 647 l 207 647 l 207 368 l 364 368 b 469 581 374 454 409 525 b 692 664 528 636 603 664 b 929 567 789 664 868 631 b 1021 322 990 502 1021 420 b 928 78 1021 224 990 143 b 692 -19 867 13 788 -19 b 460 72 598 -19 521 11 b 363 303 400 133 367 210 l 207 304 l 207 0 l 131 0 m 692 44 b 873 124 767 44 827 71 b 942 322 919 178 942 244 b 873 520 942 401 919 467 b 692 600 827 573 767 600 b 510 521 616 600 555 574 b 442 322 464 468 442 402 b 510 124 442 243 464 176 b 692 44 555 71 616 44 "},"я":{"ha":742,"x_min":0,"x_max":0,"o":"m 264 267 b 100 454 155 290 100 352 b 165 597 100 515 122 563 b 343 647 209 630 268 647 l 611 647 l 611 0 l 535 0 l 535 261 l 346 261 l 179 0 l 88 0 m 535 325 l 535 583 l 347 583 b 221 550 293 583 250 572 b 176 454 191 528 176 496 b 220 360 176 414 191 383 b 343 325 249 337 290 325 "},"ѐ":{"ha":788,"x_min":0,"x_max":0,"o":"m 632 368 b 566 537 629 438 607 494 b 400 601 525 580 469 601 b 231 528 331 601 275 577 b 160 368 186 480 163 426 m 408 -18 b 174 79 314 -18 236 14 b 81 325 112 144 81 226 b 173 567 81 422 111 503 b 401 664 234 632 311 664 b 627 573 499 664 574 634 b 707 347 680 512 707 437 l 707 308 l 158 308 b 231 124 160 237 184 176 b 411 47 277 73 337 47 b 633 157 497 47 571 84 l 683 117 b 408 -18 614 27 522 -18 m 222 983 l 322 983 l 463 783 l 397 783 "},"ё":{"ha":788,"x_min":0,"x_max":0,"o":"m 224 904 b 241 946 224 920 229 934 b 283 964 253 958 267 964 b 326 946 300 964 314 958 b 343 904 337 934 343 920 b 326 861 343 888 337 873 b 283 843 314 849 300 843 b 241 861 267 843 253 849 b 224 904 229 873 224 888 m 475 904 b 492 946 475 920 481 934 b 535 964 504 958 518 964 b 576 946 551 964 565 958 b 593 904 588 934 593 920 b 576 861 593 888 588 873 b 535 843 565 849 551 843 b 492 861 518 843 504 849 b 475 904 481 873 475 888 m 632 368 b 566 537 629 438 607 494 b 400 601 525 580 469 601 b 231 528 331 601 275 577 b 160 368 186 480 163 426 m 408 -18 b 174 79 314 -18 236 14 b 81 325 112 144 81 226 b 173 567 81 422 111 503 b 401 664 234 632 311 664 b 627 573 499 664 574 634 b 707 347 680 512 707 437 l 707 308 l 158 308 b 231 124 160 237 184 176 b 411 47 277 73 337 47 b 633 157 497 47 571 84 l 683 117 b 408 -18 614 27 522 -18 "},"ђ":{"ha":804,"x_min":0,"x_max":0,"o":"m 481 -335 b 403 -325 449 -335 423 -331 l 415 -260 b 479 -268 441 -265 463 -268 b 606 -100 563 -268 606 -212 l 606 367 b 421 601 606 523 544 601 b 269 530 362 601 311 578 b 207 329 228 482 207 415 l 207 0 l 132 0 l 132 796 l 13 796 l 13 853 l 132 853 l 132 1050 l 207 1050 l 207 853 l 432 853 l 432 796 l 207 796 l 207 521 l 210 521 b 300 625 227 564 257 599 b 438 664 343 651 388 664 b 620 590 519 664 580 639 b 681 394 660 540 681 475 l 681 -107 b 627 -276 681 -181 663 -237 b 481 -335 591 -315 543 -335 "},"ѓ":{"ha":582,"x_min":0,"x_max":0,"o":"m 332 783 l 267 783 l 407 983 l 507 983 m 131 647 l 551 647 l 551 583 l 207 583 l 207 0 l 131 0 "},"є":{"ha":689,"x_min":0,"x_max":0,"o":"m 421 -18 b 175 77 320 -18 238 14 b 81 324 112 141 81 223 b 174 569 81 425 112 506 b 419 664 236 632 318 664 b 656 565 521 664 600 631 l 604 518 b 419 603 553 575 492 603 b 244 538 349 603 291 581 b 161 368 198 494 170 438 l 499 368 l 499 304 l 158 304 b 235 119 162 230 188 168 b 421 44 283 69 345 44 b 607 128 496 44 558 72 l 661 83 b 421 -18 603 16 523 -18 "},"ѕ":{"ha":604,"x_min":0,"x_max":0,"o":"m 468 513 b 306 601 433 572 379 601 b 203 573 267 601 233 592 b 160 489 174 554 160 526 b 197 410 160 454 172 428 b 322 365 222 393 264 378 b 485 299 394 350 449 327 b 539 179 521 270 539 230 b 470 33 539 114 516 66 b 304 -17 424 0 369 -17 b 58 104 195 -17 113 24 l 118 147 b 197 75 138 118 164 94 b 304 47 229 56 265 47 b 417 78 349 47 386 58 b 464 174 448 99 464 131 b 425 250 464 206 451 231 b 331 291 399 269 368 282 b 221 320 295 300 258 309 b 126 376 184 331 152 350 b 88 483 100 403 88 439 b 152 618 88 543 109 588 b 308 664 195 649 247 664 b 438 635 356 664 400 654 b 526 554 477 616 506 589 "},"і":{"ha":338,"x_min":0,"x_max":0,"o":"m 131 647 l 207 647 l 207 0 l 131 0 m 168 847 b 129 864 153 847 140 853 b 113 904 118 875 113 888 b 129 944 113 920 118 933 b 168 961 140 956 153 961 b 208 944 183 961 196 956 b 225 904 219 933 225 920 b 208 864 225 888 219 875 b 168 847 196 853 183 847 "},"ї":{"ha":338,"x_min":0,"x_max":0,"o":"m -17 904 b 1 946 -17 920 -11 934 b 43 964 12 958 26 964 b 85 946 60 964 74 958 b 103 904 97 934 103 920 b 85 861 103 888 97 873 b 43 843 74 849 60 843 b 1 861 26 843 12 849 b -17 904 -11 873 -17 888 m 235 904 b 252 946 235 920 241 934 b 294 964 264 958 278 964 b 336 946 311 964 325 958 b 353 904 347 934 353 920 b 336 861 353 888 347 873 b 294 843 325 849 311 843 b 252 861 278 843 264 849 b 235 904 241 873 235 888 m 207 0 l 131 0 l 131 647 l 207 647 "},"ј":{"ha":339,"x_min":0,"x_max":0,"o":"m 32 -333 b -33 -325 4 -333 -18 -331 l -22 -262 b 31 -269 -4 -267 14 -269 b 112 -231 71 -269 98 -257 b 132 -121 125 -206 132 -169 l 132 647 l 207 647 l 207 -131 b 168 -279 207 -194 194 -243 b 32 -333 142 -315 97 -333 m 169 847 b 131 864 155 847 142 853 b 114 904 119 875 114 888 b 131 944 114 920 119 933 b 169 961 142 956 155 961 b 209 944 184 961 197 956 b 226 904 221 933 226 920 b 209 864 226 888 221 875 b 169 847 197 853 184 847 "},"љ":{"ha":1158,"x_min":0,"x_max":0,"o":"m 81 -7 b 17 1 56 -7 35 -4 l 26 67 b 69 60 38 62 53 60 b 190 148 124 60 164 89 b 228 422 215 207 228 298 l 228 647 l 676 647 l 676 393 l 850 393 b 1033 340 930 393 991 375 b 1096 193 1075 305 1096 256 b 1034 50 1096 131 1075 83 b 851 0 993 17 932 0 l 601 0 l 601 583 l 301 583 l 301 399 b 81 -7 301 128 228 -7 m 858 65 b 1018 193 965 65 1018 108 b 858 329 1018 284 965 329 l 676 329 l 676 65 "},"њ":{"ha":1161,"x_min":0,"x_max":0,"o":"m 131 647 l 207 647 l 207 379 l 604 379 l 604 647 l 679 647 l 679 379 l 853 379 b 1036 330 933 379 994 363 b 1099 186 1078 297 1099 249 b 854 0 1099 62 1017 0 l 604 0 l 604 315 l 207 315 l 207 0 l 131 0 m 861 65 b 1021 186 968 65 1021 106 b 861 315 1021 272 968 315 l 679 315 l 679 65 "},"ћ":{"ha":804,"x_min":0,"x_max":0,"o":"m 132 796 l 13 796 l 13 853 l 132 853 l 132 1050 l 207 1050 l 207 853 l 432 853 l 432 796 l 207 796 l 207 521 l 210 521 b 300 625 227 564 257 599 b 438 664 343 651 388 664 b 620 590 519 664 580 639 b 681 394 660 540 681 475 l 681 0 l 606 0 l 606 367 b 421 601 606 523 544 601 b 269 530 362 601 311 578 b 207 329 228 482 207 415 l 207 0 l 132 0 "},"ќ":{"ha":689,"x_min":0,"x_max":0,"o":"m 381 783 l 315 783 l 456 983 l 556 983 m 133 647 l 208 647 l 208 342 l 213 342 l 528 647 l 636 647 l 299 339 l 671 0 l 560 0 l 213 329 l 208 329 l 208 0 l 133 0 "},"ѝ":{"ha":828,"x_min":0,"x_max":0,"o":"m 238 983 l 336 983 l 476 783 l 411 783 m 131 647 l 207 647 l 207 106 l 614 647 l 696 647 l 696 0 l 622 0 l 622 546 l 619 546 l 213 0 l 131 0 "},"ў":{"ha":653,"x_min":0,"x_max":0,"o":"m 336 799 b 203 847 282 799 238 815 b 142 972 169 878 148 920 l 194 982 b 243 892 201 943 217 913 b 336 860 269 870 300 860 b 429 892 372 860 403 870 b 478 982 455 913 471 943 l 531 972 b 469 847 524 920 503 878 b 336 799 434 815 390 799 m 117 -335 b 40 -325 94 -335 68 -331 l 50 -257 b 114 -268 69 -264 91 -268 b 190 -238 145 -268 171 -258 b 240 -150 209 -218 225 -189 l 296 -4 l 25 647 l 110 647 l 335 78 l 546 647 l 628 647 l 306 -181 b 232 -296 285 -231 261 -270 b 117 -335 203 -322 165 -335 "},"џ":{"ha":801,"x_min":0,"x_max":0,"o":"m 365 0 l 131 0 l 131 647 l 207 647 l 207 65 l 594 65 l 594 647 l 669 647 l 669 0 l 436 0 l 436 -212 l 365 -212 "},"Ґ":{"ha":699,"x_min":0,"x_max":0,"o":"m 136 983 l 604 983 l 604 1186 l 679 1186 l 679 913 l 215 913 l 215 0 l 136 0 "},"ґ":{"ha":582,"x_min":0,"x_max":0,"o":"m 131 647 l 482 647 l 482 819 l 551 819 l 551 583 l 207 583 l 207 0 l 131 0 "},"Ẁ":{"ha":1343,"x_min":0,"x_max":0,"o":"m 364 104 l 367 104 l 622 983 l 721 983 l 978 104 l 982 104 l 1235 983 l 1318 983 l 1026 0 l 931 0 l 672 878 l 669 878 l 413 0 l 317 0 l 25 983 l 108 983 m 471 1261 l 571 1261 l 711 1061 l 646 1061 "},"ẁ":{"ha":1017,"x_min":0,"x_max":0,"o":"m 119 647 l 282 94 l 285 94 l 469 647 l 546 647 l 733 94 l 736 94 l 897 647 l 976 647 l 776 0 l 692 0 l 508 550 l 506 550 l 324 0 l 239 0 l 39 647 m 296 983 l 396 983 l 536 783 l 471 783 "},"Ẃ":{"ha":1343,"x_min":0,"x_max":0,"o":"m 364 104 l 367 104 l 622 983 l 721 983 l 978 104 l 982 104 l 1235 983 l 1318 983 l 1026 0 l 931 0 l 672 878 l 669 878 l 413 0 l 317 0 l 25 983 l 108 983 m 699 1061 l 633 1061 l 774 1261 l 874 1261 "},"ẃ":{"ha":1017,"x_min":0,"x_max":0,"o":"m 119 647 l 282 94 l 285 94 l 469 647 l 546 647 l 733 94 l 736 94 l 897 647 l 976 647 l 776 0 l 692 0 l 508 550 l 506 550 l 324 0 l 239 0 l 39 647 m 546 783 l 481 783 l 621 983 l 721 983 "},"Ẅ":{"ha":1343,"x_min":0,"x_max":0,"o":"m 364 104 l 367 104 l 622 983 l 721 983 l 978 104 l 982 104 l 1235 983 l 1318 983 l 1026 0 l 931 0 l 672 878 l 669 878 l 413 0 l 317 0 l 25 983 l 108 983 m 486 1182 b 503 1224 486 1198 492 1212 b 546 1242 515 1236 529 1242 b 588 1224 563 1242 576 1236 b 604 1182 599 1212 604 1198 b 588 1139 604 1165 599 1151 b 546 1121 576 1127 563 1121 b 503 1139 529 1121 515 1127 b 486 1182 492 1151 486 1165 m 738 1182 b 754 1224 738 1198 743 1212 b 796 1242 765 1236 779 1242 b 838 1224 813 1242 827 1236 b 856 1182 850 1212 856 1198 b 838 1139 856 1165 850 1151 b 796 1121 827 1127 813 1121 b 754 1139 779 1121 765 1127 b 738 1182 743 1151 738 1165 "},"ẅ":{"ha":1017,"x_min":0,"x_max":0,"o":"m 119 647 l 282 94 l 285 94 l 469 647 l 546 647 l 733 94 l 736 94 l 897 647 l 976 647 l 776 0 l 692 0 l 508 550 l 506 550 l 324 0 l 239 0 l 39 647 m 322 904 b 340 946 322 920 328 934 b 382 964 351 958 365 964 b 424 946 399 964 413 958 b 440 904 435 934 440 920 b 424 861 440 888 435 873 b 382 843 413 849 399 843 b 340 861 365 843 351 849 b 322 904 328 873 322 888 m 574 904 b 590 946 574 920 579 934 b 632 964 601 958 615 964 b 674 946 649 964 663 958 b 692 904 686 934 692 920 b 674 861 692 888 686 873 b 632 843 663 849 649 843 b 590 861 615 843 601 849 b 574 904 579 873 574 888 "},"Ỳ":{"ha":810,"x_min":0,"x_max":0,"o":"m 444 0 l 365 0 l 365 425 l 6 983 l 104 983 l 407 493 l 711 983 l 803 983 l 444 425 m 215 1261 l 315 1261 l 456 1061 l 390 1061 "},"ỳ":{"ha":653,"x_min":0,"x_max":0,"o":"m 117 -335 b 40 -325 94 -335 68 -331 l 50 -257 b 114 -268 69 -264 91 -268 b 190 -238 145 -268 171 -258 b 240 -150 209 -218 225 -189 l 296 -4 l 25 647 l 110 647 l 335 76 l 338 79 l 546 647 l 628 647 l 306 -181 b 232 -296 285 -231 261 -270 b 117 -335 203 -322 165 -335 m 140 983 l 240 983 l 381 783 l 315 783 "},"‐":{"ha":436,"x_min":0,"x_max":0,"o":"m 364 310 l 72 310 l 72 374 l 364 374 "},"–":{"ha":556,"x_min":0,"x_max":0,"o":"m 514 310 l 42 310 l 42 374 l 514 374 "},"—":{"ha":833,"x_min":0,"x_max":0,"o":"m 792 310 l 42 310 l 42 374 l 792 374 "},"‘":{"ha":307,"x_min":0,"x_max":0,"o":"m 175 983 l 238 983 l 149 660 l 69 660 "},"’":{"ha":307,"x_min":0,"x_max":0,"o":"m 132 660 l 69 660 l 158 983 l 238 983 "},"‚":{"ha":307,"x_min":0,"x_max":0,"o":"m 132 -193 l 69 -193 l 158 131 l 238 131 "},"“":{"ha":522,"x_min":0,"x_max":0,"o":"m 176 983 l 239 983 l 149 660 l 69 660 m 390 983 l 453 983 l 364 660 l 285 660 "},"”":{"ha":522,"x_min":0,"x_max":0,"o":"m 374 983 l 453 983 l 346 660 l 283 660 m 158 983 l 238 983 l 132 660 l 69 660 "},"„":{"ha":522,"x_min":0,"x_max":0,"o":"m 374 131 l 453 131 l 346 -193 l 283 -193 m 158 131 l 238 131 l 132 -193 l 69 -193 "},"†":{"ha":757,"x_min":0,"x_max":0,"o":"m 415 699 l 694 699 l 694 632 l 415 632 l 415 -175 l 342 -175 l 342 632 l 63 632 l 63 699 l 342 699 l 342 983 l 415 983 "},"‡":{"ha":757,"x_min":0,"x_max":0,"o":"m 415 711 l 686 711 l 686 643 l 415 643 l 415 165 l 686 165 l 686 97 l 415 97 l 415 -175 l 342 -175 l 342 97 l 71 97 l 71 165 l 342 165 l 342 643 l 71 643 l 71 711 l 342 711 l 342 983 l 415 983 "},"•":{"ha":694,"x_min":0,"x_max":0,"o":"m 101 492 b 173 666 101 560 125 618 b 347 738 221 714 279 738 b 522 666 416 738 474 714 b 593 492 569 618 593 560 b 522 317 593 423 569 365 b 347 246 474 270 416 246 b 173 317 279 246 221 270 b 101 492 125 365 101 423 "},"…":{"ha":1389,"x_min":0,"x_max":0,"o":"m 293 56 b 275 10 293 38 287 23 b 231 -8 263 -2 248 -8 b 187 10 213 -8 198 -2 b 169 56 175 23 169 38 b 187 99 169 72 175 87 b 231 118 198 112 213 118 b 275 99 248 118 263 112 b 293 56 287 87 293 72 m 757 56 b 739 10 757 38 751 23 b 694 -8 727 -2 712 -8 b 650 10 677 -8 662 -2 b 632 56 638 23 632 38 b 650 99 632 72 638 87 b 694 118 662 112 677 118 b 739 99 712 118 727 112 b 757 56 751 87 757 72 m 1219 56 b 1202 10 1219 38 1214 23 b 1158 -8 1191 -2 1176 -8 b 1114 10 1141 -8 1126 -2 b 1096 56 1102 23 1096 38 b 1114 99 1096 72 1102 87 b 1158 118 1126 112 1141 118 b 1202 99 1176 118 1191 112 b 1219 56 1214 87 1219 72 "},"‰":{"ha":1389,"x_min":0,"x_max":0,"o":"m 657 -14 b 510 48 600 -14 550 7 b 449 197 469 89 449 139 b 510 346 449 255 469 304 b 657 408 550 388 600 408 b 806 347 715 408 765 388 b 867 197 846 305 867 256 b 806 48 867 139 846 89 b 657 -14 765 7 715 -14 m 657 47 b 763 90 699 47 734 62 b 806 197 791 119 806 155 b 763 303 806 239 791 274 b 657 347 734 333 699 347 b 553 303 616 347 582 333 b 511 197 525 274 511 239 b 553 90 511 155 525 119 b 657 47 582 62 616 47 m 1140 -14 b 992 48 1083 -14 1034 7 b 931 197 951 89 931 139 b 992 346 931 255 951 304 b 1140 408 1034 388 1083 408 b 1289 347 1199 408 1248 388 b 1350 197 1330 305 1350 256 b 1289 48 1350 139 1330 89 b 1140 -14 1248 7 1199 -14 m 1140 47 b 1246 90 1182 47 1217 62 b 1289 197 1275 119 1289 155 b 1245 303 1289 239 1274 274 b 1140 347 1216 333 1181 347 b 1036 303 1100 347 1065 333 b 993 197 1007 274 993 239 b 1036 90 993 155 1007 119 b 1140 47 1065 62 1100 47 m 194 -42 l 138 -11 l 760 1025 l 815 994 m 251 578 b 103 640 194 578 145 598 b 42 789 62 681 42 731 b 103 938 42 846 62 896 b 251 1000 145 979 194 1000 b 400 938 310 1000 359 979 b 461 789 441 897 461 847 b 400 640 461 731 441 681 b 251 578 359 598 310 578 m 251 639 b 357 682 293 639 328 653 b 400 789 386 711 400 746 b 356 895 400 831 385 866 b 251 939 327 924 292 939 b 147 895 211 939 176 924 b 104 789 119 866 104 831 b 147 682 104 746 119 711 b 251 639 176 653 211 639 "},"‹":{"ha":438,"x_min":0,"x_max":0,"o":"m 332 83 l 279 47 l 92 332 l 278 617 l 331 581 l 172 332 "},"›":{"ha":438,"x_min":0,"x_max":0,"o":"m 106 581 l 158 618 l 346 332 l 160 47 l 107 83 l 265 332 "},"‽":{"ha":665,"x_min":0,"x_max":0,"o":"m 392 65 b 392 59 392 63 392 61 b 393 54 393 57 393 55 b 378 17 393 40 388 28 b 339 0 368 6 355 0 b 301 16 324 0 312 5 b 286 54 291 27 286 39 b 301 92 286 68 291 81 b 342 108 312 103 325 108 b 375 96 355 108 366 104 b 392 65 384 88 390 77 m 294 754 l 367 754 l 367 500 l 368 500 b 449 589 371 505 398 534 b 510 671 477 619 498 647 b 529 757 523 695 529 724 b 475 888 529 813 511 856 b 339 935 439 919 394 935 b 207 886 286 935 242 919 b 143 760 172 854 150 812 l 68 774 b 163 942 82 845 113 901 b 342 1003 212 982 271 1003 b 531 938 418 1003 481 981 b 606 761 581 895 606 836 b 575 636 606 711 595 669 b 483 532 555 603 524 568 b 395 438 441 494 411 463 b 371 343 379 413 371 381 l 371 269 l 294 269 "},"⁄":{"ha":139,"x_min":0,"x_max":0,"o":"m -222 -42 l -281 -11 l 342 1025 l 399 994 "},"⁰":{"ha":506,"x_min":0,"x_max":0,"o":"m 446 921 b 437 811 446 881 443 844 b 407 715 431 778 421 746 b 347 643 393 685 373 661 b 253 617 320 625 289 617 b 158 643 216 617 184 625 b 97 715 131 661 111 685 b 67 811 83 746 73 778 b 58 921 61 844 58 881 b 74 1065 58 975 63 1023 b 135 1177 84 1108 104 1145 b 253 1225 165 1209 205 1225 b 370 1177 301 1225 340 1209 b 431 1066 400 1145 420 1108 b 446 921 441 1024 446 975 m 376 921 b 371 1001 376 949 375 975 b 353 1079 367 1027 361 1053 b 315 1142 344 1105 332 1126 b 253 1165 297 1157 277 1165 b 174 1122 220 1165 194 1151 b 136 1029 154 1094 142 1063 b 128 921 131 996 128 960 b 136 811 128 881 131 844 b 174 719 142 778 154 747 b 253 676 194 691 220 676 b 315 700 277 676 297 684 b 353 763 332 716 344 737 b 371 840 361 788 367 814 b 376 921 375 866 376 893 "},"⁴":{"ha":506,"x_min":0,"x_max":0,"o":"m 310 628 l 310 768 l 46 768 l 46 828 l 292 1214 l 371 1214 l 371 828 l 457 828 l 457 768 l 371 768 l 371 628 m 310 1125 l 306 1125 l 115 828 l 310 828 "},"⁵":{"ha":506,"x_min":0,"x_max":0,"o":"m 435 814 b 380 670 435 754 416 706 b 240 617 343 634 297 617 b 61 726 155 617 95 653 l 122 751 b 240 676 149 701 188 676 b 331 712 276 676 306 688 b 367 810 355 735 367 768 b 330 906 367 850 354 882 b 232 943 305 931 273 943 b 106 904 195 943 153 930 l 111 1214 l 411 1214 l 411 1153 l 176 1153 l 172 988 b 247 1000 192 996 217 1000 b 383 948 304 1000 349 983 b 435 814 418 913 435 869 "},"⁶":{"ha":506,"x_min":0,"x_max":0,"o":"m 444 804 b 390 669 444 750 426 705 b 253 617 354 634 308 617 b 117 669 198 617 153 634 b 63 804 81 705 63 750 b 115 960 63 850 80 902 l 271 1214 l 350 1214 l 197 974 l 199 972 b 263 989 218 983 239 989 b 392 937 314 989 358 972 b 444 804 427 902 444 858 m 376 804 b 343 894 376 840 365 870 b 256 931 321 919 292 931 b 165 894 219 931 189 919 b 129 804 141 870 129 840 b 164 713 129 767 141 737 b 254 676 187 688 217 676 b 342 713 289 676 319 688 b 376 804 365 737 376 767 "},"⁷":{"ha":506,"x_min":0,"x_max":0,"o":"m 124 628 l 358 1153 l 86 1153 l 86 1214 l 432 1214 l 432 1160 l 199 628 "},"⁸":{"ha":506,"x_min":0,"x_max":0,"o":"m 440 789 b 385 665 440 738 422 697 b 253 617 349 633 305 617 b 119 665 201 617 156 633 b 64 789 82 697 64 738 b 163 939 64 860 97 910 l 163 940 b 86 1069 112 967 86 1010 b 134 1181 86 1115 102 1152 b 253 1225 166 1210 206 1225 b 372 1181 300 1225 340 1210 b 419 1069 403 1152 419 1115 b 342 940 419 1011 394 968 l 342 939 b 414 880 372 927 396 907 b 440 789 431 853 440 822 m 253 1165 b 181 1138 224 1165 200 1156 b 153 1067 162 1119 153 1095 b 181 997 153 1039 162 1016 b 253 968 200 978 224 968 b 324 997 281 968 305 978 b 353 1067 343 1016 353 1039 b 324 1138 353 1095 343 1119 b 253 1165 305 1156 281 1165 m 253 908 b 165 875 218 908 188 897 b 131 792 142 853 131 825 b 165 709 131 758 142 731 b 253 676 187 687 217 676 b 340 709 289 676 318 687 b 374 792 363 731 374 758 b 340 875 374 825 362 853 b 253 908 317 897 288 908 "},"⁹":{"ha":506,"x_min":0,"x_max":0,"o":"m 443 1039 b 390 881 442 988 425 935 l 235 628 l 156 628 l 310 869 l 308 871 b 243 854 291 860 269 854 b 113 907 191 854 148 872 b 61 1039 78 942 61 986 b 116 1172 61 1093 79 1137 b 253 1225 153 1207 198 1225 b 389 1172 307 1225 353 1207 b 443 1039 425 1137 443 1093 m 376 1039 b 341 1128 376 1074 365 1104 b 253 1165 317 1153 288 1165 b 164 1129 217 1165 187 1153 b 129 1039 141 1105 129 1075 b 163 948 129 1002 141 972 b 251 913 186 924 215 913 b 341 949 288 913 317 925 b 376 1039 365 973 376 1003 "},"₀":{"ha":506,"x_min":0,"x_max":0,"o":"m 446 101 b 437 -8 446 62 443 25 b 407 -104 431 -42 421 -74 b 347 -176 393 -135 373 -159 b 253 -203 320 -194 289 -203 b 158 -176 216 -203 184 -194 b 97 -104 131 -159 111 -135 b 67 -8 83 -74 73 -42 b 58 101 61 25 58 62 b 74 246 58 155 63 203 b 135 358 84 288 104 326 b 253 406 165 390 205 406 b 370 358 301 406 340 390 b 431 247 400 326 420 289 b 446 101 441 204 446 156 m 376 101 b 371 182 376 129 375 156 b 353 260 367 208 361 234 b 315 322 344 286 332 306 b 253 346 297 338 277 346 b 174 303 220 346 194 331 b 136 210 154 274 142 243 b 128 101 131 176 128 140 b 136 -8 128 62 131 25 b 174 -101 142 -42 154 -72 b 253 -143 194 -129 220 -143 b 315 -119 277 -143 297 -135 b 353 -57 332 -104 344 -83 b 371 21 361 -31 367 -5 b 376 101 375 47 376 74 "},"₁":{"ha":506,"x_min":0,"x_max":0,"o":"m 239 311 l 138 229 l 94 275 l 250 394 l 307 394 l 307 -192 l 239 -192 "},"₂":{"ha":506,"x_min":0,"x_max":0,"o":"m 63 -192 l 63 -128 l 289 107 b 361 246 336 155 360 201 b 332 318 361 276 351 300 b 257 344 313 336 288 344 b 184 318 229 344 205 336 b 142 244 163 300 149 276 l 76 257 b 140 365 86 302 107 338 b 257 406 174 392 213 406 b 383 363 308 406 350 391 b 432 247 416 335 432 296 b 407 154 432 212 424 181 b 328 58 390 127 364 95 l 144 -131 l 435 -131 l 435 -192 "},"₃":{"ha":506,"x_min":0,"x_max":0,"o":"m 242 -203 b 54 -81 152 -203 89 -162 l 117 -58 b 167 -121 128 -85 145 -106 b 242 -143 190 -136 215 -143 b 328 -113 277 -143 306 -133 b 363 -29 351 -93 363 -65 b 321 56 363 9 349 37 b 219 85 293 75 259 85 l 186 85 l 186 142 l 219 142 b 312 170 258 142 289 151 b 346 250 334 189 346 216 b 315 320 346 279 336 302 b 240 347 295 338 270 347 b 132 281 193 347 157 325 l 78 310 b 243 406 116 374 171 406 b 365 364 292 406 333 392 b 413 250 397 336 413 298 b 387 168 413 219 404 191 b 318 117 370 145 347 128 b 400 63 352 106 380 89 b 431 -29 420 38 431 7 b 376 -157 431 -84 413 -126 b 242 -203 340 -187 295 -203 "},"₄":{"ha":506,"x_min":0,"x_max":0,"o":"m 310 -192 l 310 -51 l 46 -51 l 46 8 l 292 394 l 371 394 l 371 8 l 457 8 l 457 -51 l 371 -51 l 371 -192 m 310 306 l 306 306 l 115 8 l 310 8 "},"₅":{"ha":506,"x_min":0,"x_max":0,"o":"m 435 -6 b 380 -149 435 -66 416 -114 b 240 -203 343 -185 297 -203 b 61 -93 155 -203 95 -166 l 122 -68 b 240 -143 149 -118 188 -143 b 331 -108 276 -143 306 -131 b 367 -10 355 -84 367 -51 b 330 87 367 30 354 62 b 232 124 305 111 273 124 b 106 85 195 124 153 111 l 111 394 l 411 394 l 411 333 l 176 333 l 172 168 b 247 181 192 176 217 181 b 383 128 304 181 349 163 b 435 -6 418 94 435 49 "},"₆":{"ha":506,"x_min":0,"x_max":0,"o":"m 444 -15 b 390 -150 444 -70 426 -115 b 253 -203 354 -185 308 -203 b 117 -150 198 -203 153 -185 b 63 -15 81 -115 63 -70 b 115 140 63 31 80 83 l 271 394 l 350 394 l 197 154 l 199 153 b 263 169 218 164 239 169 b 392 117 314 169 358 152 b 444 -15 427 83 444 38 m 376 -15 b 343 75 376 21 365 51 b 256 111 321 99 292 111 b 165 75 219 111 189 99 b 129 -15 141 51 129 21 b 164 -107 129 -52 141 -83 b 254 -143 187 -131 217 -143 b 342 -107 289 -143 319 -131 b 376 -15 365 -83 376 -52 "},"₇":{"ha":506,"x_min":0,"x_max":0,"o":"m 124 -192 l 358 333 l 86 333 l 86 394 l 432 394 l 432 340 l 199 -192 "},"₈":{"ha":506,"x_min":0,"x_max":0,"o":"m 440 -31 b 385 -155 440 -81 422 -123 b 253 -203 349 -187 305 -203 b 119 -155 201 -203 156 -187 b 64 -31 82 -123 64 -81 b 163 119 64 41 97 91 l 163 121 b 86 250 112 148 86 191 b 134 362 86 295 102 333 b 253 406 166 391 206 406 b 372 362 300 406 340 391 b 419 250 403 333 419 295 b 342 121 419 192 394 149 l 342 119 b 414 60 372 107 396 88 b 440 -31 431 33 440 3 m 253 346 b 181 318 224 346 200 337 b 153 247 162 300 153 276 b 181 177 153 219 162 196 b 253 149 200 158 224 149 b 324 177 281 149 305 158 b 353 247 343 196 353 219 b 324 318 353 276 343 300 b 253 346 305 337 281 346 m 253 89 b 165 56 218 89 188 78 b 131 -28 142 33 131 6 b 165 -110 131 -61 142 -89 b 253 -143 187 -132 217 -143 b 340 -110 289 -143 318 -132 b 374 -28 363 -89 374 -61 b 340 56 374 6 362 33 b 253 89 317 78 288 89 "},"₉":{"ha":506,"x_min":0,"x_max":0,"o":"m 443 219 b 390 61 442 169 425 116 l 235 -192 l 156 -192 l 310 50 l 308 51 b 243 35 290 40 268 35 b 113 88 191 35 148 52 b 61 219 78 123 61 167 b 116 353 61 273 79 318 b 253 406 153 388 198 406 b 389 353 307 406 353 388 b 443 219 425 318 443 273 m 376 219 b 341 309 376 255 365 284 b 253 346 317 334 288 346 b 164 310 217 346 187 334 b 129 219 141 286 129 256 b 163 128 129 182 141 152 b 251 93 186 105 215 93 b 341 129 288 93 317 105 b 376 219 365 153 376 183 "},"℅":{"ha":1153,"x_min":0,"x_max":0,"o":"m 296 528 b 124 594 225 528 168 550 b 58 764 80 639 58 695 b 124 933 58 832 80 889 b 296 1000 168 978 225 1000 b 465 922 369 1000 425 974 l 411 881 b 296 939 382 919 344 939 b 177 889 247 939 207 922 b 132 764 147 856 132 814 b 177 639 132 714 147 672 b 296 589 207 606 247 589 b 418 646 344 589 385 608 l 469 606 b 296 528 425 554 367 528 m 236 -11 l 857 1025 l 914 994 l 293 -42 m 1094 219 b 1028 50 1094 151 1072 94 b 857 -17 983 6 926 -17 b 686 50 788 -17 731 6 b 619 219 642 94 619 151 b 686 389 619 288 642 344 b 857 456 731 433 788 456 b 1028 389 926 456 983 433 b 1094 219 1072 344 1094 288 m 1021 219 b 976 344 1021 269 1006 311 b 857 394 946 378 906 394 b 739 344 808 394 769 378 b 694 219 709 311 694 269 b 739 94 694 169 709 128 b 857 44 769 61 808 44 b 976 94 906 44 946 61 b 1021 219 1006 128 1021 169 "},"ℓ":{"ha":694,"x_min":0,"x_max":0,"o":"m 565 53 b 396 -19 514 5 458 -19 b 276 24 347 -19 307 -5 b 231 153 246 52 231 95 l 231 332 l 149 242 l 146 242 l 117 282 l 231 399 l 231 764 b 277 938 231 838 246 896 b 396 1001 308 980 348 1001 b 497 955 438 1001 471 986 b 536 829 523 924 536 882 b 304 385 536 699 459 550 l 304 165 b 336 67 304 119 315 86 b 413 39 357 48 383 39 b 535 92 456 39 497 56 l 538 92 l 565 53 m 474 824 b 451 913 474 861 466 891 b 396 947 437 936 418 947 b 331 903 371 947 349 933 b 304 775 313 874 304 831 l 304 451 b 474 824 417 585 474 709 "},"№":{"ha":1439,"x_min":0,"x_max":0,"o":"m 136 983 l 243 983 l 756 111 l 756 983 l 835 983 l 835 0 l 728 0 l 215 878 l 215 0 l 136 0 m 994 496 l 1381 496 l 1381 432 l 994 432 m 1188 582 b 1039 640 1127 582 1078 601 b 981 789 1000 679 981 729 b 1039 937 981 849 1000 898 b 1188 994 1078 975 1127 994 b 1336 937 1248 994 1297 975 b 1394 789 1375 898 1394 849 b 1336 640 1394 729 1375 679 b 1188 582 1297 601 1248 582 m 1188 635 b 1291 679 1231 635 1266 650 b 1329 789 1316 709 1329 745 b 1292 897 1329 831 1317 868 b 1188 942 1267 927 1232 942 b 1083 897 1143 942 1108 927 b 1046 789 1058 868 1046 831 b 1084 679 1046 745 1059 709 b 1188 635 1109 650 1144 635 "},"℗":{"ha":1111,"x_min":0,"x_max":0,"o":"m 28 490 b 183 861 28 636 79 759 b 557 1014 286 963 411 1014 b 929 861 702 1014 826 963 b 1083 490 1032 759 1083 636 b 929 122 1083 346 1032 223 b 557 -31 826 20 702 -31 b 183 122 411 -31 286 20 b 28 490 79 223 28 346 m 96 490 b 231 167 96 364 141 257 b 557 33 322 78 430 33 b 881 167 684 33 792 78 b 1015 490 971 257 1015 364 b 881 815 1015 617 971 725 b 557 950 792 905 684 950 b 231 815 430 950 322 905 b 96 490 141 725 96 617 m 393 788 l 607 788 b 766 738 674 788 727 771 b 825 597 805 705 825 658 b 766 458 825 539 805 492 b 608 406 727 423 674 406 l 467 406 l 467 178 l 393 178 m 606 471 b 713 504 652 471 688 482 b 750 597 738 526 750 557 b 711 690 750 637 737 668 b 604 722 685 711 650 722 l 467 722 l 467 471 "},"™":{"ha":1389,"x_min":0,"x_max":0,"o":"m 551 922 l 367 922 l 367 411 l 299 411 l 299 922 l 111 922 l 111 983 l 551 983 m 1274 411 l 1206 411 l 1206 910 l 1203 910 l 997 411 l 954 411 l 750 910 l 747 910 l 747 411 l 679 411 l 679 983 l 786 983 l 978 519 l 1169 983 l 1274 983 "},"Ω":{"ha":1031,"x_min":0,"x_max":0,"o":"m 611 0 l 611 243 b 801 357 694 258 757 296 b 868 578 846 418 868 492 b 764 832 868 680 833 764 b 507 933 694 900 609 933 b 251 832 406 933 321 900 b 147 578 182 764 147 680 b 214 356 147 491 169 417 b 404 243 258 294 322 257 l 404 0 l 74 0 l 74 65 l 344 65 l 344 196 b 146 338 260 220 194 267 b 74 579 98 408 74 488 b 201 881 74 700 116 800 b 508 1001 287 961 389 1001 b 815 881 628 1001 730 961 b 942 581 899 801 942 701 b 870 338 942 489 918 408 b 671 196 822 267 756 220 l 671 65 l 942 65 l 942 0 "},"℮":{"ha":840,"x_min":0,"x_max":0,"o":"m 218 360 l 218 108 b 419 26 273 54 340 26 b 688 193 532 26 622 82 l 736 164 b 600 20 694 97 648 49 b 419 -24 552 -9 492 -24 b 160 86 313 -24 227 13 b 61 360 94 159 61 250 b 160 634 61 470 94 561 b 419 743 225 707 312 743 b 678 636 526 743 612 707 b 779 360 745 565 778 473 m 622 410 l 622 611 b 418 694 564 667 496 694 b 218 611 340 694 274 667 l 218 410 "},"∂":{"ha":681,"x_min":0,"x_max":0,"o":"m 314 -18 b 121 72 234 -18 170 12 b 47 290 72 132 47 205 b 119 502 47 376 71 447 b 308 585 166 557 230 585 b 442 550 356 585 400 573 b 547 456 483 527 519 495 b 548 499 547 466 547 480 b 549 540 548 517 549 531 b 524 732 549 610 540 674 b 439 881 507 790 479 840 b 292 942 399 921 350 942 b 138 879 242 942 190 921 l 97 928 b 288 1003 155 978 218 1003 b 419 974 337 1003 380 993 b 513 897 457 954 489 928 b 574 783 538 865 558 827 b 608 649 591 739 602 694 b 618 506 615 603 618 556 b 603 309 618 434 613 369 b 553 144 593 249 576 194 b 458 25 531 93 499 54 b 314 -18 418 -4 369 -18 m 315 42 b 420 76 355 42 390 53 b 490 166 450 98 473 128 b 526 276 506 203 518 240 b 540 385 534 311 538 348 b 315 522 477 476 402 522 b 170 453 253 522 205 499 b 118 289 135 408 118 353 b 171 118 118 226 136 169 b 315 42 206 67 254 42 "},"∆":{"ha":925,"x_min":0,"x_max":0,"o":"m 31 0 l 418 989 l 503 989 l 897 0 m 460 915 l 131 68 l 792 68 "},"∏":{"ha":985,"x_min":0,"x_max":0,"o":"m 804 -297 l 804 1024 l 181 1024 l 181 -297 l 107 -297 l 107 1092 l 878 1092 l 878 -297 "},"∑":{"ha":835,"x_min":0,"x_max":0,"o":"m 43 -297 l 43 -235 l 504 401 l 63 1028 l 63 1092 l 774 1092 l 774 1024 l 156 1024 l 594 401 l 132 -229 l 790 -229 l 790 -297 "},"−":{"ha":925,"x_min":0,"x_max":0,"o":"m 807 389 l 118 389 l 118 456 l 807 456 "},"∕":{"ha":139,"x_min":0,"x_max":0,"o":"m -222 -42 l -281 -11 l 342 1025 l 399 994 "},"∙":{"ha":353,"x_min":0,"x_max":0,"o":"m 239 411 b 221 367 239 394 233 380 b 176 349 209 355 194 349 b 132 367 159 349 144 355 b 114 411 120 380 114 394 b 132 456 114 428 120 443 b 176 475 144 469 159 475 b 221 456 194 475 209 469 b 239 411 233 443 239 428 "},"√":{"ha":678,"x_min":0,"x_max":0,"o":"m 393 -297 l 315 -297 l 86 186 l 15 153 l -11 210 l 119 271 l 344 -207 l 614 1092 l 683 1092 "},"∞":{"ha":1021,"x_min":0,"x_max":0,"o":"m 256 149 b 122 204 201 149 156 167 b 71 346 88 241 71 288 b 122 488 71 402 88 450 b 254 544 155 525 200 544 b 353 517 286 544 319 535 b 436 462 388 498 416 480 b 515 386 456 444 483 419 l 528 399 b 602 470 559 430 584 454 b 678 520 620 486 645 503 b 771 546 710 537 741 546 b 906 490 826 546 872 527 b 958 349 941 453 958 406 b 907 206 958 291 941 244 b 772 149 873 168 828 149 b 645 190 728 149 685 163 b 515 303 605 218 562 256 b 483 274 512 300 501 290 b 448 241 466 257 454 246 b 415 214 442 236 431 227 b 376 187 398 201 386 192 b 340 168 367 182 355 175 b 298 153 325 161 311 156 b 256 149 284 150 270 149 m 257 213 b 472 344 314 213 386 256 b 354 446 428 388 388 422 b 253 482 320 470 286 482 b 167 442 217 482 188 469 b 135 346 145 416 135 384 b 167 250 135 307 146 275 b 257 213 189 225 219 213 m 776 213 b 863 250 813 213 841 225 b 894 344 884 275 894 306 b 862 443 894 383 884 416 b 772 483 840 470 810 483 b 697 460 749 483 724 476 b 630 413 670 445 648 429 b 557 343 612 397 588 374 b 674 246 601 300 640 268 b 776 213 707 224 741 213 "},"∫":{"ha":751,"x_min":0,"x_max":0,"o":"m 225 -292 b 170 -277 204 -292 185 -287 b 147 -233 155 -267 147 -253 b 159 -206 147 -222 151 -213 b 188 -194 167 -198 176 -194 b 227 -219 202 -194 216 -203 b 254 -244 239 -236 248 -244 b 308 -17 290 -244 308 -169 l 310 215 b 311 769 310 577 310 762 b 312 806 311 774 311 786 b 313 847 312 825 313 839 b 316 888 314 856 315 869 b 322 931 317 907 319 922 b 331 970 324 941 327 954 b 344 1008 334 986 339 999 b 363 1039 349 1018 355 1028 b 389 1065 371 1050 380 1059 b 422 1080 398 1071 409 1076 b 465 1086 435 1084 450 1086 b 525 1071 488 1086 507 1081 b 551 1025 543 1061 551 1045 b 507 985 551 998 537 985 b 467 1010 492 985 479 993 b 439 1036 456 1028 446 1036 b 383 792 401 1036 382 955 l 383 779 l 383 75 b 382 -20 383 37 383 5 b 376 -105 381 -46 379 -74 b 360 -181 372 -136 367 -161 b 333 -238 353 -201 344 -220 b 288 -278 321 -256 306 -270 b 225 -292 270 -287 249 -292 "},"≈":{"ha":925,"x_min":0,"x_max":0,"o":"m 86 371 b 137 500 93 423 109 466 b 256 551 164 534 204 551 b 456 501 298 551 365 535 b 643 451 547 468 610 451 b 763 564 707 451 747 489 l 811 564 b 762 438 806 514 790 472 b 642 386 734 403 694 386 b 443 435 601 386 535 403 b 258 485 351 468 290 485 b 175 452 223 485 195 474 b 138 371 155 430 142 403 l 86 371 m 86 126 b 254 308 103 248 159 308 b 454 258 296 308 363 292 b 643 208 546 225 609 208 b 761 321 706 208 745 246 l 811 321 b 760 192 806 270 789 227 b 640 140 732 158 692 140 b 443 190 600 140 534 157 b 258 240 352 224 291 240 b 175 208 223 240 195 229 b 138 126 155 186 142 159 l 86 126 "},"≠":{"ha":925,"x_min":0,"x_max":0,"o":"m 410 204 l 300 -8 l 242 22 l 336 204 l 121 204 l 121 269 l 371 269 l 468 460 l 121 460 l 121 526 l 504 526 l 610 731 l 668 700 l 578 526 l 804 526 l 804 460 l 543 460 l 444 269 l 804 269 l 804 204 "},"≤":{"ha":925,"x_min":0,"x_max":0,"o":"m 121 410 l 121 482 l 804 760 l 804 688 l 207 446 l 804 204 l 804 133 m 121 6 l 121 72 l 804 72 l 804 6 "},"≥":{"ha":925,"x_min":0,"x_max":0,"o":"m 121 133 l 121 204 l 719 446 l 121 688 l 121 760 l 804 482 l 804 410 m 121 6 l 121 72 l 804 72 l 804 6 "},"◊":{"ha":824,"x_min":0,"x_max":0,"o":"m 446 -49 l 375 -49 l 143 494 l 375 1038 l 446 1038 l 681 494 m 411 968 l 215 494 l 411 21 l 607 494 "},"":{"ha":735,"x_min":0,"x_max":0,"o":"m 392 583 l 233 583 l 233 0 l 157 0 l 157 583 l 22 583 l 22 647 l 157 647 l 157 840 b 211 1009 157 914 175 971 b 361 1067 247 1047 297 1067 b 435 1057 391 1067 415 1063 l 422 992 b 360 1001 400 998 379 1001 b 233 832 275 1001 233 945 l 233 647 l 392 647 m 604 0 l 529 0 l 529 647 l 604 647 m 622 904 b 606 864 622 888 617 875 b 567 847 594 853 581 847 b 527 864 552 847 539 853 b 510 904 516 875 510 888 b 527 944 510 920 516 933 b 567 961 539 956 552 961 b 606 944 581 961 594 956 b 622 904 617 933 622 920 "},"":{"ha":735,"x_min":0,"x_max":0,"o":"m 392 583 l 233 583 l 233 0 l 157 0 l 157 583 l 22 583 l 22 647 l 157 647 l 157 840 b 211 1009 157 914 175 971 b 361 1067 247 1047 297 1067 b 435 1057 391 1067 415 1063 l 422 992 b 360 1001 400 998 379 1001 b 233 832 275 1001 233 945 l 233 647 l 392 647 m 603 0 l 528 0 l 528 1050 l 603 1050 "},"":{"ha":711,"x_min":0,"x_max":0,"o":"m 308 163 l 308 256 l 386 256 l 386 163 m 313 325 l 310 349 b 326 459 310 399 315 435 b 392 543 336 483 358 511 b 448 608 420 572 439 594 b 461 658 457 623 461 640 b 430 742 461 692 451 720 b 356 776 409 765 384 776 b 242 644 290 776 252 732 l 172 656 b 232 799 179 719 199 767 b 360 846 265 830 308 846 b 483 796 410 846 451 829 b 532 664 516 763 532 719 b 514 581 532 633 526 606 b 444 497 502 556 479 528 b 385 428 410 467 390 444 b 376 325 379 412 376 378 m 642 69 l 642 926 l 69 926 l 69 69 m 711 997 l 711 0 l 0 0 l 0 997 "}}}
